<?xml version="1.0" encoding="UTF-8" standalone="no"?>
<svg
   id="fantasyMap"
   width="517.28418"
   height="484"
   version="1.1"
   background-color="#000000"
   xmlns="http://www.w3.org/2000/svg"
   xmlns:svg="http://www.w3.org/2000/svg">
  <defs
     id="defs7517" />
  <g
     id="land_1706637220.5963764"
     style="display:inline"
     transform="translate(-1553.0852,-251.745)">
    <path
       id="state-border5"
       d="m 1634.823,275.245 -10,-4 -12,9 -4,-2 -13,13 v 2 l -1,1 -9,1 -5,-12 -3,1 -3.5,5 -3.5,5 -17,8 2,3 8,5 5,11 h -1 l 15,14 -1,8 2,2 19,-2 2,-1 9,3 6,10 15,-2 7,12 -2,6 v 2 l 15,13 4,-1 11,3 5,10 20,-4 4,-7 v 0 l 19,17 3,-2 3,-20 4,-2 4,1 15,17 15,-11 8,10 10,2 1,1 -4,21 6,3 v 14 l 16,3 -1,17 17,-1 4,12 2,2 -4,15 4,4 5,3 3,12 5,3 13,-3 2,2 4,13 3,3 3,2 8,10 v 4 l 12,4 8,14 h 2 l 3,-1 5,1 7,-2 11,3 h 3 l 2,-5 -3,-10 5,-5 11,1 v 0 l 10,2 2,-1 1,-1 10,-5 v -1 0 l -8,-12 h -3 l -7,-8 1,-5 6,-2 5,-6 1,-1 3,-3 -2,-6 4,-10 -1,-2 v -10 l 9,-1 4,6 -1,7 3,3 3,7 6,2 v 0 l 12,3 5,7 10,-1 2,2 9,4 4,-1 5,1 4,-2 h 5 l 5,-10 -1,-3 5,-5 10,3 h 1 l 11,1 3,-6 1,-6 -3,-2 -3,-10 2,-5 -4,-11 v -1 0 l -5,-10 v -1 l -4,-5 -1,-9 -1,-1 -2,-9 v 0 l -3,-13 -8,-1 -10,7 v 3 l 2,6 -1,6 2,5 v 5 l -6,6 -5,2 -7,-3 -5,3 -10,-3 -4,3 -9,-3 -9,3 -3,4 -3,2 -4,4 h -8 l -7,-8 2,-10 5,-2 3,-4 -2,-6 -8,-5 v -3 l 6,-8 v 0 l 4,-14 -13,-3 -1,-2 h -10 l -2,-14 3,-2 1,-14 2,-2 v -4 -1 l -8,-6 -12,-1 -5,3 -3,-1 -5,-4 -3,-3 -1,-10 -3,-2 -2,-5 -9,-5 -1,-11 1,-1 1,-12 -3,-4 -17,12 -2,-2 -15,-8 -1,-1 -18,15 -7,-15 3,-8 -1,-5 -16,-3 -2,1 -18,-1 -1,1 -11,4 -9,-7 1,-12 -13,-6 h -2 l -11,4 -3,10 -21,-5 v 1 l -16,-3 -1,1 -13,1 -3,3 -18,-6 -6,7 -7,2 -8,-8 -3,-1 -14,17 m 305,437 1,2 -1,1 3,9 4,2 -2,9 h 13 l 1,-2 -3,-7 1,-3 -2,-10 1,-1 -1,-10 -2,-1 h -11 l -1,1 -1,10"
       clip-path="url(#state-clip5)"
       stroke="#74973b"
       style="fill:#ffffff;stroke:#000000" />
  </g>
</svg>
