<?xml version="1.0" encoding="UTF-8" standalone="no"?>
<svg
   id="fantasyMap"
   width="934.10724"
   height="565.07349"
   version="1.1"
   background-color="#000000"
   xmlns="http://www.w3.org/2000/svg"
   xmlns:svg="http://www.w3.org/2000/svg">
  <defs
     id="defs7517" />
  <g
     id="land_1706637220.597253"
     style="display:inline"
     transform="translate(-193.28582,-243.71179)">
    <path
       id="state-border14"
       d="m 419.823,245.245 9,-1 8,14 v 2 l 4,16 1,1 4,18 h 6 l 8,16 11,-2 3,5 10,3 10,14 h 5 l 8,14 14,1 3,-1 20,17 v 0 l 13,12 7,1 2,7 12,3 8,-7 8,11 -2,10 3,3 14,-1 7,-5 10,2 5,4 16,-10 7,11 h 1 l 5,10 4,1 5,-2 1,-8 -7,-6 1,-15 v 0 l 10,1 12,-11 14,17 7,-7 11,-2 3,-9 18,-5 v 0 l 13,2 4,-4 12,-5 4,6 15,-5 7,6 h 6 l 7,-17 18,2 3,10 h 22 l 4,1 3,-2 6,2 16,-2 2,-1 9,4 8,13 -3,4 9,19 -6,7 2,13 18,-2 h 1 l 8,2 4,2 13,-2 4,-16 17,3 v 9 l 14,7 2,7 15,-20 h 1 l 9,-9 12,-1 2,-3 18,3 5,-3 8,4 v 1 13 l 4,5 -3,14 2,2 3,13 -6,6 -2,16 6,7 1,11 21,1 -9,19 3,1 5,17 13,-15 4,2 16,-5 5,2 3,15 10,5 -3,14 -14,2 3,16 -1,1 -12,1 -6,8 -3,2 -3,14 -20,1 -1,1 3,17 -1,1 -11,6 v 9 l -12,9 h -5 l -5,20 -13,-9 -9,8 -4,-1 -8,2 -6,16 -2,1 -15,12 -8,-3 -7,5 h -12 v 21 l -5,3 -14,-5 v 0 l -21,-1 -4,-7 h -11 l -5,4 -11,2 -3,4 -15,-3 -5,-9 -14,1 -2,5 h -10 l -9,-3 -10,3 v 0 l -12,2 -6,9 -9,-9 8,-7 1,-5 -5,-4 -8,1 -3,-2 -7,1 -2,-1 -2,-10 -5,-3 3,-11 h 3 l 7,8 8,-10 v -1 l 3,-10 1,-1 3,-9 -5,-5 -4,-2 -6,2 -7,10 v 1 l -8,13 h -1 l -6,15 v 2 l -1,2 2,14 v 0 1 l -1,1 2,16 -8,1 -3,5 -6,3 v 7 l -3,6 1,3 -3,9 v 0 l -4,14 h -2 l -5,12 v 1 l -2,9 -1,1 -1,1 -5,5 h -6 l -8,-11 5,-3 3,-8 4,-1 1,-9 6,-2 -1,-12 -2,-2 2,-10 -2,-4 -8,-5 -2,1 -4,5 -2,11 -7,3 -9,-3 -1,-10 -2,-3 h -7 l -9,9 -6,-2 -9,6 -5,-1 -6,4 -9,-5 h -11 l -1,1 -2,2 -1,11 v 3 0 l 10,5 h 10 l 3,2 8,1 3,9 -1,4 5,12 -10,5 -3,-1 -3,-5 -3,-3 -8,-1 -9,8 -6,-1 -2,2 -4,9 h -1 l -8,8 -11,-5 v 0 h -5 l -2,1 -4,8 -12,1 v 0 l -1,-14 7,-4 v -7 l 2,-4 -2,-10 -6,-3 -11,3 -2,3 v 3 l -6,5 -2,6 -6,3 -11,-5 v -4 l -10,-11 h -2 l -4,-3 v -1 l -7,-9 -5,-1 -7,12 -4,-1 -9,4 -1,5 -2,2 -4,8 -10,3 -4,-1 -2,-5 -2,-1 -6,-6 -2,-8 -4,-1 -5,-10 5,-5 v -7 l 1,-2 -4,-9 -12,5 -2,-3 2,-10 2,-2 1,-1 h 9 l 1,-5 8,-8 -1,-6 10,-8 -1,-2 5,-9 -3,-8 1,-1 -1,-10 -2,-2 1,-5 -2,-6 1,-3 -7,-11 1,-1 -7,-12 3,-5 5,-2 2,1 10,-6 -2,-7 7,-7 3,1 5,-4 1,-4 -3,-8 3,-8 7,-3 9,2 4,3 h 1 7 l 8,-10 v -6 l 7,-4 12,8 v -1 l 11,-2 7,7 v 0 l 8,-13 -1,-3 4,-8 v -3 l 2,-7 -8,-7 -8,3 -3,3 -4,2 -10,-6 -2,1 -11,-5 -1,1 -14,-5 -5,4 h -3 l -7,8 v 3 l -11,9 -2,-1 -9,-1 -6,4 -1,5 -5,4 -2,6 3,10 v 0 l 2,14 -1,2 -1,1 -4,7 -2,2 v 0 l -12,8 -7,-3 -4,5 h -11 l -2,-3 -15,3 h -1 l -6,10 -3,1 -3,7 -10,1 -5,8 -1,7 1,1 1,11 1,1 3,9 -1,4 -2,2 -1,3 2,6 -1,5 3,7 -7,7 -6,-1 -1,-2 -1,-6 -3,-4 v -5 l -6,-7 v -2 l -9,-10 -1,-6 -5,-6 -1,-4 h -1 l -1,-1 -9,-9 h -3 l -4,-8 -10,-1 -3,-8 -7,-3 -5,-6 h -1 l -9,-2 -8,1 -2,2 -13,3 -6,-2 -3,-5 -4,-2 -1,-7 -3,-6 v -3 l -6,-7 -2,-1 -9,6 -3,-1 -9,3 -5,-12 3,-4 -2,-6 -6,-3 -5,-6 1,-5 6,-6 7,-3 2,-4 20,6 3,-22 v -1 l -5,-18 18,-8 v -4 l 19,-11 v 0 l 9,-24 9,19 11,-9 9,17 10,-3 3,-6 2,-1 -5,-25 2,-3 v -2 l 19,-9 1,-3 v -12 0 l 15,-1 7,-22 h 2 l 6,-9 -5,-11 13,-16 v 0 l 11,-9 2,-4 17,-5 2,-8 5,-7 -9,-14 10,-8 -9,-13 1,-1 -5,-16 -4,-2 -4,-13 16,-6 3,-12 h 11 m -21,466 v 0 l -1,-9 -7,-5 -9,2 -3,7 2,6 2,3 5,1 11,-5"
       clip-path="url(#state-clip14)"
       stroke="#6ca652"
       style="fill:#ffffff;stroke:#000000" />
  </g>
</svg>
