<?xml version="1.0" encoding="UTF-8" standalone="no"?>
<svg
   background-color="#000000"
   version="1.1"
   height="267.03143"
   width="202.17807"
   id="fantasyMap"
   xmlns="http://www.w3.org/2000/svg"
   xmlns:svg="http://www.w3.org/2000/svg">
  <defs
     id="defs1339" />
  <g
     id="land_1708769975.4986296"
     style="display:inline"
     transform="translate(-1140.3098,-580.75471)">
    <path
       id="state-border5"
       d="m 1222.823,581.245 15,3 -1,11 17,8 8,-8 13,14 -10,11 5,10 -9,7 -1,12 28,-1 -7,19 2,3 28,-4 -7,18 5,5 3,14 4,3 1,9 14,9 1,3 -22,8 12,15 v 3 l 8,5 9,12 -5,6 8,15 -5,3 -3,11 5,10 -4,1 -14,11 -3,-5 3,-9 -3,-5 -6,1 -6,8 v 1 l -3,3 1,7 -4,7 2,5 -1,3 -10,4 -7,-3 -1,-1 -5,-1 -2,-2 -7,1 -2,1 -12,1 -2,-1 -7,2 -4,-1 -5,1 -10,-2 -2,-4 -4,-1 -7,-8 -4,-1 h -5 l -4,3 -2,7 -11,4 -8,-3 -4,2 -6,1 -5,-20 -13,1 -5,-13 10,-6 1,-11 4,-4 -2,-15 h -16 l -3,-16 v 0 l 6,-21 11,2 4,-13 6,-3 -3,-17 6,-6 -8,-12 3,-4 19,-5 -3,-9 18,-11 -1,-3 -5,-6 7,-20 -14,-4 -6,-17 v -1 l 4,-2 15,-2 7,-7 7,1 9,-17"
       clip-path="url(#state-clip5)"
       
       style="fill:#ffffff" />
  </g>
</svg>
