<?xml version="1.0" encoding="UTF-8" standalone="no"?>
<svg
   background-color="#000000"
   version="1.1"
   height="630.23981"
   width="411.14264"
   id="fantasyMap"
   xmlns="http://www.w3.org/2000/svg"
   xmlns:svg="http://www.w3.org/2000/svg">
  <defs
     id="defs1339" />
  <g
     id="land_1708769975.5000367"
     style="display:inline"
     transform="translate(-396.2696,-178.54546)">
    <path
       id="state-border17"
       d="m 746.823,192.245 1,-4 -7,-9 -13,10 v 0 l -8,7 -1,14 v 0 l -8,-1 -13,13 h -1 l 4,18 -5,3 h -6 l -9,21 -9,-5 h -2 l -6,17 -8,-3 -8,11 3,9 -15,7 v 11 l -8,6 -9,-6 -9,8 -14,-3 1,14 -1,3 -15,1 -5,7 v 0 l -11,-16 -13,7 v 0 l -8,-20 -12,8 -12,-6 -8,3 -2,3 h -1 l -16,-8 -9,5 -10,-3 -2,9 -7,12 -9,-3 -1,1 -18,-5 v -9 l -16,-7 -8,18 h -1 l 14,16 -8,8 3,10 2,2 -1,15 -4,3 -7,12 -8,1 -5,18 3,4 -2,11 3,2 3,21 -3,3 4,9 -9,13 3,9 h 2 l 10,16 4,2 2,15 18,6 2,8 -4,7 3,11 13,6 5,-4 1,-5 6,-4 9,1 2,1 11,-9 v -3 l 7,-8 h 3 l 5,-4 14,5 1,-1 11,5 2,-1 10,6 4,-2 3,-3 8,-3 8,7 -2,7 v 3 l -4,8 1,3 -8,13 v 0 l -7,-7 -11,2 v 1 l -2,8 v 1 l -2,13 1,5 -17,11 -1,2 -2,3 1,14 -5,7 7,14 -2,5 2,15 4,1 9,12 4,3 1,15 7,6 -9,17 v 0 l 27,3 v 1 l -11,9 4,6 -1,14 h 2 l 5,18 11,-3 6,3 2,10 -2,4 v 7 l -7,4 1,14 v 0 l 12,-1 4,-8 2,-1 h 5 v 0 l 11,5 8,-8 h 1 l 4,-9 2,-2 6,1 9,-8 8,1 3,3 3,5 3,1 10,-5 -5,-12 1,-4 -3,-9 -8,-1 -3,-2 h -10 l -10,-5 v 0 -3 l 1,-11 2,-2 1,-1 h 11 l 9,5 6,-4 5,1 9,-6 6,2 9,-9 h 7 l 2,3 1,10 9,3 7,-3 2,-11 4,-5 2,-1 8,5 2,4 -2,10 2,2 16,3 3,-9 -1,-3 3,-6 v -7 l 6,-3 3,-5 8,-1 -2,-16 1,-1 -22,-3 -3,-6 v 0 l -19,-14 1,-3 -9,-12 -6,-2 -4,-1 -4,-5 v -8 l -6,-6 7,-15 -9,-4 -1,-11 18,-6 3,1 2,-1 7,-10 1,-1 12,-4 -1,-13 2,-2 12,-8 -1,-10 17,-3 7,-8 11,13 8,-6 5,3 8,-1 3,-7 -2,-5 2,-6 v -9 l -1,-1 2,-7 v -2 l 3,-13 6,-6 -13,-7 8,-13 -3,-4 2,-11 -5,-8 1,-2 8,-6 4,-13 -17,-4 8,-14 -7,-10 7,-9 -9,-12 6,-8 h 6 l 7,-17 -2,-2 -3,-16 -7,-5 1,-15 -4,-4 -3,-12 1,-3 -10,-16 h -10 l -3,-1 v -19 l -8,-6 13,-11 v -5 l -5,-6 4,-6 -4,-13 h -6 l -6,-5 -1,-8 -7,-5"
       clip-path="url(#state-clip17)"
       
       style="fill:none;stroke:#808080;stroke-width:10;stroke-dasharray:none" />
  </g>
</svg>
