<?xml version="1.0" encoding="UTF-8" standalone="no"?>
<svg
   background-color="#000000"
   version="1.1"
   height="493.04929"
   width="508.11017"
   id="fantasyMap"
   xmlns="http://www.w3.org/2000/svg"
   xmlns:svg="http://www.w3.org/2000/svg">
  <defs
     id="defs1339" />
  <g
     id="land_1708769975.499706"
     style="display:inline"
     transform="translate(-679.2892,-258.69571)">
    <path
       id="state-border14"
       d="m 1092.823,275.245 -3,-9 2,-3 h 7 l 5,-4 11,3 2,8 5,3 3,-1 10,2 3,4 2,9 v 0 l 1,4 -3,5 h -9 l -7,14 -7,1 -3,11 7,11 -12,15 23,7 v 2 l 11,2 9,6 v 10 l -8,8 -11,-3 -11,22 -9,1 -3,9 3,7 -7,17 -16,-7 -3,7 8,13 -11,7 11,11 -3,14 v 5 l 5,1 10,5 4,17 -16,5 -4,-2 -13,15 -5,-17 -3,-1 -8,2 -2,4 h -10 l -9,6 -3,5 3,9 -9,9 13,17 13,-10 7,11 16,-3 -1,-19 h 11 l 8,9 12,-3 1,1 14,-2 4,12 h 7 l 11,9 16,-5 1,1 v 8 l 16,13 -6,8 8,17 v 1 l 6,17 -4,4 h -17 l -3,10 -17,6 -1,5 -2,6 -9,4 -4,17 -15,3 v 1 l -5,4 v 14 l -6,4 h -5 l -9,-10 -9,4 -1,6 -19,-5 v 14 l -18,3 1,16 -1,3 -6,6 -8,-3 -11,-7 -8,4 -7,8 -13,-6 -3,1 -15,-5 -3,18 h -1 l -11,-2 -9,-12 -9,1 -4,-11 -8,-10 -8,3 v 18 h -15 l -6,-6 -9,5 -14,-8 -9,12 -8,-10 -16,12 -3,-11 h -9 l -8,4 -13,-4 6,-15 -20,-5 -7,10 -1,-1 -10,-17 5,-3 h 4 l 8,-7 1,-5 -5,-4 -8,1 -3,-2 -7,1 -2,-1 -2,-10 -5,-3 3,-11 h 3 l 7,8 8,-10 v -1 l 3,-10 1,-1 3,-9 -5,-5 -4,-2 -6,2 -7,10 v 1 l -8,13 h -1 l -6,15 v 2 l -1,2 2,14 v 0 1 l -22,-3 -3,-6 v 0 l -19,-14 1,-3 -9,-12 -6,-2 -4,-1 -4,-5 v -8 l -6,-6 7,-15 -9,-4 -1,-11 18,-6 3,1 2,-1 7,-10 1,-1 12,-4 -1,-13 2,-2 12,-8 -1,-10 17,-3 7,-8 11,13 8,-6 5,3 8,-1 2,7 -3,2 v 9 l -10,-6 -6,2 1,9 4,5 4,1 3,8 4,3 12,-2 3,1 12,-2 1,1 h 11 l -2,14 2,2 5,1 5,-2 3,-5 5,-2 5,-6 3,-1 6,-8 -1,-6 1,-5 -1,-4 2,-7 -3,-5 2,-4 -2,-9 -1,-1 2,-7 -5,-6 1,-6 v 0 l -4,-7 h -1 l -4,-5 -7,-1 -2,-11 -6,-7 v -6 h 1 l 6,-1 12,-16 v 0 l 12,-11 3,1 9,-3 14,-15 5,-1 2,3 19,1 4,3 11,-11 1,-6 13,-2 4,-16 17,3 7,-4 v -12 l 7,-7 3,-1 v -19 l 22,4 v -20 l 1,-1 14,-2 3,-17 1,-1 15,1 11,-14 h 4 v -1 l -1,-11 3,-5 14,-4 3,-9 v -2 l 4,-3 11,1 6,-5"
       clip-path="url(#state-clip14)"
       
       style="fill:none;stroke:#808080;stroke-width:10;stroke-dasharray:none" />
  </g>
</svg>
