<?xml version="1.0" encoding="UTF-8" standalone="no"?>
<svg
   background-color="#000000"
   version="1.1"
   height="100.10838"
   width="137.14128"
   id="fantasyMap"
   xmlns="http://www.w3.org/2000/svg"
   xmlns:svg="http://www.w3.org/2000/svg">
  <defs
     id="defs1339" />
  <g
     id="land_1708769975.499587"
     style="display:inline"
     transform="translate(-1518.2519,-623.63662)">
    <path
       id="state-border13"
       d="m 1571.823,644.245 v -14 l 7,-3 12,5 8,-8 6,3 13,-2 6,9 9,-5 16,14 -4,6 4,12 -10,5 v 1 l 1,10 2,2 h 1 l 7,8 1,1 1,1 2,12 -3,5 4,6 -5,11 h -1 l -8,-3 -3,1 -10,-2 -3,2 -13,-9 -9,4 h -1 l -9,-15 -7,2 -16,-4 -3,4 -14,5 -5,-2 -5,-5 v 0 l -12,-14 h -12 l 2,-15 14,-4 3,-6 6,1 5,-1 h 13 v -13 l 10,-5"
       clip-path="url(#state-clip13)"
       
       style="fill:#ffffff" />
  </g>
</svg>
