<?xml version="1.0" encoding="UTF-8" standalone="no"?>
<svg
   background-color="#000000"
   version="1.1"
   height="535.10712"
   width="503.03864"
   id="fantasyMap"
   xmlns="http://www.w3.org/2000/svg"
   xmlns:svg="http://www.w3.org/2000/svg">
  <defs
     id="defs1339" />
  <g
     id="land_1708769975.4994702"
     style="display:inline"
     transform="translate(-49.28437,-254.69178)">
    <path
       id="state-border12"
       d="m 349.823,265.245 16,-10 11,4 -5,16 1,3 10,8 11,-10 4,2 5,16 19,-8 2,9 -6,12 3,5 -8,18 h -1 l 14,16 -8,8 3,10 2,2 -1,15 -4,3 -7,12 -8,1 -5,18 3,4 -2,11 3,2 3,21 -3,3 4,9 -9,13 3,9 h 2 l 10,16 4,2 2,15 18,6 2,8 -4,7 3,11 13,6 -2,6 3,10 v 0 l 2,14 -1,2 -1,1 -4,7 -2,2 v 0 l -12,8 -7,-3 -4,5 h -11 l -2,-3 -15,3 h -1 l -6,10 -3,1 -3,7 -10,1 -5,8 -1,7 1,1 1,11 1,1 3,9 -1,4 -2,2 -1,3 2,6 -1,5 3,7 -7,7 -6,-1 -1,-2 -1,-6 -3,-4 v -5 l -6,-7 v -2 l -9,-10 -1,-6 -5,-6 -1,-4 h -1 l -1,-1 -9,-9 h -3 l -4,-8 -10,-1 -3,-8 -7,-3 -5,-6 h -1 l -9,-2 -8,1 -2,2 -13,3 -6,-2 -3,-5 -4,-2 -1,-7 -3,-6 v -3 l -6,-7 -2,-1 -9,6 -3,-1 -9,3 -5,-12 3,-4 -2,-6 -6,-3 -5,-6 -2,1 -13,-3 -4,6 -9,-1 -5,6 -2,10 -2,2 v 2 5 l -3,7 -7,3 -9,-4 -4,-9 -2,-1 v -1 l -3,-9 v 0 l -1,-16 -1,-1 -14,8 h -1 l -3,1 -6,-5 -8,1 -5,-4 -1,-6 2,-5 v -9 l -4,-3 -1,-2 -5,-4 -4,-8 6,-7 v -9 l -3,-4 v -1 l -7,-11 -7,-1 -2,-2 h -7 l -3,-1 -4,-7 2,-7 -1,-7 4,-6 -2,-9 4,-5 v -5 l 4,-5 v -4 l 5,-7 -1,-4 4,-11 v 0 l 1,-9 v -2 l 1,-6 7,-6 v 0 l 5,-5 1,-6 -2,-4 2,-10 -1,-1 -1,-12 3,-2 4,-9 -1,-3 17,-7 5,8 16,-1 1,-1 5,-1 3,-2 12,3 10,16 12,-5 3,1 11,-14 v -12 l 22,2 3,-3 7,1 12,-3 6,10 9,1 7,-4 7,16 11,-14 7,1 3,-7 17,-6 -3,-11 19,-9 1,-2 18,-4 -2,-9 5,-15 5,-3 8,3 5,4 m 179,301 -2,8 v 1 l -2,13 1,5 -17,11 -1,2 -2,3 1,14 -5,7 7,14 -2,5 2,15 4,1 9,12 4,3 1,15 7,6 -9,17 v 0 l 27,3 v 1 l -11,9 4,6 -1,14 h 2 l 5,18 -2,3 v 3 l -6,5 -2,6 -6,3 -11,-5 v -4 l -10,-11 h -2 l -4,-3 v -1 l -7,-9 -5,-1 -7,12 -4,-1 -9,4 -1,5 -2,2 -4,8 -10,3 -4,-1 -2,-5 -2,-1 -6,-6 -2,-8 -4,-1 -5,-10 5,-5 v -7 l 1,-2 -4,-9 -12,5 -2,-3 2,-10 2,-2 1,-1 h 9 l 1,-5 8,-8 -1,-6 10,-8 -1,-2 5,-9 -3,-8 1,-1 -1,-10 -2,-2 1,-5 -2,-6 1,-3 -7,-11 1,-1 -7,-12 3,-5 5,-2 2,1 10,-6 -2,-7 7,-7 3,1 5,-4 1,-4 -3,-8 3,-8 7,-3 9,2 4,3 h 1 7 l 8,-10 v -6 l 7,-4 12,8 m -130,145 v 0 l -1,-9 -7,-5 -9,2 -3,7 2,6 2,3 5,1 11,-5"
       clip-path="url(#state-clip12)"
       
       style="fill:#ffffff" />
  </g>
</svg>
