<?xml version="1.0" encoding="UTF-8" standalone="no"?>
<svg
   background-color="#000000"
   version="1.1"
   height="281.16318"
   width="323.03976"
   id="fantasyMap"
   xmlns="http://www.w3.org/2000/svg"
   xmlns:svg="http://www.w3.org/2000/svg">
  <defs
     id="defs1339" />
  <g
     id="land_1708769975.4989448"
     style="display:inline"
     transform="translate(-64.294023,-66.706484)">
    <path
       id="state-border8"
       d="m 170.823,77.245 2,-4 -1,-2 -10,-4 -5,2 -2,3 -3,9 1,2 -6,10 1,2 -5,12 v 2 l 7,6 v 2 l 7,7 2,6 -3,4 -7,3 -2,4 -7,4 -1,1 1,8 8,2 4,-6 5,1 1,2 -7,10 v 0 l -7,7 v 0 l -9,3 -6,-2 -6,-10 -3,-2 h -1 l -5,-3 h -10 l -4,3 -3,6 6,7 h 7 l 7,12 -2,3 -2,1 -6,9 v 1 l -7,9 h -3 l -8,-10 v -2 l -5,-8 -8,-1 -6,3 -3,9 v 4 l -1,1 v 11 0 l -1,12 5,2 6,-2 6,9 v 2 l 5,5 -1,6 v 1 10 l -3,4 v 6 l 6,6 -1,4 3,7 -5,6 3,11 -3,1 -1,9 -3,4 5,3 -1,11 2,1 17,-7 5,8 16,-1 1,-1 5,-1 3,-2 12,3 10,16 12,-5 3,1 11,-14 v -12 l 22,2 3,-3 7,1 12,-3 6,10 9,1 7,-4 7,16 11,-14 7,1 3,-7 17,-6 -3,-11 19,-9 1,-2 18,-4 -2,-9 5,-15 5,-3 8,3 11,-21 3,-1 9,-9 -4,-9 1,-12 2,-2 -9,-16 8,-8 -4,-14 10,-6 1,-8 13,-4 1,-9 -2,-5 -7,-4 -6,-1 -1,-1 -5,-3 -2,-3 -3,-2 -10,-1 -6,4 -9,-12 -5,13 -9,3 -2,-1 h -1 l -14,-1 -2,-2 -10,-2 v 0 h -1 l -9,-12 1,-6 -4,-4 2,-10 -7,-10 -3,-1 -1,-1 -9,2 -8,-2 -5,3 -8,-4 -6,3 -6,-3 -4,1 -4,8 8,4 -2,10 -6,1 -7,9 -4,1 -3,5 -10,3 v 0 l -4,-5 -12,-1 v -1 l -9,2 v 0 l -4,-1 -6,-11 1,-1 -1,-2 3,-10 -2,-4 8,-10"
       clip-path="url(#state-clip8)"
       
       style="fill:#ffffff" />
  </g>
</svg>
