<?xml version="1.0" encoding="UTF-8" standalone="no"?>
<svg
   background-color="#000000"
   version="1.1"
   height="155.29283"
   width="241.16566"
   id="fantasyMap"
   xmlns="http://www.w3.org/2000/svg"
   xmlns:svg="http://www.w3.org/2000/svg">
  <defs
     id="defs1339" />
  <g
     id="land_1708769975.4988356"
     style="display:inline"
     transform="translate(-1558.323,-39.676515)">
    <path
       id="state-border7"
       d="m 1688.823,50.245 7,-10 4,1 6,12 h 2 l 5,9 v 4 1 l 13,1 -1,11 3,3 v 2 l 4,5 5,2 5,8 14,-4 3,-3 6,-2 5,-8 h 1 l 5,-1 10,6 3,9 4,3 1,4 -1,2 v 9 l 6,4 -4,7 2,4 -2,6 v 0 l -1,8 4,6 -5,7 3,9 -6,9 -8,-2 -3,1 -18,-4 v 15 l -11,5 -8,-8 -17,5 -2,-20 -15,-2 h -1 l -19,2 3,17 v 0 h -10 l -10,11 -10,-10 v -8 l -18,-3 -4,-20 -14,1 -3,4 -21,-4 -4,3 -13,-9 v -9 l -25,-4 v -1 l 11,-15 h 5 l 4,-11 h 11 l 4,4 9,1 4,-6 8,-4 2,1 10,-6 v 0 l 4,-1 12,4 v 0 l 8,2 9,-5 2,-2 -7,-6 1,-10 1,-2 6,-1 3,-5 10,1 9,6 8,-1 1,-1 v -2 l -2,-15 1,-1 -4,-9"
       clip-path="url(#state-clip7)"
       
       style="fill:none;stroke:#808080;stroke-width:10;stroke-dasharray:none" />
  </g>
</svg>
