<?xml version="1.0" encoding="UTF-8" standalone="no"?>
<svg
   background-color="#000000"
   version="1.1"
   height="380.45596"
   width="477.08273"
   id="fantasyMap"
   xmlns="http://www.w3.org/2000/svg"
   xmlns:svg="http://www.w3.org/2000/svg">
  <defs
     id="defs1339" />
  <g
     id="land_1708769975.4987335"
     style="display:inline"
     transform="translate(-1236.2934,-467.31564)">
    <path
       id="state-border6"
       d="m 1441.823,491.245 1,-19 1,-1 h 11 l 10,4 10,-3 8,4 3,13 14,4 6,-9 h 17 l 4,6 4,1 8,-15 h 16 l -2,8 19,12 2,-5 19,-4 v 0 h 1 l 11,-3 9,-9 h 3 l 7,-5 7,1 8,9 13,-12 4,15 -2,2 6,15 7,1 -16,22 8,5 4,10 15,5 -8,17 9,8 15,-9 v 1 l 3,20 h 14 l 2,10 -11,8 -1,13 h -5 l -9,5 -2,12 v 0 l -7,9 v 4 l -3,6 1,3 -2,6 -10,5 h -2 l -2,1 -9,1 -2,-2 -4,-12 4,-6 -16,-14 -9,5 -6,-9 -13,2 -6,-3 -8,8 -12,-5 -7,3 v 14 l -10,5 v 13 h -13 l -5,1 -6,-1 -3,6 -14,4 -2,15 -1,1 -18,-3 -5,18 -2,1 6,20 -2,4 -14,-8 -6,9 -14,2 2,19 -4,3 -17,-6 -11,8 -6,1 -3,11 v 0 l 5,21 -7,6 -5,-3 -17,17 h -2 v 5 l -8,12 1,4 -7,12 -6,-4 -11,-1 -3,2 -2,1 -7,3 -3,3 -9,2 -4,-2 -6,-1 -7,-5 -1,-3 -5,-4 1,-5 14,-11 4,-1 -5,-10 3,-11 5,-3 -8,-15 5,-6 -9,-12 -8,-5 v -3 l -12,-15 22,-8 -1,-3 -14,-9 -1,-9 -4,-3 -3,-14 -5,-5 7,-18 -28,4 -2,-3 7,-19 -28,1 1,-12 9,-7 -5,-10 10,-11 -13,-14 -8,8 -17,-8 1,-11 7,-6 h 1 l 8,-19 14,8 16,-6 1,-7 h 13 l 5,-1 1,-15 v 0 l 2,-13 10,2 7,-1 12,2 4,-5 15,-4 1,-4 17,-9 1,-2 13,3 1,3 22,3 v -19 l 8,-2 h 2 l 23,-1"
       clip-path="url(#state-clip6)"
       
       style="fill:#ffffff" />
  </g>
</svg>
