<?xml version="1.0" encoding="UTF-8" standalone="no"?>
<svg
   background-color="#000000"
   version="1.1"
   height="329.33655"
   width="267.10489"
   id="fantasyMap"
   xmlns="http://www.w3.org/2000/svg"
   xmlns:svg="http://www.w3.org/2000/svg">
  <defs
     id="defs1339" />
  <g
     id="land_1708769975.4981363"
     style="display:inline"
     transform="translate(-1441.2931,-167.65208)">
    <path
       id="state-border1"
       d="m 1619.823,193.245 3,1 1,20 -1,2 13,10 7,-7 8,1 1,1 4,13 14,3 -18,22 8,8 -1,8 15,10 -1,4 4,10 9,3 9,-11 13,11 -4,13 -16,-3 -1,2 -19,3 -5,-1 -4,7 -15,7 23,19 h 2 l 6,14 v 0 17 l -5,8 5,10 20,-4 3,9 -11,14 3,9 -2,8 h -13 l -2,1 -9,13 -7,4 -4,4 2,4 -3,8 -13,12 -8,-9 -7,-1 -7,5 h -3 l -9,9 -11,3 h -1 v 0 l -19,4 -2,5 -19,-12 2,-8 h -16 l -8,15 -4,-1 -4,-6 h -17 l -6,9 -14,-4 -3,-13 -8,-4 -10,3 -10,-4 h -11 v -17 l -2,-8 3,-6 15,-3 4,-13 -5,-10 5,-9 -4,-6 -11,-6 -4,-5 1,-6 v -2 l -1,-5 16,-21 v 0 l 5,-6 -4,-16 -3,-4 8,-13 -1,-2 1,-13 12,2 1,7 7,3 6,-12 h 2 l 2,-4 7,-2 7,5 9,-1 1,-4 7,-5 v -1 l 8,-10 6,-2 3,2 5,12 -1,4 1,5 4,3 17,-8 v -1 l 7,-9 3,-1 5,12 9,-1 1,-1 v -2 l -6,-9 -5,-1 -1,-9 -10,-5 v -1 l -6,-4 -5,-1 -9,-7 v -1 l -6,-7 2,-4 -2,-9 6,-9 -4,-6 -1,-4 18,-6 -1,-12 5,-5 10,2 10,-14 15,16 3,-2 2,-22 7,-3 7,7 -5,18"
       clip-path="url(#state-clip1)"
       
       style="fill:#ffffff" />
  </g>
</svg>
