<?xml version="1.0" encoding="UTF-8" standalone="no"?>
<svg
   background-color="#000000"
   version="1.1"
   height="165.10718"
   width="253.21902"
   id="fantasyMap"
   xmlns="http://www.w3.org/2000/svg"
   xmlns:svg="http://www.w3.org/2000/svg">
  <defs
     id="defs1339" />
  <g
     id="land_1708769975.4999282"
     style="display:inline"
     transform="translate(-1383.2548,-684.67787)">
    <path
       id="state-border16"
       d="m 1494.823,703.245 5,-18 18,3 1,-1 h 12 l 12,14 v 0 l 5,5 5,2 14,-5 3,-4 16,4 7,-2 9,15 h 1 l 9,-4 13,9 -3,8 2,5 -1,7 1,3 -6,8 3,11 1,1 -2,11 -2,1 -12,-3 -5,5 h -1 l -5,8 -7,2 -5,11 -1,1 -1,7 -2,3 -15,1 -1,7 -6,4 -2,6 -3,2 h -3 l -5,6 -9,1 -3,-10 -10,-1 -3,-5 -3,-1 -11,4 -2,-2 h -11 l -2,5 -9,-7 -7,7 -6,-4 -1,-8 3,-3 1,-9 -1,-2 v -10 l -12,-2 2,11 -6,4 -2,7 -5,2 -4,3 -12,3 v 1 l -14,5 v 1 h -2 l -8,9 3,7 -1,5 -9,2 -5,-4 -9,-1 -1,-1 -1,-2 7,-12 -1,-4 8,-12 v -5 h 2 l 17,-17 5,3 7,-6 -5,-21 v 0 l 3,-11 6,-1 11,-8 17,6 4,-3 -2,-19 14,-2 6,-9 14,8 2,-4 -6,-20 2,-1 m 128,96 5,4 4,-1 4,-11 -10,-3 -3,4 v 7"
       clip-path="url(#state-clip16)"
       
       style="fill:none;stroke:#808080;stroke-width:10;stroke-dasharray:none" />
  </g>
</svg>
