<?xml version="1.0" encoding="UTF-8" standalone="no"?>
<svg
   background-color="#000000"
   version="1.1"
   height="277.13855"
   width="502.37271"
   id="fantasyMap"
   xmlns="http://www.w3.org/2000/svg"
   xmlns:svg="http://www.w3.org/2000/svg">
  <defs
     id="defs1339" />
  <g
     id="land_1708769975.4985206"
     style="display:inline"
     transform="translate(-699.09734,-625.68341)">
    <path
       id="state-border4"
       d="m 1162.823,640.245 3,-10 h 17 l 4,-4 14,4 -7,20 5,6 1,3 -18,11 3,9 -19,5 -3,4 8,12 -6,6 3,17 -6,3 -4,13 -11,-2 -6,21 v 0 l 3,16 h 16 l 2,15 -4,4 -1,11 -10,6 5,13 13,-1 5,20 -2,1 h -7 l -5,4 -7,-1 -11,9 h -1 l -4,4 -8,1 v 1 h -2 l -12,-3 -3,-9 h -14 v 1 l -2,6 -7,5 v 0 l -10,-3 -2,-10 -8,-5 -7,3 -2,6 -11,3 -2,3 -1,8 -3,4 -1,5 -9,6 -10,-5 -3,-7 -5,-2 -4,2 -2,6 -10,6 12,6 2,12 -6,3 -12,-8 -4,-9 1,-4 -1,-3 v 0 l -3,-11 -4,-4 -10,-2 v 0 l -9,-5 -9,8 -5,-1 -4,-10 -7,-2 -1,-3 -12,-4 -5,5 h -4 l -3,-1 -1,-2 -1,-8 -3,-2 v -8 l -3,-3 -11,1 -3,3 -6,-1 -5,-4 -5,-1 -5,-3 -4,-10 h -1 l -4,-1 -8,-6 -7,1 -2,13 v 0 l -2,8 -14,3 v -1 l -2,-12 v 0 l -4,-12 -5,-3 -2,-7 -9,-2 -3,-6 -7,-1 -8,5 -1,4 -5,2 -9,-4 v -8 l 4,-6 h 3 l 9,-6 v -1 -4 l 9,-8 -8,-9 -6,7 -8,-4 -5,4 -8,-3 -4,-10 1,-1 -1,-6 2,-8 -1,-1 v -8 l 7,-8 2,-1 3,-5 2,-1 h 5 l 10,17 1,1 7,-10 20,5 -6,15 13,4 8,-4 h 9 l 3,11 16,-12 8,10 9,-12 14,8 9,-5 6,6 h 15 v -18 l 8,-3 8,10 4,11 9,-1 9,12 11,2 h 1 l 3,-18 15,5 3,-1 13,6 7,-8 8,-4 11,7 8,3 6,-6 1,-3 -1,-16 18,-3 v -14 l 19,5 1,-6 9,-4 9,10 h 5 l 6,-4 v -14 l 5,-4 v -1 l 15,-3 4,-17 9,-4 2,-6 1,-5 17,-6 m -429,101 v 0 l -16,-3 1,12 -6,2 -1,9 -4,1 -3,8 -5,3 8,11 h 6 l 5,-5 1,-1 1,-1 2,-9 v -1 l 5,-12 h 2 l 4,-14 m 69,96 -7,-8 -8,-1 -8,5 -1,7 3,6 7,5 h 3 2 l 5,-4 4,-10"
       clip-path="url(#state-clip4)"
       
       style="fill:#ffffff" />
  </g>
</svg>
