<?xml version="1.0" encoding="UTF-8" standalone="no"?>
<svg
   background-color="#000000"
   version="1.1"
   height="529.14789"
   width="541.48389"
   id="fantasyMap"
   xmlns="http://www.w3.org/2000/svg"
   xmlns:svg="http://www.w3.org/2000/svg">
  <defs
     id="defs1339" />
  <g
     id="land_1708769975.498402"
     style="display:inline"
     transform="translate(-1081.0287,-77.699922)">
    <path
       id="state-border3"
       d="m 1365.823,87.245 4,-9 15,2 v -1 l 9,-1 7,4 h 1 l 10,6 -2,8 17,1 v -1 l 5,-3 5,-11 h 15 1 l 11,2 h 1 l 6,3 9,-5 5,2 4,-4 10,3 2,5 9,3 1,2 3,2 11,-2 2,-2 12,-2 2,1 1,2 3,3 7,2 2,5 h 11 l 1,2 10,-1 3,5 -4,11 h -5 l -11,15 v 1 l 25,4 v 9 l 13,9 4,-3 21,4 -4,10 -7,3 -2,22 -3,2 -15,-16 -10,14 -10,-2 -5,5 1,12 -18,6 1,4 4,6 -6,9 2,9 -2,4 -9,-1 -5,3 -9,-4 -4,1 -7,-4 -6,1 -4,-4 -10,2 -3,-1 -6,2 -5,-2 -8,1 -1,-1 -5,-1 -7,-6 v 0 l -9,-7 -3,1 -3,-2 -7,3 -5,-3 -6,4 -10,-4 v 0 l -4,6 1,7 -6,6 -8,-2 -6,5 -6,-8 -8,6 v 5 l -5,3 -1,2 2,7 -3,4 3,11 h 3 l 7,8 v 6 l -1,1 -11,1 -1,1 -15,6 -1,-1 -2,-9 -4,-2 -4,-11 -4,-2 -5,3 -4,10 3,7 v 0 l 2,10 1,1 h 3 l 6,7 13,-4 3,3 9,-1 5,2 h 2 l 5,-2 h 8 v 0 h 1 l 12,-7 4,6 12,-2 2,-8 v 0 l 2,-10 5,-2 1,-4 15,-8 v 0 l 5,9 v 0 l 6,14 8,1 1,1 -1,13 1,2 -8,13 3,4 4,16 -5,6 v 0 l -16,21 1,5 v 2 l -1,6 4,5 11,6 4,6 -5,9 5,10 -4,13 -15,3 -3,6 2,8 v 17 l -1,1 -1,19 -23,1 h -2 l -8,2 v 19 l -22,-3 -1,-3 -13,-3 -1,2 -17,9 -1,4 -15,4 -4,5 -12,-2 -7,1 -10,-2 -2,13 v 0 l -1,15 -5,1 h -13 l -1,7 -16,6 -14,-8 -8,19 h -1 l -7,6 -15,-3 -9,17 -7,-1 -7,7 -15,2 9,-26 -6,-2 -7,-12 -10,-4 13,-18 11,6 h 1 l 8,-11 -9,-17 1,-1 -2,-12 2,-3 2,-14 -4,-6 7,-12 -3,-8 3,-7 -3,-5 h -22 l -1,9 -5,3 -5,12 -22,-8 9,24 -2,1 -22,-3 -1,8 13,11 -3,8 -5,4 -4,7 -1,1 -3,14 -14,2 -1,-1 -12,3 -8,-9 9,-11 -5,-15 16,-5 -4,-17 -10,-5 -5,-1 v -5 l 3,-14 -11,-11 11,-7 -8,-13 3,-7 16,7 7,-17 -3,-7 3,-9 9,-1 11,-22 11,3 8,-8 v -10 l -9,-6 -11,-2 v -2 l -23,-7 12,-15 -7,-11 3,-11 7,-1 7,-14 h 9 l 3,-5 12,5 6,-4 6,2 4,10 v 2 l 3,6 8,1 7,-9 4,2 3,9 2,1 2,9 6,1 5,-10 -2,-4 v -2 l -4,-6 6,-8 7,2 2,-2 1,-10 -3,-6 -9,-3 -5,3 h -1 l -2,1 -7,-1 -8,-5 -3,-7 -3,-1 -4,-8 -9,6 v 5 l -7,7 -6,-5 -3,-12 -5,-2 v 0 l -10,-2 -3,-2 v -5 l 5,-7 h 9 l 1,-5 v -2 l 8,-11 4,1 4,-14 -1,-1 -2,-13 1,-2 -1,-6 7,-5 -3,-13 7,-3 5,4 1,5 9,5 4,-1 7,5 h 6 l 4,2 11,-11 -1,-9 -1,-1 h -9 l -5,-10 1,-2 5,-2 3,-5 4,-2 3,-5 5,-2 8,3 v 12 1 l 8,1 8,-9 -1,-6 4,-4 v -4 l 10,-8 -1,-4 9,-7 7,6 -1,4 10,8 -2,6 8,6 -1,12 -5,2 -4,10 -12,2 -2,8 -2,2 -3,10 -2,2 -2,8 6,6 2,1 6,-2 2,-10 4,-2 2,-10 8,-4 h 1 l 8,-6 2,-5 4,-2 4,-2 1,-9 -2,-5 1,-4 4,-3 h 8 l 4,-3 h 6 l 6,-3 4,-1 6,-2 6,2 3,-1 12,3 5,-6 10,6 h 3 l 6,-9 -2,-7 -4,-2 -3,-12 -2,-2 -6,-10 1,-2 -6,-7 m -233,118 2,2 h 9 l 5,-8 -5,-8 -12,3 -2,6 3,5"
       clip-path="url(#state-clip3)"
       
       style="fill:#ffffff" />
  </g>
</svg>
