<?xml version="1.0" encoding="UTF-8" standalone="no"?>
<!-- Created with Inkscape (http://www.inkscape.org/) -->

<svg
   xmlns:dc="http://purl.org/dc/elements/1.1/"
   xmlns:cc="http://creativecommons.org/ns#"
   xmlns:rdf="http://www.w3.org/1999/02/22-rdf-syntax-ns#"
   xmlns:svg="http://www.w3.org/2000/svg"
   xmlns="http://www.w3.org/2000/svg"
   xmlns:xlink="http://www.w3.org/1999/xlink"
   xmlns:sodipodi="http://sodipodi.sourceforge.net/DTD/sodipodi-0.dtd"
   xmlns:inkscape="http://www.inkscape.org/namespaces/inkscape"
   width="525"
   height="525"
   id="svg2"
   sodipodi:version="0.32"
   inkscape:version="0.91 r13725"
   sodipodi:docname="15.svg"
   inkscape:output_extension="org.inkscape.output.svg.inkscape"
   version="1.0">
  <defs
     id="defs4">
    <linearGradient
       id="linearGradient12101">
      <stop
         id="stop12103"
         offset="0"
         style="stop-color:#000000;stop-opacity:1;" />
      <stop
         style="stop-color:#ffffff;stop-opacity:1;"
         offset="0.5"
         id="stop12107" />
      <stop
         id="stop12105"
         offset="1"
         style="stop-color:#000000;stop-opacity:1;" />
    </linearGradient>
    <linearGradient
       id="linearGradient6161">
      <stop
         style="stop-color:#dcdcdc;stop-opacity:1;"
         offset="0"
         id="stop6163" />
      <stop
         style="stop-color:#000000;stop-opacity:1;"
         offset="1"
         id="stop6165" />
    </linearGradient>
    <linearGradient
       id="linearGradient5180">
      <stop
         style="stop-color:#53565b;stop-opacity:1;"
         offset="0"
         id="stop5182" />
      <stop
         style="stop-color:#dcdcdc;stop-opacity:1;"
         offset="1"
         id="stop5184" />
    </linearGradient>
    <linearGradient
       id="linearGradient5140">
      <stop
         style="stop-color:#292c2f;stop-opacity:1;"
         offset="0"
         id="stop5142" />
      <stop
         id="stop5150"
         offset="0.25"
         style="stop-color:#ffffff;stop-opacity:1;" />
      <stop
         style="stop-color:#292c2f;stop-opacity:1;"
         offset="0.5"
         id="stop5152" />
      <stop
         id="stop5154"
         offset="0.75"
         style="stop-color:#ffffff;stop-opacity:1;" />
      <stop
         id="stop5148"
         offset="1"
         style="stop-color:#292c2f;stop-opacity:1;" />
    </linearGradient>
    <linearGradient
       id="linearGradient4114">
      <stop
         style="stop-color:#b4b9be;stop-opacity:1;"
         offset="0"
         id="stop4116" />
      <stop
         style="stop-color:#b4b9be;stop-opacity:0;"
         offset="1"
         id="stop4118" />
    </linearGradient>
    <linearGradient
       inkscape:collect="always"
       xlink:href="#linearGradient5140"
       id="linearGradient5146"
       x1="184.87541"
       y1="655.24652"
       x2="563.55231"
       y2="366.72134"
       gradientUnits="userSpaceOnUse"
       gradientTransform="translate(52.766055,-8.9001639)" />
    <linearGradient
       inkscape:collect="always"
       xlink:href="#linearGradient6161"
       id="linearGradient7213"
       gradientUnits="userSpaceOnUse"
       x1="152.625"
       y1="559.72064"
       x2="362.36188"
       y2="559.72064"
       gradientTransform="translate(-93.930465,-247.94128)" />
    <linearGradient
       inkscape:collect="always"
       xlink:href="#linearGradient5180"
       id="linearGradient7216"
       gradientUnits="userSpaceOnUse"
       x1="306.5061"
       y1="584.06561"
       x2="355.5625"
       y2="626.40369"
       gradientTransform="translate(-93.930465,-247.94128)" />
    <linearGradient
       inkscape:collect="always"
       xlink:href="#linearGradient6161"
       id="linearGradient9166"
       x1="74.244423"
       y1="151.18668"
       x2="55.826202"
       y2="201.18668"
       gradientUnits="userSpaceOnUse"
       gradientTransform="translate(12.708185,-0.33304942)" />
    <linearGradient
       inkscape:collect="always"
       xlink:href="#linearGradient12101"
       id="linearGradient10161"
       x1="159.52638"
       y1="111.08447"
       x2="338.15613"
       y2="400.73257"
       gradientUnits="userSpaceOnUse"
       gradientTransform="translate(12.708185,-0.33304942)" />
    <linearGradient
       inkscape:collect="always"
       xlink:href="#linearGradient6161"
       id="linearGradient13086"
       x1="322.97101"
       y1="144.93362"
       x2="267.71936"
       y2="144.93362"
       gradientUnits="userSpaceOnUse"
       gradientTransform="translate(12.708185,-0.33304942)" />
    <linearGradient
       inkscape:collect="always"
       xlink:href="#linearGradient6161"
       id="linearGradient13098"
       x1="440.69827"
       y1="209.77686"
       x2="408.98047"
       y2="174.24997"
       gradientUnits="userSpaceOnUse"
       gradientTransform="translate(12.708185,-0.33304942)" />
    <linearGradient
       inkscape:collect="always"
       xlink:href="#linearGradient6161"
       id="linearGradient13108"
       x1="222.7529"
       y1="282.09189"
       x2="533.95721"
       y2="311.55637"
       gradientUnits="userSpaceOnUse"
       gradientTransform="translate(12.708185,-0.33304942)" />
    <linearGradient
       inkscape:collect="always"
       xlink:href="#linearGradient6161"
       id="linearGradient15056"
       x1="282.47882"
       y1="411.94208"
       x2="349.91379"
       y2="366.28522"
       gradientUnits="userSpaceOnUse"
       gradientTransform="translate(12.708185,-0.33304942)" />
    <linearGradient
       inkscape:collect="always"
       xlink:href="#linearGradient12101"
       id="linearGradient16035"
       x1="198.8557"
       y1="509.93945"
       x2="260.23322"
       y2="509.93945"
       gradientUnits="userSpaceOnUse"
       gradientTransform="translate(12.708185,-0.33304942)" />
    <radialGradient
       inkscape:collect="always"
       xlink:href="#linearGradient4114"
       id="radialGradient2257"
       gradientUnits="userSpaceOnUse"
       gradientTransform="matrix(0.4532314,-0.04609931,0.03328577,0.3272533,199.98372,261.44988)"
       cx="7.0530348"
       cy="611.98212"
       fx="7.0530348"
       fy="611.98212"
       r="249.79179" />
    <radialGradient
       inkscape:collect="always"
       xlink:href="#linearGradient4114"
       id="radialGradient2260"
       gradientUnits="userSpaceOnUse"
       gradientTransform="matrix(0.4532314,-0.04609931,0.03328577,0.3272533,199.98374,261.44997)"
       cx="91.299866"
       cy="266.78873"
       fx="91.299866"
       fy="266.78873"
       r="249.79179" />
    <radialGradient
       inkscape:collect="always"
       xlink:href="#linearGradient4114"
       id="radialGradient2263"
       gradientUnits="userSpaceOnUse"
       gradientTransform="matrix(-0.7288851,0.03317422,-0.01202121,-0.2641234,963.68954,701.99284)"
       cx="970.45337"
       cy="292.36118"
       fx="970.45337"
       fy="292.36118"
       r="249.79179" />
    <radialGradient
       inkscape:collect="always"
       xlink:href="#linearGradient4114"
       id="radialGradient2266"
       gradientUnits="userSpaceOnUse"
       gradientTransform="matrix(-0.4128648,-0.02709556,0.02107056,-0.3210597,716.54362,849.45576)"
       cx="746.81195"
       cy="257.75104"
       fx="746.81195"
       fy="257.75104"
       r="249.79179" />
    <radialGradient
       inkscape:collect="always"
       xlink:href="#linearGradient4114"
       id="radialGradient2269"
       gradientUnits="userSpaceOnUse"
       gradientTransform="matrix(-0.5137571,0.02939929,-0.02042138,-0.3568671,849.79388,819.26493)"
       cx="510.06912"
       cy="432.83243"
       fx="510.06912"
       fy="432.83243"
       r="249.79179" />
    <radialGradient
       inkscape:collect="always"
       xlink:href="#linearGradient4114"
       id="radialGradient2272"
       gradientUnits="userSpaceOnUse"
       gradientTransform="matrix(0.2645028,-0.02322311,0.02877013,0.3276812,339.56556,244.57303)"
       cx="696.23462"
       cy="318.09991"
       fx="696.23462"
       fy="318.09991"
       r="249.79179" />
  </defs>
  <sodipodi:namedview
     id="base"
     pagecolor="#ffffff"
     bordercolor="#666666"
     borderopacity="1.0"
     gridtolerance="10000"
     guidetolerance="10"
     objecttolerance="10"
     inkscape:pageopacity="0.0"
     inkscape:pageshadow="2"
     inkscape:zoom="0.70710678"
     inkscape:cx="159.52911"
     inkscape:cy="220.86721"
     inkscape:document-units="px"
     inkscape:current-layer="layer5"
     inkscape:window-width="1024"
     inkscape:window-height="712"
     inkscape:window-x="136"
     inkscape:window-y="220"
     showgrid="false"
     inkscape:window-maximized="0" />
  <metadata
     id="metadata7">
    <rdf:RDF>
      <cc:Work
         rdf:about="">
        <dc:format>image/svg+xml</dc:format>
        <dc:type
           rdf:resource="http://purl.org/dc/dcmitype/StillImage" />
        <dc:title></dc:title>
      </cc:Work>
    </rdf:RDF>
  </metadata>
  <g
     inkscape:groupmode="layer"
     id="layer2"
     inkscape:label="border"
     transform="translate(-148.81543,-238.58915)"
     style="display:inline">
    <path
       style="fill:#030304;fill-opacity:1;fill-rule:evenodd;stroke:none;stroke-width:1px;stroke-linecap:butt;stroke-linejoin:miter;stroke-opacity:1"
       d="m 368.41549,748.77913 c 17.87114,17.83256 50.80835,19.6923 73.99367,2.77792 4.04133,-27.82419 7.36577,-55.97925 5.3033,-86.62058 46.0555,23.60425 60.99719,29.15793 117.68278,21.2132 9.62095,-28.2609 11.48084,-58.59142 6.81853,-90.66119 38.02943,-5.92203 68.00543,-23.92421 88.89342,-55.55839 -16.80907,-48.94114 -26.91722,-59.77946 -57.83123,-94.95434 11.83567,-39.41804 15.60576,-57.80934 12.12183,-98.48987 -50.79928,-19.81958 -65.80616,-21.28515 -124.69585,-17.56364 -24.21436,-53.95153 -35.52881,-60.68521 -75.53571,-90 -57.30601,46.42512 -64.44464,43.5176 -100.00001,101.33929 -57.51166,-2.3022 -71.98562,-6.87036 -124.28571,17.76786 9.94075,46.5197 7.26956,53.61143 29.95801,103.58231 -32.81111,35.71881 -45.94503,39.76839 -59.3149,88.86186 31.11557,22.00914 44.71208,34.52395 90.56649,46.21448 -3.43589,23.39234 -7.21466,53.61988 18.96897,87.99313 49.97197,-1.02726 53.72946,3.8248 118.09611,-16.71425 -6.35374,27.77665 -13.44043,54.45387 -20.7397,80.81221 z"
       id="path2170"
       sodipodi:nodetypes="cccccccccccccccccc"
       inkscape:connector-curvature="0" />
    <path
       style="fill:url(#radialGradient2272);fill-opacity:1;fill-rule:evenodd;stroke:none;stroke-width:1px;stroke-linecap:butt;stroke-linejoin:miter;stroke-opacity:1"
       d="m 368.41549,748.77914 c 17.87114,17.8325 50.80835,19.6923 73.99367,2.7779 4.04133,-27.8242 7.36577,-55.9793 5.3033,-86.6206 46.0555,23.6043 60.99719,29.1579 117.68278,21.2132 9.62095,-28.2609 11.48084,-58.5914 6.81853,-90.66121 38.02943,-5.922 68.00543,-23.9242 88.89342,-55.5584 -16.80907,-48.9411 -26.91722,-59.7794 -57.83123,-94.9543 11.83567,-39.4181 15.60576,-57.8094 12.12183,-98.4899 -50.79928,-19.8196 -65.80616,-21.2851 -124.69585,-17.5636 -24.21436,-53.9516 -35.52881,-60.6852 -75.53571,-90 -57.30601,46.4251 -64.44464,43.5176 -100.00001,101.3393 -57.51166,-2.3022 -71.98562,-6.8704 -124.28571,17.7678 9.94075,46.5197 7.26956,53.6115 29.95801,103.5823 -32.81111,35.7188 -45.94503,39.7684 -59.3149,88.8619 31.11557,22.0091 44.71208,34.5239 90.56649,46.2145 -3.43589,23.39231 -7.21466,53.61991 18.96897,87.99311 49.97197,-1.0273 53.72946,3.8248 118.09611,-16.7142 -6.35374,27.7766 -13.44043,54.4538 -20.7397,80.8122 z"
       id="path5156"
       sodipodi:nodetypes="cccccccccccccccccc"
       inkscape:connector-curvature="0" />
    <path
       sodipodi:nodetypes="ccccccccccc"
       id="path3143"
       d="m 368.41549,748.77913 c 17.87114,17.83256 50.80835,19.6923 73.99367,2.77792 4.04133,-27.82419 7.36577,-55.97925 5.3033,-86.62058 46.0555,23.60425 60.99719,29.15793 117.68278,21.2132 9.62095,-28.2609 11.48084,-58.59142 6.81853,-90.66119 38.02943,-5.92203 68.00543,-23.92421 88.89342,-55.55839 l -499.58357,10.54347 c 31.11557,22.00914 44.71208,34.52395 90.56649,46.21448 -3.43589,23.39234 -7.21466,53.61988 18.96897,87.99313 49.97197,-1.02726 53.72946,3.8248 118.09611,-16.71425 -6.35374,27.77665 -13.44043,54.45387 -20.7397,80.81221 z"
       style="fill:url(#radialGradient2269);fill-opacity:1;fill-rule:evenodd;stroke:none;stroke-width:1px;stroke-linecap:butt;stroke-linejoin:miter;stroke-opacity:1"
       inkscape:connector-curvature="0" />
    <path
       style="fill:url(#radialGradient2266);fill-opacity:1;fill-rule:evenodd;stroke:none;stroke-width:1px;stroke-linecap:butt;stroke-linejoin:miter;stroke-opacity:1"
       d="m 368.41549,748.77913 c 17.87114,17.83256 50.80835,19.6923 73.99367,2.77792 4.04133,-27.82419 7.36577,-55.97925 5.3033,-86.62058 l -58.55727,3.03045 c -6.35375,27.77665 -13.44043,54.45387 -20.73971,80.81221 z"
       id="path4126"
       sodipodi:nodetypes="ccccc"
       inkscape:connector-curvature="0" />
    <path
       style="fill:url(#radialGradient2263);fill-opacity:1;fill-rule:evenodd;stroke:none;stroke-width:1px;stroke-linecap:butt;stroke-linejoin:miter;stroke-opacity:1"
       d="m 368.41549,748.77911 c 17.87114,17.83256 50.80835,19.6923 73.99367,2.77792 4.04133,-27.82419 7.36577,-55.97925 5.3033,-86.62058 46.0555,23.60425 60.99719,29.15793 117.68278,21.2132 9.62095,-28.2609 11.48084,-58.59142 6.81853,-90.66119 38.02943,-5.92203 68.00543,-23.92421 88.89342,-55.55839 l -499.58357,10.54347 c 31.11557,22.00914 44.71208,34.52395 90.56649,46.21448 -3.43589,23.39234 -7.21466,53.61988 18.96897,87.99313 49.97197,-1.02726 53.72946,3.8248 118.09611,-16.71425 -6.35374,27.77665 -13.44043,54.45387 -20.7397,80.81221 z"
       id="path4130"
       sodipodi:nodetypes="ccccccccccc"
       inkscape:connector-curvature="0" />
    <path
       sodipodi:nodetypes="cccccccccccccccccc"
       id="path4136"
       d="m 368.41549,748.77914 c 17.87114,17.8325 50.80835,19.6923 73.99367,2.7779 4.04133,-27.8242 7.36577,-55.9793 5.3033,-86.6206 46.0555,23.6043 60.99723,29.1579 117.68273,21.2132 9.621,-28.2609 11.4809,-58.5914 6.8186,-90.6612 38.0294,-5.922 68.0054,-23.9242 88.8934,-55.5584 -16.8091,-48.94107 -26.9172,-59.77937 -57.8312,-94.95427 11.8356,-39.418 15.6057,-57.8093 12.1218,-98.4899 -50.7993,-19.8196 -65.8062,-21.2851 -124.69585,-17.5636 -24.21436,-53.9515 -35.52881,-60.6852 -75.53571,-90 -57.30601,46.4251 -64.44464,43.5176 -100.00001,101.3393 -57.51166,-2.3022 -71.98562,-6.8704 -124.28571,17.7678 9.94075,46.5197 7.26956,53.6115 29.95801,103.5823 -32.81111,35.7189 -45.94503,39.7684 -59.3149,88.86187 31.11557,22.0091 44.71208,34.524 90.56649,46.2145 -3.43589,23.3923 -7.21466,53.6199 18.96897,87.9931 49.97197,-1.0272 53.72946,3.8248 118.09611,-16.7142 -6.35374,27.7766 -13.44043,54.4538 -20.7397,80.8122 z"
       style="fill:url(#radialGradient2260);fill-opacity:1;fill-rule:evenodd;stroke:none;stroke-width:1px;stroke-linecap:butt;stroke-linejoin:miter;stroke-opacity:1"
       inkscape:connector-curvature="0" />
    <path
       style="fill:url(#radialGradient2257);fill-opacity:1;fill-rule:evenodd;stroke:none;stroke-width:1px;stroke-linecap:butt;stroke-linejoin:miter;stroke-opacity:1"
       d="m 368.41552,748.77914 c 17.8711,17.8325 50.8083,19.6923 73.9936,2.7779 4.0414,-27.8242 7.3658,-55.9793 5.3033,-86.6206 46.0556,23.6042 60.99723,29.1579 117.68283,21.2132 9.621,-28.2609 11.4809,-58.5914 6.81859,-90.66123 38.0294,-5.922 68.0054,-23.9242 88.89341,-55.5584 -16.8091,-48.9411 -26.9172,-59.7794 -57.83131,-94.9543 11.8357,-39.4181 15.60581,-57.8094 12.1219,-98.4899 -50.7993,-19.8196 -65.8062,-21.2851 -124.69593,-17.5636 -24.2143,-53.95156 -35.5288,-60.68524 -75.5357,-90.00003 -57.306,46.42512 -64.4446,43.5176 -100,101.33933 -57.5117,-2.3022 -71.9856,-6.8704 -124.2857,17.7678 9.9407,46.5197 7.2696,53.6114 29.958,103.5823 -32.8111,35.7188 -45.945,39.7684 -59.3149,88.8619 31.1156,22.0091 44.7121,34.5239 90.5665,46.2145 -3.4359,23.3923 -7.2147,53.61983 18.969,87.99313 49.9719,-1.0273 53.7294,3.8248 118.0961,-16.7143 -6.35379,27.7767 -13.4405,54.4539 -20.73969,80.8123 z"
       id="path9168"
       sodipodi:nodetypes="cccccccccccccccccc"
       inkscape:connector-curvature="0" />
  </g>
  <g
     inkscape:label="Upper"
     inkscape:groupmode="layer"
     id="layer1"
     transform="translate(-148.81543,-238.58915)"
     style="display:inline">
    <path
       style="fill:url(#linearGradient5146);fill-opacity:1;fill-rule:evenodd;stroke:none;stroke-width:1px;stroke-linecap:butt;stroke-linejoin:miter;stroke-opacity:1"
       d="m 374.72244,747.31979 c 17.21868,14.88455 40.44077,16.64248 62.77963,2.67936 3.8938,-26.83709 5.357,-66.31187 3.3698,-95.86617 44.3741,22.76687 65.5245,35.37353 120.1405,27.71065 9.26969,-27.25831 9.0617,-60.26284 4.5696,-91.19491 36.6411,-5.71194 70.612,-20.78977 90.7374,-51.3017 -16.1954,-47.20491 -29.27381,-58.94445 -59.0592,-92.87147 11.40359,-38.01966 15.78599,-56.50851 12.4293,-95.74586 -48.9447,-19.11647 -65.1537,-19.03005 -121.8934,-15.44056 -23.3303,-52.03756 -34.2317,-61.53235 -72.77798,-89.80718 -55.21382,44.77815 -61.84183,44.97378 -96.09912,100.74421 -55.41196,-2.22054 -71.3575,-8.62663 -121.74817,15.13753 9.57783,44.86936 9.00416,53.95951 30.86427,102.15764 -31.6132,34.45165 -46.39135,40.62534 -59.2731,87.97717 29.97958,21.22836 44.70342,30.03142 88.88373,41.30723 -3.31044,22.56248 -9.32625,53.96766 15.90144,87.1215 48.14755,-0.99082 62.15127,-0.56089 124.16796,-20.3713 -6.12178,26.79125 -15.95989,62.34061 -22.99266,87.76386 z"
       id="path4152"
       sodipodi:nodetypes="cccccccccccccccccc"
       inkscape:connector-curvature="0" />
  </g>
  <g
     inkscape:groupmode="layer"
     id="layer5"
     inkscape:label="Shadows"
     style="display:inline"
     transform="translate(0,0.66552734)">
    <path
       style="fill:url(#linearGradient7216);fill-opacity:1;fill-rule:evenodd;stroke:none;stroke-width:1px;stroke-linecap:butt;stroke-linejoin:miter;stroke-opacity:1"
       d="m 269.63204,290.4834 -19.8125,123.9375 C 195.8985,430.72974 187.31202,435.7716 129.09987,436.34768 141.27553,386.35944 249.5686,301.06356 269.63204,290.4834 Z"
       id="path5178"
       sodipodi:nodetypes="cccc"
       inkscape:connector-curvature="0" />
    <path
       style="fill:url(#linearGradient7213);fill-opacity:1;fill-rule:evenodd;stroke:none;stroke-width:1px;stroke-linecap:butt;stroke-linejoin:miter;stroke-opacity:1"
       d="M 23.194535,310.2959 C 107.33162,275.95146 137.28575,261.32993 267.93143,283.10643 188.2206,307.54343 185.37913,305.87282 113.16344,350.72352 79.985275,340.5811 49.064515,328.07868 23.194535,310.2959 Z"
       id="path5190"
       sodipodi:nodetypes="cccc"
       inkscape:connector-curvature="0" />
    <path
       style="fill:url(#linearGradient9166);fill-opacity:1;fill-rule:evenodd;stroke:none;stroke-width:1px;stroke-linecap:butt;stroke-linejoin:miter;stroke-opacity:1"
       d="M 82.181426,223.30426 C 60.901229,181.53186 61.865468,163.76522 51.952611,124.48609 145.86481,170.40036 160.16876,164.23263 269.0344,277.22116 162.86676,234.61507 174.26427,241.1197 82.181426,223.30426 Z"
       id="path7220"
       sodipodi:nodetypes="cccc"
       inkscape:connector-curvature="0" />
    <path
       style="fill:url(#linearGradient10161);fill-opacity:1;fill-rule:evenodd;stroke:none;stroke-width:1px;stroke-linecap:butt;stroke-linejoin:miter;stroke-opacity:1"
       d="M 270.22764,274.79048 C 234.13215,212.46707 198.99717,159.3227 167.95819,110.75142 l 5.625,0.125 c 39.56938,51.83449 60.70081,92.78191 96.64445,163.91406 z"
       id="path10153"
       sodipodi:nodetypes="cccc"
       inkscape:connector-curvature="0" />
    <path
       style="fill:url(#linearGradient13086);fill-opacity:1;fill-rule:evenodd;stroke:none;stroke-width:1px;stroke-linecap:butt;stroke-linejoin:miter;stroke-opacity:1"
       d="m 266.95819,11.626425 c 26.21537,18.072922 49.27587,38.314831 68.72102,86.254776 C 318.44786,157.77904 296.95292,217.67687 273.18865,277.57471 263.05588,188.11969 268.69647,100.242 266.95819,11.626425 Z"
       id="path12109"
       sodipodi:nodetypes="cccc"
       inkscape:connector-curvature="0" />
    <path
       style="fill:url(#linearGradient13098);fill-opacity:1;fill-rule:evenodd;stroke:none;stroke-width:1px;stroke-linecap:butt;stroke-linejoin:miter;stroke-opacity:1"
       d="m 273.45819,279.50142 c 55.35511,-27.3649 82.14321,-37.57845 172.5,-76.375 10.21475,-29.375 11.51772,-58.75 12.5,-88.125 -63.08994,54.35891 -129.30623,107.6757 -185,164.5 z"
       id="path13088"
       sodipodi:nodetypes="cccc"
       inkscape:connector-curvature="0" />
    <path
       style="fill:url(#linearGradient13108);fill-opacity:1;fill-rule:evenodd;stroke:none;stroke-width:1px;stroke-linecap:butt;stroke-linejoin:miter;stroke-opacity:1"
       d="m 276.45902,282.87801 c 109.86934,-19.25962 98.17257,-3.46256 224.85995,16.97056 -17.71044,29.78938 -52.0377,42.37273 -86.62058,48.43682 -43.48404,-27.85922 -51.47935,-31.256 -138.23937,-65.40738 z"
       id="path13100"
       sodipodi:nodetypes="cccc"
       inkscape:connector-curvature="0" />
    <path
       style="fill:url(#linearGradient15056);fill-opacity:1;fill-rule:evenodd;stroke:none;stroke-width:1px;stroke-linecap:butt;stroke-linejoin:miter;stroke-opacity:1"
       d="m 406.56667,438.97183 c -42.61539,5.21206 -78.64635,-6.58563 -109.95511,-30.58237 -2.18995,-38.89087 -5.21329,-67.52869 -22.80419,-116.67261 62.76626,56.14816 92.62786,95.60907 132.7593,147.25498 z"
       id="path13110"
       sodipodi:nodetypes="cccc"
       inkscape:connector-curvature="0" />
    <path
       style="fill:url(#linearGradient16035);fill-opacity:1;fill-rule:evenodd;stroke:none;stroke-width:1px;stroke-linecap:butt;stroke-linejoin:miter;stroke-opacity:1"
       d="m 225.92785,507.91303 c 9.63226,-14.9864 67.95607,-9.47424 62.78034,2.92938 -17.79731,13.16461 -48.94376,13.07201 -62.78034,-2.92938 z"
       id="path15058"
       sodipodi:nodetypes="ccc"
       inkscape:connector-curvature="0" />
  </g>
</svg>
