<?xml version="1.0" encoding="UTF-8" standalone="no"?>
<svg
   background-color="#000000"
   version="1.1"
   height="225.48344"
   width="397.13412"
   id="fantasyMap"
   xmlns="http://www.w3.org/2000/svg"
   xmlns:svg="http://www.w3.org/2000/svg">
  <defs
     id="defs1339" />
  <g
     id="land_1708769975.5002224"
     style="display:inline"
     transform="translate(-344.18888,-116.63275)">
    <path
       id="state-border18"
       d="m 474.823,124.245 10,7 v 1 l 3,3 h 10 l 4,3 h 12 v 0 l 8,1 4,2 h 4 l 5,5 h 9 l 2,8 4,2 5,8 v 1 l 5,8 1,1 h 3 l 10,4 4,5 11,1 1,1 2,7 5,2 2,12 7,2 5,-10 v -3 l 5,-7 1,-3 -1,-4 3,-4 7,-2 12,10 v 0 l 9,3 1,1 h 6 l 7,-9 v 0 l 5,-9 5,-2 9,7 1,1 5,6 6,1 6,-3 4,-11 2,-1 1,-2 12,-7 9,5 1,1 9,2 5,10 v 1 l -13,10 v 0 l -8,7 -1,14 v 0 l -8,-1 -13,13 h -1 l 4,18 -5,3 h -6 l -9,21 -9,-5 h -2 l -6,17 -8,-3 -8,11 3,9 -15,7 v 11 l -8,6 -9,-6 -9,8 -14,-3 1,14 -1,3 -15,1 -5,7 v 0 l -11,-16 -13,7 v 0 l -8,-20 -12,8 -12,-6 -8,3 -2,3 h -1 l -16,-8 -9,5 -10,-3 -2,9 -7,12 -9,-3 -1,1 -18,-5 v -9 l -16,-7 -3,-5 6,-12 -2,-9 -19,8 -5,-16 -4,-2 -11,10 -10,-8 -1,-3 5,-16 -11,-4 -16,10 -5,-4 11,-21 3,-1 9,-9 -4,-9 1,-12 2,-2 -9,-16 8,-8 -4,-14 10,-6 1,-8 13,-4 v 0 l 9,5 10,-4 6,4 v 0 l 5,-3 h 9 l 3,-2 h 6 l 8,-7 v -4 l 8,-3 1,-6 10,-5 -1,-3 8,-6 6,4 1,3"
       clip-path="url(#state-clip18)"
       stroke="#6277a1"
       style="fill:#ffffff" />
  </g>
  <text
     xml:space="preserve"
     style="font-weight:600;font-size:14.6667px;font-family:Rajdhani;-inkscape-font-specification:'Rajdhani, Semi-Bold';text-align:center;text-anchor:middle;fill:#00ffff;stroke:#000000;stroke-width:10;paint-order:stroke fill markers"
     x="175.01466"
     y="125.62029"
     id="text3343"><tspan
       id="tspan3341"
       x="175.01466"
       y="125.62029">X</tspan></text>
</svg>
