<?xml version="1.0" encoding="UTF-8" standalone="no"?>
<svg
   background-color="#000000"
   version="1.1"
   height="248.17409"
   width="416.08667"
   id="fantasyMap"
   xmlns="http://www.w3.org/2000/svg"
   xmlns:svg="http://www.w3.org/2000/svg">
  <defs
     id="defs1339" />
  <g
     id="land_1708769975.4998157"
     style="display:inline"
     transform="translate(-1617.2363,-95.626172)">
    <path
       id="state-border15"
       d="m 1885.823,124.245 -2,-16 1,-1 8,-1 4,4 9,1 v 1 l 5,2 8,-1 4,-7 -1,-4 9,-6 5,4 10,-3 1,1 10,2 6,-3 h 1 l 3,4 6,3 3,7 -5,9 -1,1 v 1 l -5,2 -2,9 4,6 h 11 v 0 l 10,8 v 1 l -2,4 -9,4 v 10 l 8,4 h 4 l 6,8 v 5 l 1,3 -1,7 2,4 -3,7 -11,1 -3,2 h -6 l -4,6 -9,2 -5,13 7,4 3,9 7,2 h 7 l 2,1 h 8 l 2,2 1,7 -3,10 7,8 v 1 l 5,7 1,1 v 8 l -5,6 -8,-2 3,-8 -7,-1 -3,-5 -6,-2 -1,-2 -2,-8 -2,-1 -4,-4 -4,-1 -3,-3 -12,2 -2,6 h -6 l -8,7 v 2 l -4,1 -8,-3 -2,-7 -6,-3 -1,-6 -3,-3 -7,-1 -4,-6 -6,-1 -6,-10 -2,-1 -5,-9 -9,2 -3,2 -2,8 4,5 4,2 2,5 7,5 1,3 1,2 -2,14 h 1 v 4 l 5,7 v 3 l 3,4 -1,12 -1,1 h -17 l -3,9 -10,2 -7,-4 h -17 -1 l 1,-8 -7,-15 -8,4 -11,-4 -7,5 -9,-20 -11,4 -3,11 -16,1 h -1 l -13,-1 -2,2 -21,-1 -4,7 -6,2 -8,4 -13,-11 -9,11 -9,-3 -4,-10 1,-4 -15,-10 1,-8 -8,-8 18,-22 -14,-3 -4,-13 -1,-1 -8,-1 -7,7 -13,-10 1,-2 -1,-20 -3,-1 5,-18 -7,-7 4,-10 3,-4 14,-1 4,20 18,3 v 8 l 10,10 10,-11 h 10 v 0 l -3,-17 19,-2 h 1 l 15,2 2,20 17,-5 8,8 11,-5 v -15 l 18,4 3,-1 8,2 6,-9 -3,-9 5,-7 h 3 1 l 12,3 1,8 5,5 2,6 v 1 h 7 l 8,6 v 9 l -1,1 -1,10 1,2 11,3 3,-2 13,4 h 1 v 0 l 7,-7 1,-12 12,-1 -2,-4 7,-9 -2,-5 1,-5 -2,-4 -2,-2 -1,-2 5,-12 v -3 l 4,-6 v -2 l -6,-7 v 0 m -26,44 1,-9 7,-2 5,5 -3,11 -1,1 -4,-2 -5,-4 m 76,119 3,-5 14,-1 4,6 1,2 -9,11 -6,1 -7,-14 m 80,55 1,-10 8,-5 8,3 v 6 l -15,7 -2,-1"
       clip-path="url(#state-clip15)"
       stroke="#b3628e"
       style="fill:#ffffff" />
  </g>
  <text
     xml:space="preserve"
     style="font-weight:600;font-size:14.6667px;font-family:Rajdhani;-inkscape-font-specification:'Rajdhani, Semi-Bold';text-align:center;text-anchor:middle;fill:#00ffff;stroke:#000000;stroke-width:10;paint-order:stroke fill markers"
     x="149.46803"
     y="139.94592"
     id="text3267"><tspan
       id="tspan3265"
       x="149.46803"
       y="139.94592">X</tspan></text>
</svg>
