<?xml version="1.0" encoding="UTF-8" standalone="no"?>
<svg
   background-color="#000000"
   version="1.1"
   height="286.12857"
   width="385.06091"
   id="fantasyMap"
   xmlns="http://www.w3.org/2000/svg"
   xmlns:svg="http://www.w3.org/2000/svg">
  <defs
     id="defs1339" />
  <g
     id="land_1708769975.4990497"
     style="display:inline"
     transform="translate(-1685.3084,-272.61644)">
    <path
       id="state-border9"
       d="m 1778.823,288.245 3,-11 11,-4 9,20 7,-5 11,4 8,-4 7,15 -1,8 h 1 17 l 7,4 10,-2 3,-9 h 17 l 1,11 9,5 2,5 3,2 1,10 3,3 5,4 3,1 5,-3 12,1 8,6 v 1 4 l -2,2 -1,14 -3,2 2,14 h 10 l 1,2 13,3 -4,14 v 0 l -6,8 v 3 l 8,5 2,6 -3,4 -5,2 -2,10 7,8 h 8 l 4,-4 3,-2 3,-4 9,-3 9,3 4,-3 10,3 5,-3 7,3 5,-2 6,-6 v -5 l -2,-5 1,-6 -2,-6 v -3 l 10,-7 8,1 3,13 v 0 l 2,9 1,1 1,9 4,5 v 1 l 5,10 v 0 1 l 4,11 -2,5 3,10 3,2 -1,6 -3,6 -11,-1 h -1 l -10,-3 -5,5 1,3 -5,10 h -5 l -4,2 -5,-1 -4,1 -9,-4 -2,-2 -10,1 -5,-7 -12,-3 v 0 l -6,-2 -3,-7 -3,-3 1,-7 -4,-6 -9,1 v 10 l 1,2 -4,10 2,6 -3,3 -1,1 -5,6 -6,2 -1,5 7,8 h 3 l 8,12 v 0 1 l -10,5 -1,1 -2,1 -10,-2 v 0 l -11,-1 -5,5 3,10 -2,5 h -3 l -11,-3 -7,2 -5,-1 -3,1 h -2 l -8,-14 -12,-4 v -4 l -8,-10 16,-17 v 0 l -26,-1 -2,-2 4,-13 -11,-6 -6,-15 h -13 l -2,-2 -4,-12 -17,1 1,-17 -16,-3 v -14 l -6,-3 4,-21 -1,-1 -10,-2 -8,-10 -15,11 -15,-17 -4,-1 1,-15 -4,-6 -1,-9 -13,-6 -4,-14 -14,6 -7,-6 1,-16 1,-2 16,3 4,-13 8,-4 6,-2 4,-7 21,1 2,-2 13,1 h 1 l 16,-1 m 194,57 1,-10 9,-7 8,4 1,12 5,4 1,11 -11,4 -5,-2 -5,-11 -2,-1 -2,-4 m 48,3 8,3 8,-5 2,-4 -6,-6 -15,7 3,5 m 6,27 2,-6 14,6 -3,8 -8,1 -5,-9 m -35,10 -2,4 1,16 h 1 l 6,2 10,-4 v 0 l 13,-5 v -5 l -9,-10 -7,-1 h -1 l -2,1 -10,2"
       clip-path="url(#state-clip9)"
       stroke="#5f8994"
       style="fill:#ffffff" />
  </g>
  <text
     xml:space="preserve"
     style="font-weight:600;font-size:14.6667px;font-family:Rajdhani;-inkscape-font-specification:'Rajdhani, Semi-Bold';text-align:center;text-anchor:middle;fill:#00ffff;stroke:#000000;stroke-width:10;paint-order:stroke fill markers"
     x="186.38756"
     y="144.31801"
     id="text1708"><tspan
       id="tspan1706"
       x="186.38756"
       y="144.31801">X</tspan></text>
</svg>
