<?xml version="1.0" encoding="UTF-8" standalone="no"?>
<svg
   background-color="#000000"
   version="1.1"
   height="318.13541"
   width="178.48589"
   id="fantasyMap"
   xmlns="http://www.w3.org/2000/svg"
   xmlns:svg="http://www.w3.org/2000/svg">
  <defs
     id="defs1339" />
  <g
     id="land_1708769975.4992497"
     style="display:inline"
     transform="translate(-1642.8945,-313.65387)">
    <path
       id="state-border10"
       d="m 1658.823,323.245 4,-7 5,1 19,-3 -1,16 7,6 14,-6 4,14 13,6 1,9 4,6 -1,15 4,1 15,17 15,-11 8,10 10,2 1,1 -4,21 6,3 v 14 l 16,3 -1,17 17,-1 4,12 2,2 -4,15 -12,4 v 10 l -8,10 7,10 -7,13 17,10 v 0 l -11,13 9,13 -6,6 v 1 l -9,8 v 7 0 l -1,12 -9,7 -3,1 v 1 l -7,2 v 0 l -8,1 h -4 l -7,2 -7,6 -2,6 -7,2 -6,-4 -4,-7 -12,-5 v 0 l -3,-2 h -14 l -2,-2 1,-13 11,-8 -2,-10 h -14 l -3,-20 v -1 l -15,9 -9,-8 8,-17 -15,-5 -4,-10 -8,-5 16,-22 -7,-1 -6,-15 2,-2 -4,-15 3,-8 -2,-4 4,-4 7,-4 9,-13 2,-1 h 13 l 2,-8 -3,-9 11,-14 -3,-9 -20,4 -5,-10 5,-8 v -17 0 l -6,-14 h -2 l -23,-19 15,-7"
       clip-path="url(#state-clip10)"
       stroke="#9b689c"
       style="fill:#ffffff" />
  </g>
  <text
     xml:space="preserve"
     style="font-weight:600;font-size:14.6667px;font-family:Rajdhani;-inkscape-font-specification:'Rajdhani, Semi-Bold';text-align:center;text-anchor:middle;fill:#00ffff;stroke:#000000;stroke-width:10;paint-order:stroke fill markers"
     x="92.931473"
     y="184.62386"
     id="text3015"><tspan
       id="tspan3013"
       x="92.931473"
       y="184.62386">X</tspan></text>
</svg>
