<?xml version="1.0" encoding="UTF-8" standalone="no"?>
<!-- Created with Inkscape (http://www.inkscape.org/) -->

<svg
   width="30"
   height="795"
   viewBox="0 0 30 795.00003"
   version="1.1"
   id="svg4035"
   xml:space="preserve"
   inkscape:export-filename="bgL.png"
   inkscape:export-xdpi="450"
   inkscape:export-ydpi="450"
   inkscape:version="1.2.2 (b0a8486541, 2022-12-01)"
   sodipodi:docname="bg.svg"
   xmlns:inkscape="http://www.inkscape.org/namespaces/inkscape"
   xmlns:sodipodi="http://sodipodi.sourceforge.net/DTD/sodipodi-0.dtd"
   xmlns="http://www.w3.org/2000/svg"
   xmlns:svg="http://www.w3.org/2000/svg"><sodipodi:namedview
     id="namedview4037"
     pagecolor="#ffffff"
     bordercolor="#000000"
     borderopacity="0.25"
     inkscape:showpageshadow="2"
     inkscape:pageopacity="0.0"
     inkscape:pagecheckerboard="0"
     inkscape:deskcolor="#d1d1d1"
     inkscape:document-units="px"
     showgrid="false"
     inkscape:zoom="1.1893044"
     inkscape:cx="-276.63229"
     inkscape:cy="404.43809"
     inkscape:window-width="2520"
     inkscape:window-height="1411"
     inkscape:window-x="0"
     inkscape:window-y="0"
     inkscape:window-maximized="1"
     inkscape:current-layer="layer1" /><defs
     id="defs4032" /><g
     inkscape:label="Réteg 1"
     inkscape:groupmode="layer"
     id="layer1"><path
       id="path278"
       style="fill:#000000;stroke-width:0.113819"
       d="M 15.000002,0 A 9.1904046,9.1904046 0 0 0 5.8096015,9.1904 9.1904046,9.1904046 0 0 0 15.000002,18.3808 9.1904046,9.1904046 0 0 0 24.190398,9.1904 9.1904046,9.1904046 0 0 0 15.000002,0 Z m 0,1.96248 A 7.2279357,7.2279357 0 0 1 22.227921,9.1904 7.2279357,7.2279357 0 0 1 15.000002,16.41832 7.2279357,7.2279357 0 0 1 7.7718585,9.1904 7.2279357,7.2279357 0 0 1 15.000002,1.96248 Z m 0,1.8271 A 5.4008093,5.4008093 0 0 0 9.5991785,9.1904 5.4008093,5.4008093 0 0 0 15.000002,14.59122 5.4008093,5.4008093 0 0 0 20.400821,9.1904 5.4008093,5.4008093 0 0 0 15.000002,3.78958 Z m 0,1.8949 A 3.5060116,3.5060116 0 0 1 18.505921,9.1904 3.5060116,3.5060116 0 0 1 15.000002,12.69655 3.5060116,3.5060116 0 0 1 11.493859,9.1904 3.5060116,3.5060116 0 0 1 15.000002,5.68448 Z m 0,1.7593 A 1.7465567,1.7465567 0 0 0 13.253376,9.1904 1.7465567,1.7465567 0 0 0 15.000002,10.93703 1.7465567,1.7465567 0 0 0 16.746404,9.1904 1.7465567,1.7465567 0 0 0 15.000002,7.44378 Z" /><path
       id="path13045"
       style="fill:#000000;stroke-width:0.113819"
       d="m 15.000002,776.6192 a 9.1904046,9.1904046 0 0 0 -9.1904005,9.1904 9.1904046,9.1904046 0 0 0 9.1904005,9.1904 9.1904046,9.1904046 0 0 0 9.190396,-9.1904 9.1904046,9.1904046 0 0 0 -9.190396,-9.1904 z m 0,1.96248 a 7.2279357,7.2279357 0 0 1 7.227919,7.22792 7.2279357,7.2279357 0 0 1 -7.227918,7.22792 7.2279357,7.2279357 0 0 1 -7.2281445,-7.22792 7.2279357,7.2279357 0 0 1 7.2281435,-7.22792 z m 0,1.8271 a 5.4008093,5.4008093 0 0 0 -5.4008235,5.40082 5.4008093,5.4008093 0 0 0 5.4008235,5.40082 5.4008093,5.4008093 0 0 0 5.400819,-5.40082 5.4008093,5.4008093 0 0 0 -5.400819,-5.40082 z m 0,1.8949 a 3.5060116,3.5060116 0 0 1 3.505919,3.50592 3.5060116,3.5060116 0 0 1 -3.505919,3.50615 3.5060116,3.5060116 0 0 1 -3.506143,-3.50615 3.5060116,3.5060116 0 0 1 3.506143,-3.50592 z m 0,1.7593 a 1.7465567,1.7465567 0 0 0 -1.746626,1.74662 1.7465567,1.7465567 0 0 0 1.746626,1.74663 1.7465567,1.7465567 0 0 0 1.746402,-1.74663 1.7465567,1.7465567 0 0 0 -1.746402,-1.74662 z" /><g
       id="g559"
       transform="matrix(0.92370989,0,0,0.92370989,1.1443486,127.98265)"><g
         id="g4167"
         transform="matrix(0,-0.25933413,0.25933413,0,-63.507998,371.74373)"
         style="font-style:normal;font-variant:normal;font-weight:normal;font-stretch:normal;font-size:40px;line-height:125%;font-family:'Major Snafu';-inkscape-font-specification:'Major Snafu, Normal';text-align:start;letter-spacing:0px;word-spacing:0px;writing-mode:lr-tb;text-anchor:start;fill:#000000;fill-opacity:1;stroke:none;stroke-width:1px;stroke-linecap:butt;stroke-linejoin:miter;stroke-opacity:1"><path
           id="path4141"
           d="m 216.79408,315.21936 q -6.26953,0 -6.26953,-6.21094 v -12.53906 q 0,-6.21094 6.23047,-6.21094 h 3.82813 v 6.21094 l -3.82813,-0.0195 -0.0195,12.53906 h 3.84766 v 6.23047 h -3.78907 z m 15.60547,-6.17187 0.0195,-1.67969 -6.25,-0.0195 v 1.66015 h -3.94531 v 6.23047 h 3.94531 q 6.23047,0 6.23047,-6.1914 z m 0,-12.61719 q 0,-6.21094 -6.23047,-6.21094 h -3.94531 v 6.25 h 3.94531 v 1.54297 l 6.25,-0.0195 -0.0195,-1.5625 z"
           inkscape:connector-curvature="0" /><path
           id="path4143"
           d="m 233.96205,315.23889 6.67969,-21.32812 4.6875,15.80078 h -3.37891 l -1.73828,5.52734 z m 15.58594,0 -7.85156,-25 h 6.25 l 7.85156,25 z"
           inkscape:connector-curvature="0" /><path
           id="path4145"
           d="m 264.04018,290.23889 v 25 h -6.25 v -25 z m 15.60547,18.75 v 6.25 h -14.04297 v -6.25 z"
           inkscape:connector-curvature="0" /><path
           id="path4147"
           d="m 289.50893,290.23889 v 25 h -6.25 v -25 z m 15.60547,18.75 v 6.25 h -14.04297 v -6.25 z"
           inkscape:connector-curvature="0" /></g><g
         id="g4173"
         transform="matrix(0,-0.139315,0.139315,0,-27.515841,334.53166)"
         style="font-style:normal;font-variant:normal;font-weight:normal;font-stretch:normal;font-size:40px;line-height:125%;font-family:'Major Snafu';-inkscape-font-specification:'Major Snafu, Normal';text-align:start;letter-spacing:0px;word-spacing:0px;writing-mode:lr-tb;text-anchor:start;fill:#000000;fill-opacity:1;stroke:none;stroke-width:1px;stroke-linecap:butt;stroke-linejoin:miter;stroke-opacity:1"><path
           inkscape:connector-curvature="0"
           id="path4149"
           d="m 304.09829,304.8703 q -3.67418,0 -3.67418,-3.63984 v -7.34836 q 0,-3.63985 3.65129,-3.63985 h 2.24342 v 3.63985 l -2.24342,-0.0114 -0.0114,7.34836 h 2.25488 v 3.65129 h -2.22054 z m 9.14539,-3.61695 v -7.39415 q 0,-3.63984 -3.65129,-3.63984 h -2.3121 v 3.66274 h 2.3121 v 7.34836 h -2.3121 v 3.65129 h 2.3121 q 3.65129,0 3.65129,-3.6284 z" /><path
           inkscape:connector-curvature="0"
           id="path4151"
           d="m 315.30397,304.88175 v -14.65094 h 3.66274 v 5.4941 h 5.4941 v 3.66273 h -5.4941 v 5.49411 z m 4.57842,-10.98821 v -3.66273 h 8.22971 v 3.66273 z" /></g><path
         inkscape:connector-curvature="0"
         d="m 17.436326,287.56723 q 0.810418,0 0.810418,-0.80536 v -1.82344 h -1.620836 v 1.01809 h -0.815485 v 1.61071 z m 0.80029,-3.02894 v -1.83864 q 0,-0.79523 -0.80029,-0.79523 h -0.815485 q -0.810418,-0.0101 -1.205498,0.6534 l -2.041241,3.38857 0.0051,-0.99783 h -1.625903 v 1.80319 q 0,0.81548 0.815482,0.81548 h 0.815485 q 0.80029,0.005 1.190305,-0.64327 l 2.046306,-3.41389 v 1.02822 h 1.615775 z m -5.667868,-2.64399 q -0.810421,0 -0.810421,0.82054 v 1.81838 h 1.620839 v -1.02315 h 0.82055 l -0.0051,-1.62084 -1.625904,0.005 z"
         id="path4153"
         style="font-style:normal;font-variant:normal;font-weight:normal;font-stretch:normal;font-size:40px;line-height:125%;font-family:'Major Snafu';-inkscape-font-specification:'Major Snafu, Normal';text-align:start;letter-spacing:0px;word-spacing:0px;writing-mode:lr-tb;text-anchor:start;fill:#000000;fill-opacity:1;stroke:none;stroke-width:0.259335px;stroke-linecap:butt;stroke-linejoin:miter;stroke-opacity:1" /><path
         inkscape:connector-curvature="0"
         d="m 18.24168,279.35667 q 0,1.6259 -1.610708,1.6259 h -4.862514 v -1.61577 l 4.85745,0.005 v -0.99783 h 1.615772 v 0.98263 z m -1.600577,-4.04703 -4.88784,-0.005 v 1.62084 h 4.877709 v 1.02315 h 1.615772 v -1.02315 q 0,-1.61577 -1.605641,-1.61577 z"
         id="path4155"
         style="font-style:normal;font-variant:normal;font-weight:normal;font-stretch:normal;font-size:40px;line-height:125%;font-family:'Major Snafu';-inkscape-font-specification:'Major Snafu, Normal';text-align:start;letter-spacing:0px;word-spacing:0px;writing-mode:lr-tb;text-anchor:start;fill:#000000;fill-opacity:1;stroke:none;stroke-width:0.259335px;stroke-linecap:butt;stroke-linejoin:miter;stroke-opacity:1" /><path
         inkscape:connector-curvature="0"
         d="m 11.763394,272.77708 h 6.48335 v 1.62084 h -6.48335 z m 4.862514,-4.04703 h 1.620836 v 3.64182 h -1.620836 z"
         id="path4157"
         style="font-style:normal;font-variant:normal;font-weight:normal;font-stretch:normal;font-size:40px;line-height:125%;font-family:'Major Snafu';-inkscape-font-specification:'Major Snafu, Normal';text-align:start;letter-spacing:0px;word-spacing:0px;writing-mode:lr-tb;text-anchor:start;fill:#000000;fill-opacity:1;stroke:none;stroke-width:0.259335px;stroke-linecap:butt;stroke-linejoin:miter;stroke-opacity:1" /><path
         inkscape:connector-curvature="0"
         d="m 18.246744,268.02744 h -6.48335 v -1.62084 h 6.48335 z"
         id="path4159"
         style="font-style:normal;font-variant:normal;font-weight:normal;font-stretch:normal;font-size:40px;line-height:125%;font-family:'Major Snafu';-inkscape-font-specification:'Major Snafu, Normal';text-align:start;letter-spacing:0px;word-spacing:0px;writing-mode:lr-tb;text-anchor:start;fill:#000000;fill-opacity:1;stroke:none;stroke-width:0.259335px;stroke-linecap:butt;stroke-linejoin:miter;stroke-opacity:1" /></g></g></svg>
