<?xml version="1.0" encoding="UTF-8" standalone="no"?>
<!-- Created with Inkscape (http://www.inkscape.org/) -->

<svg
   width="30"
   height="795"
   viewBox="0 0 30 795.00003"
   version="1.1"
   id="svg4035"
   xml:space="preserve"
   inkscape:export-filename="bg.png"
   inkscape:export-xdpi="96"
   inkscape:export-ydpi="96"
   inkscape:version="1.2.2 (b0a8486541, 2022-12-01)"
   sodipodi:docname="bg.svg"
   xmlns:inkscape="http://www.inkscape.org/namespaces/inkscape"
   xmlns:sodipodi="http://sodipodi.sourceforge.net/DTD/sodipodi-0.dtd"
   xmlns="http://www.w3.org/2000/svg"
   xmlns:svg="http://www.w3.org/2000/svg"><sodipodi:namedview
     id="namedview4037"
     pagecolor="#ffffff"
     bordercolor="#000000"
     borderopacity="0.25"
     inkscape:showpageshadow="2"
     inkscape:pageopacity="0.0"
     inkscape:pagecheckerboard="0"
     inkscape:deskcolor="#d1d1d1"
     inkscape:document-units="px"
     showgrid="false"
     inkscape:zoom="0.84096521"
     inkscape:cx="-321.05966"
     inkscape:cy="510.12812"
     inkscape:window-width="2520"
     inkscape:window-height="1411"
     inkscape:window-x="0"
     inkscape:window-y="0"
     inkscape:window-maximized="1"
     inkscape:current-layer="layer1" /><defs
     id="defs4032" /><g
     inkscape:label="Réteg 1"
     inkscape:groupmode="layer"
     id="layer1"><path
       id="path278"
       style="fill:#000000;stroke-width:0.113819"
       d="M 15.000002,0 A 9.1904046,9.1904046 0 0 0 5.8096015,9.1904 9.1904046,9.1904046 0 0 0 15.000002,18.3808 9.1904046,9.1904046 0 0 0 24.190398,9.1904 9.1904046,9.1904046 0 0 0 15.000002,0 Z m 0,1.96248 A 7.2279357,7.2279357 0 0 1 22.227921,9.1904 7.2279357,7.2279357 0 0 1 15.000002,16.41832 7.2279357,7.2279357 0 0 1 7.7718585,9.1904 7.2279357,7.2279357 0 0 1 15.000002,1.96248 Z m 0,1.8271 A 5.4008093,5.4008093 0 0 0 9.5991785,9.1904 5.4008093,5.4008093 0 0 0 15.000002,14.59122 5.4008093,5.4008093 0 0 0 20.400821,9.1904 5.4008093,5.4008093 0 0 0 15.000002,3.78958 Z m 0,1.8949 A 3.5060116,3.5060116 0 0 1 18.505921,9.1904 3.5060116,3.5060116 0 0 1 15.000002,12.69655 3.5060116,3.5060116 0 0 1 11.493859,9.1904 3.5060116,3.5060116 0 0 1 15.000002,5.68448 Z m 0,1.7593 A 1.7465567,1.7465567 0 0 0 13.253376,9.1904 1.7465567,1.7465567 0 0 0 15.000002,10.93703 1.7465567,1.7465567 0 0 0 16.746404,9.1904 1.7465567,1.7465567 0 0 0 15.000002,7.44378 Z" /><path
       id="path13045"
       style="fill:#000000;stroke-width:0.113819"
       d="m 15.000002,776.6192 a 9.1904046,9.1904046 0 0 0 -9.1904005,9.1904 9.1904046,9.1904046 0 0 0 9.1904005,9.1904 9.1904046,9.1904046 0 0 0 9.190396,-9.1904 9.1904046,9.1904046 0 0 0 -9.190396,-9.1904 z m 0,1.96248 a 7.2279357,7.2279357 0 0 1 7.227919,7.22792 7.2279357,7.2279357 0 0 1 -7.227918,7.22792 7.2279357,7.2279357 0 0 1 -7.2281445,-7.22792 7.2279357,7.2279357 0 0 1 7.2281435,-7.22792 z m 0,1.8271 a 5.4008093,5.4008093 0 0 0 -5.4008235,5.40082 5.4008093,5.4008093 0 0 0 5.4008235,5.40082 5.4008093,5.4008093 0 0 0 5.400819,-5.40082 5.4008093,5.4008093 0 0 0 -5.400819,-5.40082 z m 0,1.8949 a 3.5060116,3.5060116 0 0 1 3.505919,3.50592 3.5060116,3.5060116 0 0 1 -3.505919,3.50615 3.5060116,3.5060116 0 0 1 -3.506143,-3.50615 3.5060116,3.5060116 0 0 1 3.506143,-3.50592 z m 0,1.7593 a 1.7465567,1.7465567 0 0 0 -1.746626,1.74662 1.7465567,1.7465567 0 0 0 1.746626,1.74663 1.7465567,1.7465567 0 0 0 1.746402,-1.74663 1.7465567,1.7465567 0 0 0 -1.746402,-1.74662 z" /></g></svg>
