<?xml version="1.0" encoding="UTF-8" standalone="no"?>
<!-- Created with Inkscape (http://www.inkscape.org/) -->

<svg
   width="150"
   height="150"
   viewBox="0 0 39.6875 39.6875"
   version="1.1"
   id="svg5"
   xml:space="preserve"
   inkscape:version="1.2.2 (b0a8486541, 2022-12-01)"
   sodipodi:docname="marker.svg"
   xmlns:inkscape="http://www.inkscape.org/namespaces/inkscape"
   xmlns:sodipodi="http://sodipodi.sourceforge.net/DTD/sodipodi-0.dtd"
   xmlns="http://www.w3.org/2000/svg"
   xmlns:svg="http://www.w3.org/2000/svg"><sodipodi:namedview
     id="namedview7"
     pagecolor="#ffffff"
     bordercolor="#000000"
     borderopacity="0.25"
     inkscape:showpageshadow="2"
     inkscape:pageopacity="0.0"
     inkscape:pagecheckerboard="0"
     inkscape:deskcolor="#d1d1d1"
     inkscape:document-units="mm"
     showgrid="false"
     inkscape:zoom="1.6819304"
     inkscape:cx="212.25611"
     inkscape:cy="257.44228"
     inkscape:window-width="2520"
     inkscape:window-height="1411"
     inkscape:window-x="0"
     inkscape:window-y="0"
     inkscape:window-maximized="1"
     inkscape:current-layer="layer2" /><defs
     id="defs2" /><g
     inkscape:groupmode="layer"
     id="layer2"
     inkscape:label="Réteg 2"
     transform="translate(-16.74786,-108.10767)"><path
       id="path278"
       style="fill:#000000;stroke-width:0.245755"
       d="M 36.591612,108.10767 A 19.843763,19.843763 0 0 0 16.74786,127.95142 19.843763,19.843763 0 0 0 36.591612,147.79517 19.843763,19.843763 0 0 0 56.43536,127.95142 19.843763,19.843763 0 0 0 36.591612,108.10767 Z m 0,4.23735 a 15.606434,15.606434 0 0 1 15.606401,15.6064 15.606434,15.606434 0 0 1 -15.606401,15.60639 15.606434,15.606434 0 0 1 -15.606879,-15.60639 15.606434,15.606434 0 0 1 15.606879,-15.6064 z m 0,3.94504 a 11.661334,11.661334 0 0 0 -11.66136,11.66136 11.661334,11.661334 0 0 0 11.66136,11.66136 11.661334,11.661334 0 0 0 11.661358,-11.66136 11.661334,11.661334 0 0 0 -11.661358,-11.66136 z m 0,4.09144 a 7.5701196,7.5701196 0 0 1 7.569922,7.56992 7.5701196,7.5701196 0 0 1 -7.569922,7.57041 7.5701196,7.5701196 0 0 1 -7.570404,-7.57041 7.5701196,7.5701196 0 0 1 7.570404,-7.56992 z m 0,3.79864 a 3.7711349,3.7711349 0 0 0 -3.771282,3.77128 3.7711349,3.7711349 0 0 0 3.771282,3.77129 3.7711349,3.7711349 0 0 0 3.770803,-3.77129 3.7711349,3.7711349 0 0 0 -3.770803,-3.77128 z" /></g></svg>
