<?xml version="1.0" encoding="UTF-8" standalone="no"?>
<!-- Created with Inkscape (http://www.inkscape.org/) -->

<svg
   width="991.32935"
   height="126.86382"
   viewBox="0 0 256.37825 32.809606"
   id="svg2"
   version="1.1"
   xmlns="http://www.w3.org/2000/svg"
   xmlns:svg="http://www.w3.org/2000/svg"
   xmlns:rdf="http://www.w3.org/1999/02/22-rdf-syntax-ns#"
   xmlns:cc="http://creativecommons.org/ns#"
   xmlns:dc="http://purl.org/dc/elements/1.1/">
  <defs
     id="defs4" />
  <metadata
     id="metadata7">
    <rdf:RDF>
      <cc:Work
         rdf:about="">
        <dc:format>image/svg+xml</dc:format>
        <dc:type
           rdf:resource="http://purl.org/dc/dcmitype/StillImage" />
      </cc:Work>
    </rdf:RDF>
  </metadata>
  <g
     id="layer1"
     transform="translate(-210.52456,-290.19981)">
    <g
       style="font-style:normal;font-variant:normal;font-weight:normal;font-stretch:normal;font-size:40px;line-height:125%;font-family:'Major Snafu';-inkscape-font-specification:'Major Snafu, Normal';text-align:start;letter-spacing:0px;word-spacing:0px;writing-mode:lr-tb;text-anchor:start;fill:#00ffff;fill-opacity:1;stroke:none;stroke-width:1px;stroke-linecap:butt;stroke-linejoin:miter;stroke-opacity:1"
       id="text4136"
       transform="matrix(1.3103354,0,0,1.3103354,-65.333212,-90.059259)">
      <g
         id="g4167"
         transform="translate(0,-0.009795)"
         style="fill:#00ffff;fill-opacity:1">
        <path
           id="path4141"
           d="m 216.79408,315.21936 q -6.26953,0 -6.26953,-6.21094 v -12.53906 q 0,-6.21094 6.23047,-6.21094 h 3.82813 v 6.21094 l -3.82813,-0.0195 -0.0195,12.53906 h 3.84766 v 6.23047 h -3.78907 z m 15.60547,-6.17187 0.0195,-1.67969 -6.25,-0.0195 v 1.66015 h -3.94531 v 6.23047 h 3.94531 q 6.23047,0 6.23047,-6.1914 z m 0,-12.61719 q 0,-6.21094 -6.23047,-6.21094 h -3.94531 v 6.25 h 3.94531 v 1.54297 l 6.25,-0.0195 -0.0195,-1.5625 z"
           style="fill:#00ffff;fill-opacity:1" />
        <path
           id="path4143"
           d="m 233.96205,315.23889 6.67969,-21.32812 4.6875,15.80078 h -3.37891 l -1.73828,5.52734 z m 15.58594,0 -7.85156,-25 h 6.25 l 7.85156,25 z"
           style="fill:#00ffff;fill-opacity:1" />
        <path
           id="path4145"
           d="m 264.04018,290.23889 v 25 h -6.25 v -25 z m 15.60547,18.75 v 6.25 h -14.04297 v -6.25 z"
           style="fill:#00ffff;fill-opacity:1" />
        <path
           id="path4147"
           d="m 289.50893,290.23889 v 25 h -6.25 v -25 z m 15.60547,18.75 v 6.25 h -14.04297 v -6.25 z"
           style="fill:#00ffff;fill-opacity:1" />
      </g>
      <g
         id="g4173"
         transform="matrix(0.53720271,0,0,0.53720271,143.49084,138.77702)"
         style="fill:#00ffff;fill-opacity:1">
        <path
           id="path4149"
           d="m 304.09829,304.8703 q -3.67418,0 -3.67418,-3.63984 v -7.34836 q 0,-3.63985 3.65129,-3.63985 h 2.24342 v 3.63985 l -2.24342,-0.0114 -0.0114,7.34836 h 2.25488 v 3.65129 h -2.22054 z m 9.14539,-3.61695 v -7.39415 q 0,-3.63984 -3.65129,-3.63984 h -2.3121 v 3.66274 h 2.3121 v 7.34836 h -2.3121 v 3.65129 h 2.3121 q 3.65129,0 3.65129,-3.6284 z"
           style="fill:#00ffff;fill-opacity:1" />
        <path
           id="path4151"
           d="m 315.30397,304.88175 v -14.65094 h 3.66274 v 5.4941 h 5.4941 v 3.66273 h -5.4941 v 5.49411 z m 4.57842,-10.98821 v -3.66273 h 8.22971 v 3.66273 z"
           style="fill:#00ffff;fill-opacity:1" />
      </g>
      <path
         d="m 324.58705,312.11389 q 0,3.125 3.10547,3.125 h 7.03125 v -6.25 h -3.92578 v -3.14453 h -6.21094 z m 11.67969,3.08594 h 7.08984 q 3.06641,0 3.06641,-3.08594 v -3.14453 q 0.0391,-3.125 -2.51953,-4.64844 l -13.06641,-7.87109 3.84766,0.0195 v -6.26953 h -6.95313 q -3.14453,0 -3.14453,3.14453 v 3.14453 q -0.0195,3.08594 2.48047,4.58985 l 13.16406,7.89062 h -3.96484 v 6.23047 z m 10.19531,-21.85547 q 0,-3.125 -3.16406,-3.125 h -7.01172 v 6.25 h 3.94531 v 3.16406 l 6.25,-0.0195 -0.0195,-6.26953 z"
         id="path4153"
         style="fill:#00ffff;fill-opacity:1" />
      <path
         d="m 356.24721,315.21936 q -6.26953,0 -6.26953,-6.21094 v -18.75 h 6.23047 l -0.0195,18.73047 h 3.84766 v 6.23047 h -3.78906 z m 15.60547,-6.17187 0.0195,-18.84766 h -6.25 v 18.80859 h -3.94531 v 6.23047 h 3.94531 q 6.23047,0 6.23047,-6.1914 z"
         id="path4155"
         style="fill:#00ffff;fill-opacity:1" />
      <path
         d="m 381.6183,290.23889 v 25 h -6.25 v -25 z m 15.60547,18.75 v 6.25 H 383.1808 v -6.25 z"
         id="path4157"
         style="fill:#00ffff;fill-opacity:1" />
      <path
         d="m 399.93304,315.23889 v -25 h 6.25 v 25 z"
         id="path4159"
         style="fill:#00ffff;fill-opacity:1" />
    </g>
  </g>
</svg>
