<?xml version="1.0" encoding="UTF-8" standalone="no"?>
<svg
   id="fantasyMap"
   width="214.07834"
   height="236.04005"
   version="1.1"
   background-color="#000000"
   viewBox="0 0 214.07834 236.04005"
   xmlns="http://www.w3.org/2000/svg"
   xmlns:svg="http://www.w3.org/2000/svg">
  <defs
     id="defs4389" />
  <g
     id="land_1708199572.7546065"
     style="display:inline"
     transform="translate(-1319.2717,-613.745)">
    <path
       id="state-border7"
       d="m 1355.8217,614.245 v 2 l -12,13 -4,10 v 4 l -6,4 6,21 -1,1 -2,8 4,7 -7,14 h -1 l 6,16 -8,10 1,3 4,8 v 1 l 12,14 -18,8 9,12 -5,6 8,15 -5,3 -3,11 5,10 -4,1 -14,11 -1,5 5,4 1,3 7,5 6,1 4,2 9,-2 3,-3 7,-3 2,-1 3,-2 11,1 6,4 1,2 1,1 9,1 5,4 9,-2 1,-5 -3,-7 8,-9 h 2 v -1 l 14,-5 v -1 l 12,-3 4,-3 5,-2 2,-7 6,-4 -2,-11 12,2 v 10 l 1,2 -1,9 -3,3 1,8 6,4 7,-7 9,7 2,-5 h 11 l 2,2 11,-4 3,1 14,-16 v -1 l -2,-2 2,-12 -6,-8 1,-9 -13,-10 7,-13 -8,-12 -13,2 -4,-12 2,-4 -6,-20 -2,1 -15,-13 v -4 l -6,-8 -5,-3 -1,-13 v 0 l -23,2 -3,-1 7,-17 -16,-3 -4,3 -12,-4 -7,5 -8,-2 -9,-9 v -2 l -13,-7 -1,-15 h -19"
       clip-path="url(#state-clip7)"
       
       style="fill:none;stroke:#808080;stroke-width:10;stroke-dasharray:none" />
  </g>
</svg>
