<?xml version="1.0" encoding="UTF-8" standalone="no"?>
<svg
   id="fantasyMap"
   width="161.22318"
   height="226.44209"
   version="1.1"
   background-color="#000000"
   viewBox="0 0 161.22318 226.44209"
   xmlns="http://www.w3.org/2000/svg"
   xmlns:svg="http://www.w3.org/2000/svg">
  <defs
     id="defs4389" />
  <g
     id="land_1708199572.7539918"
     style="display:inline"
     transform="translate(-1514.1905,-275.69333)">
    <path
       id="state-border1"
       d="m 1527.8217,288.245 8,-10 6,-2 3,2 5,12 -1,4 1,5 4,3 17,-8 v -1 l 7,-9 3,-1 5,12 9,-1 1,-1 13,4 2,7 h 3 l 8,11 -1,6 10,10 -17,14 6,10 15,-2 7,12 -2,6 v 2 l 15,13 -7,10 5,13 20,-5 1,2 -4,10 5,18 -2,1 -9,13 -7,4 -4,4 2,4 -3,8 -13,12 v 4 l -14,8 -4,9 -16,-17 -11,3 h -1 v 0 l -19,4 -2,5 -19,-12 2,-8 2,-3 6,-2 3,-14 -6,-9 2,-4 -7,-15 5,-8 -4,-6 -4,-14 -1,-1 -1,-19 -6,-5 -2,-5 13,-7 -3,-10 6,-9 -7,-12 -12,2 -2,2 -17,-10 v -8 l -5,-2 6,-17 -1,-2 1,-4 7,-5 v -1"
       clip-path="url(#state-clip1)"
       
       style="fill:none;stroke:#808080;stroke-width:10;stroke-dasharray:none" />
  </g>
</svg>
