<?xml version="1.0" encoding="UTF-8" standalone="no"?>
<svg
   id="fantasyMap"
   width="538.11945"
   height="525.06848"
   version="1.1"
   background-color="#000000"
   viewBox="0 0 538.11945 525.06848"
   xmlns="http://www.w3.org/2000/svg"
   xmlns:svg="http://www.w3.org/2000/svg">
  <defs
     id="defs4389" />
  <g
     id="land_1708199572.7542312"
     style="display:inline"
     transform="translate(-1532.2486,-39.676515)">
    <path
       id="state-border3"
       d="m 1688.8217,50.245 7,-10 4,1 6,12 h 2 l 5,9 v 4 1 l 13,1 -1,11 3,3 v 2 l 4,5 5,2 5,8 14,-4 3,-3 6,-2 5,-8 h 1 l 5,-1 10,6 3,9 4,3 1,4 -1,2 v 9 l 6,4 -4,7 2,4 -2,6 v 0 l -1,8 4,6 h 3 1 l 12,3 1,8 5,5 2,6 v 1 h 7 l 8,6 v 9 l -1,1 -1,10 1,2 11,3 3,-2 13,4 v 2 l 7,20 -3,2 -2,8 4,5 4,2 2,5 7,5 1,3 1,2 -2,14 h 1 v 4 l 5,7 v 3 l 3,4 -1,12 -1,1 1,11 9,5 2,5 3,2 1,10 3,3 5,4 3,1 5,-3 12,1 8,6 v 1 4 l -2,2 -1,14 -3,2 2,14 h 10 l 1,2 13,3 -4,14 v 0 l -6,8 v 3 l 8,5 2,6 -3,4 -5,2 -2,10 7,8 h 8 l 4,-4 3,-2 3,-4 9,-3 9,3 4,-3 10,3 5,-3 7,3 5,-2 6,-6 v -5 l -2,-5 1,-6 19,-2 2,9 1,1 1,9 4,5 v 1 l 5,10 v 0 1 l 4,11 -2,5 3,10 3,2 -1,6 -3,6 -11,-1 h -1 l -10,-3 -5,5 1,3 -5,10 h -5 l -4,2 -5,-1 -4,1 -9,-4 -2,-2 -10,1 -5,-7 -12,-3 v 0 l -6,-2 -3,-7 -3,-3 1,-7 -4,-6 -9,1 v 10 l 1,2 -4,10 2,6 -3,3 -1,1 -5,6 -6,2 -1,5 7,8 h 3 l 8,12 v 0 1 l -10,5 -1,1 -2,1 -10,-2 v 0 l -11,-1 -5,5 3,10 -2,5 h -3 l -11,-3 -7,2 -5,-1 -3,1 h -2 l -8,4 h -7 l -3,3 h -10 l -3,-2 -1,-3 -10,-6 h -3 l -4,-17 h 6 l 12,-13 -3,-3 -4,-13 -2,-2 4,-13 6,-3 -1,-13 -8,-12 -10,3 -4,-9 -2,-3 h -16 l 2,-15 -13,-3 -5,-17 -4,-2 v -17 l -1,-1 v -10 l -12,-11 -1,-4 3,-5 -9,-11 -13,1 5,-19 -6,-4 -2,-4 -6,-2 -6,-22 v 0 l -1,-19 2,-2 v -16 l -2,-2 -2,-4 -21,-5 5,-17 -4,-3 -17,-2 v -1 l -14,6 -10,-19 -7,-1 -4,-17 h -12 l -8,-15 -14,2 -1,-1 2,-16 -15,-2 -7,-7 -7,3 -12,-4 -9,8 -10,-3 1,-20 -8,1 -12,-6 -3,-11 -6,2 -19,-6 3,-16 5,-1 4,-20 7,2 2,5 h 11 l 1,2 10,-1 3,5 h 11 l 4,4 9,1 4,-6 8,-4 2,1 10,-6 v 0 l 4,-1 12,4 v 0 l 8,2 9,-5 2,-2 -7,-6 1,-10 1,-2 6,-1 3,-5 10,1 9,6 8,-1 1,-1 v -2 l -2,-15 1,-1 -4,-9"
       clip-path="url(#state-clip3)"
       
       style="fill:none;stroke:#808080;stroke-width:10;stroke-dasharray:none" />
  </g>
</svg>
