<?xml version="1.0" encoding="UTF-8" standalone="no"?>
<svg
   id="fantasyMap"
   width="492.57541"
   height="471.1402"
   version="1.1"
   background-color="#000000"
   viewBox="0 0 492.57541 471.1402"
   xmlns="http://www.w3.org/2000/svg"
   xmlns:svg="http://www.w3.org/2000/svg">
  <defs
     id="defs4389" />
  <g
     id="land_1708199572.754326"
     style="display:inline"
     transform="translate(-1081.0274,-77.699922)">
    <path
       id="state-border4"
       d="m 1365.8217,87.245 4,-9 15,2 v -1 l 9,-1 7,4 h 1 l 10,6 -2,8 17,1 v -1 l 5,-3 5,-11 h 15 1 l 11,2 h 1 l 6,3 9,-5 5,2 4,-4 10,3 2,5 9,3 1,2 3,2 11,-2 2,-2 12,-2 2,1 1,2 3,3 -4,20 -5,1 -3,16 19,6 6,-2 3,11 12,6 -13,16 -5,-1 -1,18 3,7 -16,11 h -1 l -13,10 -8,-3 -9,3 -1,11 7,5 -2,11 -6,1 -4,-4 -10,2 -3,-1 -6,2 -5,-2 -8,1 -1,-1 -5,-1 -7,-6 v 0 l -9,-7 -3,1 -3,-2 -7,3 -5,-3 -6,4 -10,-4 v 0 l -4,6 1,7 -6,6 -8,-2 -6,5 -6,-8 -8,6 v 5 l -5,3 -1,2 2,7 -3,4 3,11 h 3 l 7,8 v 6 l -1,1 -11,1 -1,1 -15,6 -1,-1 -2,-9 -4,-2 -4,-11 -4,-2 -5,3 -4,10 3,7 v 0 l 2,10 1,1 -2,4 -14,10 v 10 l -2,1 -3,20 -15,-7 -6,7 4,12 -4,4 1,15 -11,7 -1,7 -8,8 5,17 4,2 -2,12 2,11 -2,4 1,1 -13,22 h 1 l 11,8 3,10 3,2 -5,15 v 0 l -7,17 -9,1 v 0 l -1,18 -18,-4 -6,9 -12,-4 -2,-4 -13,-5 -2,-15 -20,1 -1,1 -10,5 -5,11 -17,1 -5,-12 3,-8 -14,-11 3,-13 -22,-3 -2,-5 -21,5 -10,-5 -5,-1 v -5 l 3,-14 -11,-11 11,-7 -8,-13 3,-7 16,7 7,-17 -3,-7 3,-9 9,-1 11,-22 11,3 8,-8 v -10 l -9,-6 12,-15 -5,-4 -16,5 -6,-10 8,-9 h 7 l 6,-15 h 4 l 2,-3 v -12 l 6,-4 6,2 4,10 v 2 l 3,6 8,1 7,-9 4,2 3,9 2,1 2,9 6,1 5,-10 -2,-4 v -2 l -4,-6 6,-8 7,2 2,-2 1,-10 -3,-6 -9,-3 -5,3 h -1 l -2,1 -7,-1 -8,-5 -3,-7 -3,-1 -4,-8 -9,6 v 5 l -7,7 -6,-5 -3,-12 -5,-2 v 0 l -10,-2 -3,-2 v -5 l 5,-7 h 9 l 1,-5 v -2 l 8,-11 4,1 4,-14 -1,-1 -2,-13 1,-2 -1,-6 7,-5 -3,-13 7,-3 5,4 1,5 9,5 4,-1 7,5 h 6 l 4,2 11,-11 -1,-9 -1,-1 h -9 l -5,-10 1,-2 5,-2 3,-5 4,-2 3,-5 5,-2 8,3 v 12 1 l 8,1 8,-9 -1,-6 4,-4 v -4 l 10,-8 -1,-4 9,-7 7,6 -1,4 10,8 -2,6 8,6 -1,12 -5,2 -4,10 -12,2 -2,8 -2,2 -3,10 -2,2 -2,8 6,6 2,1 6,-2 2,-10 4,-2 2,-10 8,-4 h 1 l 8,-6 2,-5 4,-2 4,-2 1,-9 -2,-5 1,-4 4,-3 h 8 l 4,-3 h 6 l 6,-3 4,-1 6,-2 6,2 3,-1 12,3 5,-6 10,6 h 3 l 6,-9 -2,-7 -4,-2 -3,-12 -2,-2 -6,-10 1,-2 -6,-7 m -233,118 2,2 h 9 l 5,-8 -5,-8 -12,3 -2,6 3,5"
       clip-path="url(#state-clip4)"
       
       style="fill:#ffffff;stroke:#000000" />
  </g>
</svg>
