<?xml version="1.0" encoding="UTF-8" standalone="no"?>
<svg
   id="fantasyMap"
   width="747.03864"
   height="742.0788"
   version="1.1"
   background-color="#000000"
   viewBox="0 0 747.03864 742.0788"
   xmlns="http://www.w3.org/2000/svg"
   xmlns:svg="http://www.w3.org/2000/svg">
  <defs
     id="defs4389" />
  <g
     id="land_1708199572.7547932"
     style="display:inline"
     transform="translate(-49.2831,-66.706484)">
    <path
       id="state-border9"
       d="m 170.82173,77.245 2,-4 -1,-2 -10,-4 -5,2 -2,3 -3,9 1,2 -6,10 1,2 -5,12 v 2 l 7,6 v 2 l 7,7 2,6 -3,4 -7,3 -2,4 -7,4 -1,1 1,8 8,2 4,-6 5,1 1,2 -7,10 v 0 l -7,7 v 0 l -9,3 -6,-2 -6,-10 -3,-2 h -1 l -5,-3 h -10 l -4,3 -3,6 6,7 h 7 l 7,12 -2,3 -2,1 -6,9 v 1 l -7,9 h -3 l -8,-10 v -2 l -5,-8 -8,-1 -6,3 -3,9 v 4 l -1,1 v 11 0 l -1,12 5,2 6,-2 6,9 v 2 l 5,5 -1,6 v 1 10 l -3,4 v 6 l 6,6 -1,4 3,7 -5,6 3,11 -3,1 -1,9 -3,4 5,3 -1,11 2,1 1,3 -4,9 -3,2 1,12 1,1 -2,10 2,4 -1,6 -5,5 v 0 l -7,6 -1,6 v 2 l -1,9 v 0 l -4,11 1,4 -5,7 v 4 l -4,5 v 5 l -4,5 2,9 -4,6 1,7 -2,7 4,7 3,1 h 7 l 2,2 7,1 7,11 v 1 l 3,4 v 9 l -6,7 4,8 5,4 1,2 4,3 v 9 l -2,5 1,6 5,4 8,-1 6,5 3,-1 h 1 l 14,-8 1,1 1,16 v 0 l 3,9 v 1 l 2,1 4,9 9,4 7,-3 3,-7 v -5 -2 l 2,-2 2,-10 5,-6 9,1 4,-6 13,3 2,-1 5,6 6,3 2,6 -3,4 5,12 9,-3 3,1 9,-6 2,1 6,7 v 3 l 3,6 1,7 4,2 3,5 6,2 13,-3 2,-2 8,-1 9,2 h 1 l 5,6 7,3 3,8 10,1 4,8 h 3 l 9,9 1,1 h 1 l 1,4 5,6 1,6 9,10 v 2 l 6,7 v 5 l 3,4 1,6 1,2 6,1 7,-7 -3,-7 1,-5 -2,-6 1,-3 2,-2 1,-4 -3,-9 -1,-1 -1,-11 -1,-1 1,-7 5,-8 10,-1 3,-7 3,-1 6,-10 h 1 l 15,-3 2,3 h 11 l 4,-5 7,3 12,-8 v 0 l 2,-2 4,-7 1,-1 1,-2 -2,-14 v 0 l -3,-10 2,-6 5,-4 1,-5 6,-4 9,1 2,1 11,-9 v -3 l 7,-8 h 3 l 5,-4 14,5 1,-1 11,5 2,-1 10,6 4,-2 3,-3 8,-3 8,7 -2,7 v 3 l -4,8 1,3 -8,13 v 0 l -7,-7 -11,2 v 1 l -12,-8 -7,4 v 6 l -8,10 h -7 -1 l -4,-3 -9,-2 -7,3 -3,8 3,8 -1,4 -5,4 -3,-1 -7,7 2,7 -10,6 -2,-1 -5,2 -3,5 7,12 -1,1 7,11 -1,3 2,6 -1,5 2,2 1,10 -1,1 3,8 -5,9 1,2 -10,8 1,6 -8,8 -1,5 h -9 l -1,1 -2,2 -2,10 2,3 12,-5 4,9 -1,2 v 7 l -5,5 5,10 4,1 2,8 6,6 2,1 2,5 4,1 10,-3 4,-8 2,-2 1,-5 9,-4 4,1 7,-12 5,1 7,9 v 1 l 4,3 h 2 l 10,11 v 4 l 11,5 6,-3 2,-6 6,-5 v -3 l 2,-3 11,-3 6,3 2,10 -2,4 v 7 l -7,4 1,14 v 0 l 12,-1 4,-8 2,-1 h 5 v 0 l 11,5 8,-8 h 1 l 4,-9 2,-2 6,1 9,-8 8,1 3,3 3,5 3,1 10,-5 -5,-12 1,-4 -3,-9 -8,-1 -3,-2 h -10 l -10,-5 v 0 -3 l 1,-11 2,-2 1,-1 h 11 l 9,5 6,-4 5,1 9,-6 6,2 9,-9 h 7 l 2,3 1,10 9,3 7,-3 2,-11 4,-5 2,-1 8,5 2,4 -2,10 2,2 16,3 3,-9 -1,-3 3,-6 v -7 l 6,-3 3,-5 8,-1 -2,-16 1,-1 v -1 0 l -2,-14 1,-2 v -2 l 6,-15 h 1 l 8,-13 v -1 l 7,-10 6,-2 4,2 10,-16 v -1 h -11 l -5,7 -7,-5 -1,-10 -3,-4 -10,13 -9,-17 h -1 l -3,-9 v -3 l -5,-8 4,-8 -3,-8 -6,-7 -12,8 -12,-20 -9,3 -7,-4 5,-27 v 0 l 21,-8 -5,-15 -5,-2 -9,-12 -15,19 -5,-1 -4,-11 -7,-3 3,-17 -5,-4 -5,-1 -4,-3 v 0 l -8,-8 -2,-7 2,-5 4,-3 9,-1 -2,-20 -4,-1 -5,-10 8,-5 1,-15 -12,-3 -1,-9 -4,-6 -12,-4 -3,3 -15,-4 -1,-10 -9,-4 6,-15 -16,-1 -1,-14 -1,-1 5,-16 5,-3 7,-1 v -21 l 1,-1 -7,-15 8,-4 18,3 3,-12 13,-3 2,-12 -10,-5 6,-12 14,-3 -13,-15 1,-6 -1,-1 -9,-3 v 0 l -12,-10 -7,2 -3,4 1,4 -1,3 -5,7 v 3 l -5,10 -7,-2 -2,-12 -5,-2 -2,-7 -1,-1 -11,-1 -4,-5 -10,-4 h -3 l -1,-1 -5,-8 v -1 l -5,-8 -4,-2 -2,-8 h -9 l -5,-5 h -4 l -4,-2 -8,-1 v 0 h -12 l -4,-3 h -10 l -3,-3 v -1 l -10,-7 -1,-3 -6,-4 -8,6 1,3 -10,5 -1,6 -8,3 v 4 l -8,7 h -6 l -3,2 h -9 l -5,3 v 0 l -6,-4 -10,4 -9,-5 v 0 l 1,-9 -2,-5 -7,-4 -6,-1 -1,-1 -5,-3 -2,-3 -3,-2 -10,-1 -6,4 -9,-12 -5,13 -9,3 -2,-1 h -1 l -14,-1 -2,-2 -10,-2 v 0 h -1 l -9,-12 1,-6 -4,-4 2,-10 -7,-10 -3,-1 -1,-1 -9,2 -8,-2 -5,3 -8,-4 -6,3 -6,-3 -4,1 -4,8 8,4 -2,10 -6,1 -7,9 -4,1 -3,5 -10,3 v 0 l -4,-5 -12,-1 v -1 l -9,2 v 0 l -4,-1 -6,-11 1,-1 -1,-2 3,-10 -2,-4 8,-10 m 228,634 v 0 l -1,-9 -7,-5 -9,2 -3,7 2,6 2,3 5,1 11,-5"
       clip-path="url(#state-clip9)"
       
       style="fill:#ffffff;stroke:#000000" />
  </g>
</svg>
