<?xml version="1.0" encoding="UTF-8" standalone="no"?>
<svg
   id="fantasyMap"
   width="237"
   height="110.02734"
   version="1.1"
   background-color="#000000"
   xmlns="http://www.w3.org/2000/svg"
   xmlns:svg="http://www.w3.org/2000/svg">
  <defs
     id="defs1393" />
  <g
     id="land_1708772912.5043988"
     style="display:inline"
     transform="translate(-776.323,-64.717653)">
    <path
       id="state-border7"
       d="m 919.823,71.245 1,-1 6,-1 v 0 l 11,-2 v -1 l 9,-1 4,5 v 10 l 8,2 4,-3 h 10 l 1,8 7,6 7,-8 h 10 l 1,-1 6,-2 4,2 4,12 v 1 l -7,3 -2,11 2,2 -1,9 1,2 -10,11 -9,-4 -5,9 -1,11 1,1 -2,10 -10,6 -6,-2 v -6 l -7,-5 -6,5 1,10 -7,4 h -1 l -8,-9 v -1 l -9,-8 v 0 l -5,2 -7,-3 -8,3 -4,-5 -11,3 -1,1 h -10 l -4,-4 -3,-2 -3,-5 -2,-1 -1,-6 4,-11 -6,-6 -3,-1 -6,1 v 0 l -8,-9 v -7 l 12,-6 3,2 10,1 3,-4 v -9 l -3,-5 v 0 l 9,-6 6,7 8,-7 5,2 1,-1 5,-8 12,-1 m -136,32 -6,-2 h -1 v -13 l 4,-6 h 5 l 7,4 -1,4 9,8 8,-5 v 0 l 8,-10 h 2 v -1 l 16,-2 2,13 -2,4 -3,-1 -13,6 -8,-5 -6,13 7,6 -1,3 -10,7 -10,-2 -1,-3 2,-12 -8,-6"
       clip-path="url(#state-clip7)"
       stroke="#508585"
       style="fill:#ffffff;stroke:#000000" />
  </g>
  <text
     xml:space="preserve"
     style="font-weight:600;font-size:14.6667px;font-family:Rajdhani;-inkscape-font-specification:'Rajdhani, Semi-Bold';text-align:center;text-anchor:middle;fill:#ffffff;stroke:#000000;stroke-width:10;paint-order:stroke fill markers"
     x="160.08183"
     y="56.866852"
     id="text9123"><tspan
       id="tspan9121"
       x="160.08183"
       y="56.866852">X</tspan></text>
</svg>
