<?xml version="1.0" encoding="UTF-8" standalone="no"?>
<svg
   id="fantasyMap"
   width="232.03531"
   height="338.31238"
   version="1.1"
   background-color="#000000"
   xmlns="http://www.w3.org/2000/svg"
   xmlns:svg="http://www.w3.org/2000/svg">
  <defs
     id="defs1393" />
  <g
     id="land_1708772912.5051787"
     style="display:inline"
     transform="translate(-909.323,-96.583605)">
    <path
       id="state-border17"
       d="m 1034.823,108.245 3,11 v 2 l 1,1 7,8 3,1 5,13 1,1 3,5 5,2 4,8 8,3 v 5 l -5,9 -5,-1 -5,3 -1,4 6,8 -2,8 4,4 1,5 -6,7 1,7 -8,6 h -1 l -11,8 h -3 l -7,3 -2,11 v 0 l 6,6 8,1 6,-8 6,-1 5,-9 h 8 l 4,-5 7,-1 4,-4 5,-1 8,3 1,4 -6,11 v 1 l -6,6 v 2 l 5,8 h 7 l 5,-4 11,3 2,8 5,3 3,-1 10,2 3,4 2,9 v 0 l 1,4 -3,5 h -9 l -7,14 -7,1 -3,11 -20,7 3,16 -9,6 v 12 l -8,5 1,10 -15,5 v 1 l 9,14 -3,6 1,9 -16,7 -3,14 v 0 l -12,-4 -5,-16 -13,1 -4,-15 -12,1 -8,-13 -4,-2 h -4 l -8,-3 -3,1 -22,-16 -5,1 -5,-9 -10,-1 -7,-8 -16,4 -4,-5 v -1 l 12,-18 -2,-3 2,-16 2,-2 5,-15 h 2 l 4,-21 -7,-3 7,-16 -1,-1 5,-17 7,4 10,-3 2,3 12,-1 v 0 l 9,2 3,-2 11,3 3,-3 h 5 l 5,-7 8,-1 2,-6 -5,-6 -9,3 -3,-2 -8,1 -2,2 -3,2 -13,-7 -7,8 -6,-1 -2,-2 -14,-2 -1,-2 -5,-3 -2,-10 7,-7 v 0 l 9,-6 v -8 l 11,-3 v 0 l 8,-2 2,-3 -3,-10 10,-6 2,-10 -1,-1 1,-11 5,-9 9,4 10,-11 2,1 2,9 4,1 6,-8 -1,-3 1,-2 -2,-10 1,-3 -2,-6 14,-6 4,10 v 1 m 77,48 -3,-6 v -9 l 2,-5 h 1 l 10,1 4,2 v 9 l -5,6 -9,2"
       clip-path="url(#state-clip17)"
       stroke="#78ad43"
       style="fill:#ffffff;stroke:#000000" />
  </g>
  <text
     xml:space="preserve"
     style="font-weight:600;font-size:14.6667px;font-family:Rajdhani;-inkscape-font-specification:'Rajdhani, Semi-Bold';text-align:center;text-anchor:middle;fill:#ffffff;stroke:#000000;stroke-width:10;paint-order:stroke fill markers"
     x="99.484261"
     y="232.23975"
     id="text11281"><tspan
       id="tspan11279"
       x="99.484261"
       y="232.23975">X</tspan></text>
</svg>
