<?xml version="1.0" encoding="UTF-8" standalone="no"?>
<svg
   id="fantasyMap"
   width="134.07492"
   height="165.06029"
   version="1.1"
   background-color="#000000"
   xmlns="http://www.w3.org/2000/svg"
   xmlns:svg="http://www.w3.org/2000/svg">
  <defs
     id="defs1393" />
  <g
     id="land_1708772912.5049014"
     style="display:inline"
     transform="translate(-64.294023,-155.745)">
    <path
       id="state-border14"
       d="m 113.823,156.245 5,3 h 1 l 3,2 6,10 6,2 9,-3 2,3 13,3 4,13 9,1 1,1 -2,16 -5,5 v 10 l 7,5 1,12 15,5 v 10 l 7,5 2,14 -6,3 -1,9 -13,6 -8,-6 -15,9 h -1 l -11,-3 -9,5 -2,13 -11,-2 -5,6 -12,4 -3,-3 -14,6 -5,-3 3,-4 1,-9 3,-1 -3,-11 5,-6 -3,-7 1,-4 -6,-6 v -6 l 3,-4 v -10 -1 l 1,-6 -5,-5 v -2 l -6,-9 -6,2 -5,-2 1,-12 v 0 -11 l 1,-1 v -4 l 3,-9 6,-3 8,1 5,8 v 2 l 8,10 h 3 l 7,-9 v -1 l 6,-9 2,-1 2,-3 -7,-12 h -7 l -6,-7 3,-6 4,-3 h 10"
       clip-path="url(#state-clip14)"
       stroke="#b36159"
       style="fill:#ffffff;stroke:#000000" />
  </g>
  <text
     xml:space="preserve"
     style="font-weight:600;font-size:14.6667px;font-family:Rajdhani;-inkscape-font-specification:'Rajdhani, Semi-Bold';text-align:center;text-anchor:middle;fill:#ffffff;stroke:#000000;stroke-width:10;paint-order:stroke fill markers"
     x="66.859863"
     y="87.432129"
     id="text11083"><tspan
       id="tspan11081"
       x="66.859863"
       y="87.432129">X</tspan></text>
</svg>
