<?xml version="1.0" encoding="UTF-8" standalone="no"?>
<svg
   id="fantasyMap"
   width="398.25598"
   height="389.36646"
   version="1.1"
   background-color="#000000"
   xmlns="http://www.w3.org/2000/svg"
   xmlns:svg="http://www.w3.org/2000/svg">
  <defs
     id="defs1393" />
  <g
     id="land_1708772912.5055878"
     style="display:inline"
     transform="translate(-49.28437,-248.49803)">
    <path
       id="state-border23"
       d="m 197.823,273.245 -6,3 -1,9 -13,6 -8,-6 -15,9 h -1 l -11,-3 -9,5 -2,13 -11,-2 -5,6 -12,4 -3,-3 -14,6 -1,11 2,1 1,3 -4,9 -3,2 1,12 1,1 -2,10 2,4 -1,6 -5,5 v 0 l -7,6 -1,6 v 2 l -1,9 v 0 l -4,11 1,4 -5,7 v 4 l -4,5 v 5 l -4,5 2,9 -4,6 1,7 -2,7 4,7 3,1 h 7 l 2,2 7,1 7,11 v 1 l 3,4 v 9 l -6,7 4,8 5,4 1,2 4,3 v 9 l -2,5 1,6 5,4 8,-1 6,5 3,-1 h 1 l 14,-8 1,1 10,-4 v -13 l 3,-5 v -3 l 9,-6 2,-1 1,-19 12,-1 5,-5 h 3 l 16,-20 6,10 -2,15 15,-1 6,2 9,-4 5,4 18,-8 4,6 h 11 l 8,17 h 2 l 6,17 16,-4 2,7 15,7 2,4 -1,6 22,7 v 8 l 15,8 -7,17 -4,1 -2,13 1,3 10,7 v 1 l 7,11 3,-1 10,4 5,-8 10,-1 3,-7 3,-1 6,-10 v -1 l 5,-14 10,-7 -2,-10 17,-9 1,-2 2,-1 -7,-20 15,-5 4,-7 -2,-8 5,-8 4,-6 2,-2 -18,-17 16,-6 -8,-12 -5,-2 2,-13 -8,-5 -4,-11 1,-3 -2,-4 4,-10 -8,-12 2,-7 -8,-12 7,-12 -20,-10 v -3 l -14,-17 -11,9 -1,-1 -9,-18 1,-5 -5,-8 h -4 l -7,-2 -16,8 -4,-7 -2,-18 -5,-1 -4,-2 -7,-18 -19,9 -1,-1 -4,-2 -9,4 -2,13 -16,-8 -1,1 -14,-15 -1,-6 -19,6 -6,-19 v 0 l -4,-2 v -14 l -4,-8 -14,10 2,14"
       clip-path="url(#state-clip23)"
       stroke="#719b58"
       style="fill:#ffffff;stroke:#000000" />
  </g>
  <text
     xml:space="preserve"
     style="font-weight:600;font-size:14.6667px;font-family:Rajdhani;-inkscape-font-specification:'Rajdhani, Semi-Bold';text-align:center;text-anchor:middle;fill:#ffffff;stroke:#000000;stroke-width:10;paint-order:stroke fill markers"
     x="209.27972"
     y="166.05893"
     id="text10935"><tspan
       id="tspan10933"
       x="209.27972"
       y="166.05893">X</tspan></text>
</svg>
