<?xml version="1.0" encoding="UTF-8" standalone="no"?>
<svg
   id="fantasyMap"
   width="227.25235"
   height="149.08485"
   version="1.1"
   background-color="#000000"
   xmlns="http://www.w3.org/2000/svg"
   xmlns:svg="http://www.w3.org/2000/svg">
  <defs
     id="defs1393" />
  <g
     id="land_1708772912.5044737"
     style="display:inline"
     transform="translate(-1019.2407,-712.7095)">
    <path
       id="state-border8"
       d="m 1066.823,719.245 15,-4 5,2 3,6 h 17 v 0 l 3,11 17,4 1,1 -2,11 6,5 9,3 3,16 h 16 l 2,-3 14,-4 2,1 22,3 1,2 -4,17 17,8 5,-5 25,7 2,2 -12,15 1,2 7,6 v 18 l -5,1 -10,-2 -2,-4 -4,-1 -7,-8 -4,-1 h -5 l -4,3 -2,7 -11,4 -8,-3 -4,2 -6,1 -2,1 h -7 l -5,4 -7,-1 -11,9 h -1 l -4,4 -8,1 v 1 h -2 l -12,-3 -3,-9 h -14 v 1 l -2,6 -7,5 v 0 l -10,-3 -2,-10 -8,-5 -7,3 -2,6 -11,3 -2,3 -13,-8 -1,-8 -7,-7 v -3 l -2,-8 v 0 l 16,-8 -5,-15 2,-3 -11,-17 10,-9 h 1 l 6,-6 v -14 h 17 l 7,-5 -6,-7 9,-13 -1,-4 -21,9 -1,-16 18,-3 6,6"
       clip-path="url(#state-clip8)"
       stroke="#b3674c"
       style="fill:#ffffff;stroke:#000000" />
  </g>
  <text
     xml:space="preserve"
     style="font-weight:600;font-size:14.6667px;font-family:Rajdhani;-inkscape-font-specification:'Rajdhani, Semi-Bold';text-align:center;text-anchor:middle;fill:#ffffff;stroke:#000000;stroke-width:10;paint-order:stroke fill markers"
     x="92.715309"
     y="92.269562"
     id="text9205"><tspan
       id="tspan9203"
       x="92.715309"
       y="92.269562">X</tspan></text>
</svg>
