<?xml version="1.0" encoding="UTF-8" standalone="no"?>
<svg
   id="fantasyMap"
   width="406.2634"
   height="544.03851"
   version="1.1"
   background-color="#000000"
   xmlns="http://www.w3.org/2000/svg"
   xmlns:svg="http://www.w3.org/2000/svg">
  <defs
     id="defs1393" />
  <g
     id="land_1708772912.5043292"
     style="display:inline"
     transform="translate(-138.29653,-66.706484)">
    <path
       id="state-border6"
       d="m 170.823,77.245 2,-4 -1,-2 -10,-4 -5,2 -2,3 -3,9 1,2 -6,10 1,2 -5,12 v 2 l 7,6 v 2 l 7,7 2,6 -3,4 -7,3 -2,4 -7,4 -1,1 1,8 8,2 4,-6 5,1 1,2 -7,10 v 0 l -7,7 v 0 l 2,3 13,3 4,13 9,1 1,1 -2,16 -5,5 v 10 l 7,5 1,12 15,5 v 10 l 7,5 14,-10 4,8 v 14 l 4,2 v 0 l 6,19 19,-6 1,6 14,15 1,-1 16,8 2,-13 9,-4 4,2 1,1 19,-9 7,18 4,2 5,1 2,18 4,7 16,-8 7,2 h 4 l 5,8 -1,5 9,18 1,1 11,-9 14,17 v 3 l 20,10 -7,12 8,12 -2,7 8,12 -4,10 2,4 -1,3 4,11 8,5 -2,13 5,2 8,12 -16,6 18,17 -2,2 -4,6 -5,8 2,8 -4,7 -15,5 7,20 -2,1 -1,2 -17,9 2,10 -10,7 -5,14 v 1 h 1 l 15,-3 2,3 h 11 l 4,-5 7,3 12,-8 v 0 l 2,-2 4,-7 1,-1 1,-2 -2,-14 v 0 l -3,-10 2,-6 5,-4 1,-5 6,-4 9,1 2,1 11,-9 v -3 l 7,-8 h 3 l 5,-4 2,-4 -8,-5 v -7 l -5,-5 10,-9 -6,-13 1,-1 -3,-15 3,-4 -14,-15 v -6 l 27,10 2,-4 -4,-14 7,-15 1,-1 -3,-7 15,-17 h 1 l 4,-3 9,-3 v -17 l 6,-6 -20,-17 2,-5 5,-4 1,-16 -12,-6 6,-13 -16,-8 v -10 l -6,-7 h -9 l -6,-1 -12,5 -5,12 -3,-1 -17,4 h -6 l -4,-18 -1,-1 -4,-16 -18,4 1,-19 h -11 l -3,-4 v -8 l -2,-4 4,-23 -6,-2 -6,-19 5,-3 v -11 l -1,-2 11,-13 -6,-4 -10,4 -9,-5 v 0 l 1,-9 -2,-5 -7,-4 -6,-1 -1,-1 -5,-3 -2,-3 -3,-2 -10,-1 -6,4 -9,-12 -5,13 -9,3 -2,-1 h -1 l -14,-1 -2,-2 -10,-2 v 0 h -1 l -9,-12 1,-6 -4,-4 2,-10 -7,-10 -3,-1 -1,-1 -9,2 -8,-2 -5,3 -8,-4 -6,3 -6,-3 -4,1 -4,8 8,4 -2,10 -6,1 -7,9 -4,1 -3,5 -10,3 v 0 l -4,-5 -12,-1 v -1 l -9,2 v 0 l -4,-1 -6,-11 1,-1 -1,-2 3,-10 -2,-4 8,-10"
       clip-path="url(#state-clip6)"
       stroke="#b39821"
       style="fill:#ffffff;stroke:#000000" />
  </g>
  <text
     xml:space="preserve"
     style="font-weight:600;font-size:14.6667px;font-family:Rajdhani;-inkscape-font-specification:'Rajdhani, Semi-Bold';text-align:center;text-anchor:middle;fill:#ffffff;stroke:#000000;stroke-width:10;paint-order:stroke fill markers"
     x="168.98567"
     y="162.09911"
     id="text9057"><tspan
       id="tspan9055"
       x="168.98567"
       y="162.09911">X</tspan></text>
</svg>
