<?xml version="1.0" encoding="UTF-8" standalone="no"?>
<svg
   id="fantasyMap"
   width="308.62354"
   height="357.25137"
   version="1.1"
   background-color="#000000"
   xmlns="http://www.w3.org/2000/svg"
   xmlns:svg="http://www.w3.org/2000/svg">
  <defs
     id="defs1393" />
  <g
     id="land_1708772912.5054524"
     style="display:inline"
     transform="translate(-1246.8398,-274.57253)">
    <path
       id="state-border21"
       d="m 1431.823,283.245 15,-8 v 0 l 5,9 v 0 l 6,14 8,1 1,1 12,2 1,7 7,3 6,-12 h 2 l 2,-4 7,-2 7,5 9,-1 1,-4 7,-5 v -1 l 8,-10 6,-2 3,2 5,12 -1,4 1,5 -7,5 -5,13 -2,2 3,16 -2,2 v 1 l 2,10 13,6 3,10 -13,7 2,5 -9,21 v 2 l -4,3 -1,19 1,1 2,10 11,1 10,16 -11,5 v 5 l -9,9 5,8 h 16 l -2,8 -2,4 -20,3 v 0 l -4,-1 -12,13 2,7 -6,11 -8,-1 -10,4 -8,-2 -5,3 -5,12 -12,1 -4,19 -13,-7 -9,12 -6,-1 -8,-8 -6,1 -7,6 -3,14 v 0 l -2,14 -12,3 2,18 15,-5 3,5 14,8 -2,8 -11,6 -8,-5 -10,-1 -4,-13 -12,-2 -5,4 h -19 l -3,-4 -25,3 h -3 v -12 l -5,-9 -11,2 -8,-7 -14,9 -5,-6 -20,3 -1,-2 -13,-12 20,-6 v -6 l 16,-6 1,-7 v -1 l 3,-10 -3,-15 19,-5 v -7 l 7,-11 h 5 l 5,2 12,1 6,15 15,-4 8,8 12,1 h 1 l 9,-4 3,-14 22,3 v -19 l -5,-3 v -1 l -18,-21 6,-4 v -21 l 2,-2 -1,-4 -7,-8 -15,4 -2,-1 -1,-13 -11,-8 2,-10 2,-3 -9,-15 v -2 l -5,-11 10,-12 -11,-8 -3,-18 9,-4 -4,-17 13,-4 3,3 9,-1 5,2 h 2 l 5,-2 h 8 v 0 h 1 l 12,-7 4,6 12,-2 2,-8 v 0 l 2,-10 5,-2 1,-4"
       clip-path="url(#state-clip21)"
       stroke="#a16094"
       style="fill:#ffffff;stroke:#000000" />
  </g>
  <text
     xml:space="preserve"
     style="font-weight:600;font-size:14.6667px;font-family:Rajdhani;-inkscape-font-specification:'Rajdhani, Semi-Bold';text-align:center;text-anchor:middle;fill:#ffffff;stroke:#000000;stroke-width:10;paint-order:stroke fill markers"
     x="202.8019"
     y="146.79657"
     id="text11215"><tspan
       id="tspan11213"
       x="202.8019"
       y="146.79657">X</tspan></text>
</svg>
