<?xml version="1.0" encoding="UTF-8" standalone="no"?>
<svg
   id="fantasyMap"
   width="216.17772"
   height="312.15109"
   version="1.1"
   background-color="#000000"
   xmlns="http://www.w3.org/2000/svg"
   xmlns:svg="http://www.w3.org/2000/svg">
  <defs
     id="defs1393" />
  <g
     id="land_1708772912.5040174"
     style="display:inline"
     transform="translate(-1827.2811,-95.626172)">
    <path
       id="state-border2"
       d="m 1885.823,124.245 -2,-16 1,-1 8,-1 4,4 9,1 v 1 l 5,2 8,-1 4,-7 -1,-4 9,-6 5,4 10,-3 1,1 10,2 6,-3 h 1 l 3,4 6,3 3,7 -5,9 -1,1 v 1 l -5,2 -2,9 4,6 h 11 v 0 l 10,8 v 1 l -2,4 -9,4 v 10 l 8,4 h 4 l 6,8 v 5 l 1,3 -1,7 2,4 -3,7 -11,1 -3,2 h -6 l -4,6 -9,2 -5,13 7,4 3,9 7,2 h 7 l 2,1 h 8 l 2,2 1,7 -3,10 7,8 v 1 l 5,7 1,1 v 8 l -5,6 -8,-2 3,-8 -7,-1 -3,-5 -6,-2 -1,-2 -2,-8 -2,-1 -4,-4 -4,-1 -3,-3 -12,2 -2,6 h -6 l -8,7 v 2 l -4,1 -8,-3 -2,-7 -6,-3 -1,-6 -3,-3 -7,-1 -4,-6 -6,-1 -6,-10 -2,-1 -5,-9 -9,2 -7,-20 v -2 h 1 v 0 l 7,-7 1,-12 12,-1 -2,-4 7,-9 -2,-5 1,-5 -2,-4 -2,-2 -1,-2 5,-12 v -3 l 4,-6 v -2 l -6,-7 v 0 m -26,44 1,-9 7,-2 5,5 -3,11 -1,1 -4,-2 -5,-4 m 1,95 14,-14 7,5 1,3 1,2 -2,14 h 1 v 4 l 5,7 v 3 l 3,4 -1,12 -1,1 1,11 9,5 2,5 3,2 1,10 3,3 -15,15 -5,-10 6,-4 -3,-12 h -3 l -3,-12 h -13 l -3,-4 -10,2 -7,-4 h -17 -1 l 1,-8 -7,-15 3,-8 17,5 2,-24 6,-1 5,3 m 75,24 3,-5 14,-1 4,6 1,2 -9,11 -6,1 -7,-14 m 37,58 1,-10 9,-7 8,4 1,12 5,4 1,11 -11,4 -5,-2 -5,-11 -2,-1 -2,-4 m 43,-3 1,-10 8,-5 8,3 v 6 l 6,6 -2,4 -8,5 -8,-3 -3,-5 -2,-1 m 11,33 2,-6 14,6 -3,8 -8,1 -5,-9 m -35,10 -2,4 1,16 h 1 l 6,2 10,-4 v 0 l 13,-5 v -5 l -9,-10 -7,-1 h -1 l -2,1 -10,2"
       clip-path="url(#state-clip2)"
       stroke="#b06345"
       style="fill:#ffffff;stroke:#000000" />
  </g>
  <text
     xml:space="preserve"
     style="font-weight:600;font-size:14.6667px;font-family:Rajdhani;-inkscape-font-specification:'Rajdhani, Semi-Bold';text-align:center;text-anchor:middle;fill:#ffffff;stroke:#000000;stroke-width:10;paint-order:stroke fill markers"
     x="102.12538"
     y="93.007042"
     id="text9090"><tspan
       id="tspan9088"
       x="102.12538"
       y="93.007042">X</tspan></text>
</svg>
