<?xml version="1.0" encoding="UTF-8" standalone="no"?>
<!-- Svg Vector Icons : http://www.onlinewebfonts.com/icon -->

<svg
   version="1.1"
   x="0px"
   y="0px"
   viewBox="0 0 127.42065 222.24367"
   enable-background="new 0 0 256 256"
   xml:space="preserve"
   id="svg10"
   width="127.42065"
   height="222.24367"
   xmlns="http://www.w3.org/2000/svg"
   xmlns:svg="http://www.w3.org/2000/svg"><defs
   id="defs14" />
<metadata
   id="metadata2"> Svg Vector Icons : http://www.onlinewebfonts.com/icon </metadata>
<path
   fill="#000000"
   d="m 31.67839,5.303305 c 0,-2.828427 -2.26274,-5.091169 -5.09117,-5.091169 H 13.29361 C 5.9397,0.212136 0.07071,6.081122 0,13.505744 l 0,63.225715 c 0,2.262742 1.41422,4.242641 3.60625,4.879037 2.82843,0.848528 4.80832,3.394112 4.80832,6.363961 0,2.969848 -1.97989,5.515433 -4.80832,6.363961 C 1.41422,94.974814 0,96.954713 0,99.217455 L 0,208.95006 c 0.0707,7.2832 6.01041,13.2229 13.29361,13.29361 h 13.29361 c 2.82843,0 5.09117,-2.26276 5.09117,-5.09117 0,-1.55565 1.20208,-2.75773 2.75771,-2.75773 1.555637,0 2.757717,1.20208 2.757717,2.75773 0,2.82841 2.26275,5.09117 5.09117,5.09117 h 13.57645 c 2.82843,0 5.09117,-2.26276 5.09117,-5.09117 0,-1.55565 1.20208,-2.75773 2.75772,-2.75773 1.55563,0 2.75771,1.20208 2.75771,2.75773 0,2.82841 2.26275,5.09117 5.09117,5.09117 h 13.57645 c 2.82843,0 5.09117,-2.26276 5.09117,-5.09117 0,-1.55565 1.20208,-2.75773 2.75772,-2.75773 1.55563,0 2.75772,1.20208 2.75772,2.75773 0,2.82841 2.26274,5.09117 5.091163,5.09117 h 13.29361 c 7.35391,0 13.2229,-5.86899 13.29361,-13.29361 l 0,-109.874027 c 0,-2.262741 -1.48493,-4.17193 -3.60625,-4.879036 -2.82842,-0.848529 -4.80832,-3.394113 -4.80832,-6.363962 0,-2.969848 1.9799,-5.515432 4.80832,-6.363961 2.19204,-0.636396 3.60625,-2.616295 3.60625,-4.879036 l -0.0707,-63.296426 c 0,-7.353911 -5.86899,-13.222897 -13.29361,-13.293608 h -13.29361 c -2.828423,0 -5.091173,2.262742 -5.091173,5.091169 0,1.555635 -1.20208,2.757716 -2.75771,2.757716 -1.55564,0 -2.75772,-1.202081 -2.75772,-2.757716 0,-2.828427 -2.26274,-5.091169 -5.09117,-5.091169 h -13.57645 c -2.82842,0 -5.09117,2.262742 -5.09117,5.091169 0,1.555635 -1.20208,2.757716 -2.75771,2.757716 -1.55564,0 -2.75772,-1.202081 -2.75772,-2.757716 0,-2.828427 -2.26274,-5.091169 -5.09117,-5.091169 l -13.50574,0.07071 c -2.82842,0 -5.09117,2.262742 -5.09117,5.091169 0,1.555635 -1.20208,2.757716 -2.757716,2.757716 -1.48492,0.07071 -2.687,-1.131371 -2.75771,-2.616295 z"
   id="path396"
   style="fill:#000000" />
</svg>
