<?xml version="1.0" encoding="UTF-8" standalone="no"?>
<!-- Svg Vector Icons : http://www.onlinewebfonts.com/icon -->

<svg
   version="1.1"
   x="0px"
   y="0px"
   viewBox="0 0 127.42065 222.24367"
   enable-background="new 0 0 256 256"
   xml:space="preserve"
   id="svg10"
   width="127.42065"
   height="222.24367"
   xmlns="http://www.w3.org/2000/svg"
   xmlns:svg="http://www.w3.org/2000/svg"><defs
   id="defs14" />
<metadata
   id="metadata2"> Svg Vector Icons : http://www.onlinewebfonts.com/icon </metadata>
<path
   fill="#000000"
   d="m 20.930365,87.479478 c 0,2.828427 2.262742,5.091169 5.091169,5.091169 h 51.901633 c 2.82843,0 5.09117,-2.262742 5.09117,-5.091169 0,-2.828427 -2.26274,-5.091169 -5.09117,-5.091169 H 26.021534 c -2.828427,0 -5.091169,2.262742 -5.091169,5.091169 z m 22.344572,0 c 0,2.828427 2.26274,5.091169 5.09117,5.091169 h 51.901643 c 2.82843,0 5.09117,-2.262742 5.09117,-5.091169 0,-2.828427 -2.26274,-5.091169 -5.09117,-5.091169 H 48.366107 c -2.75772,0.07071 -5.02046,2.333453 -5.09117,5.091169 z M 31.678388,5.303301 c 0,-2.828427 -2.262742,-5.091169 -5.091169,-5.091169 H 13.293612 C 5.939701,0.212132 0.070715,6.081118 4e-6,13.50574 l 0,63.225715 c 0,2.262742 1.414214,4.242641 3.606245,4.879037 2.828427,0.848528 4.808326,3.394112 4.808326,6.363961 0,2.969848 -1.979899,5.515433 -4.808326,6.363961 C 1.414218,94.97481 4e-6,96.954709 4e-6,99.217451 l 0,109.732609 c 0.07071,7.2832 6.010408,13.2229 13.293608,13.29361 h 13.293607 c 2.828427,0 5.091169,-2.26276 5.091169,-5.09117 0,-1.55565 1.202081,-2.75773 2.757716,-2.75773 1.555633,0 2.757713,1.20208 2.757713,2.75773 0,2.82841 2.26275,5.09117 5.09117,5.09117 h 13.57645 c 2.82843,0 5.09117,-2.26276 5.09117,-5.09117 0,-1.55565 1.20208,-2.75773 2.75772,-2.75773 1.55563,0 2.75771,1.20208 2.75771,2.75773 0,2.82841 2.26275,5.09117 5.09117,5.09117 h 13.57645 c 2.82843,0 5.09117,-2.26276 5.09117,-5.09117 0,-1.55565 1.20208,-2.75773 2.75772,-2.75773 1.55563,0 2.75772,1.20208 2.75772,2.75773 0,2.82841 2.26274,5.09117 5.091163,5.09117 h 13.29361 c 7.35391,0 13.2229,-5.86899 13.29361,-13.29361 l 0,-109.874031 c 0,-2.262741 -1.48493,-4.17193 -3.60625,-4.879036 -2.82842,-0.848529 -4.80832,-3.394113 -4.80832,-6.363962 0,-2.969848 1.9799,-5.515432 4.80832,-6.363961 2.19204,-0.636396 3.60625,-2.616295 3.60625,-4.879036 l -0.0707,-63.296426 C 127.34995,5.939697 121.48096,0.070711 114.05634,0 h -13.29361 c -2.828423,0 -5.091173,2.262742 -5.091173,5.091169 0,1.555635 -1.20208,2.757716 -2.75771,2.757716 -1.55564,0 -2.75772,-1.202081 -2.75772,-2.757716 C 90.156127,2.262742 87.893387,0 85.064957,0 h -13.57645 c -2.82842,0 -5.09117,2.262742 -5.09117,5.091169 0,1.555635 -1.20208,2.757716 -2.75771,2.757716 -1.55564,0 -2.75772,-1.202081 -2.75772,-2.757716 C 60.881907,2.262742 58.619167,0 55.790737,0 l -13.50574,0.07071 c -2.82842,0 -5.09117,2.262742 -5.09117,5.091169 0,1.555635 -1.20208,2.757716 -2.757713,2.757716 C 32.95119,7.990305 31.749109,6.788224 31.678398,5.3033 Z m -9.758074,4.666905 c 1.979899,4.666905 6.576093,7.848885 11.950105,7.848885 5.374008,0 9.899498,-3.252691 11.950108,-7.848885 h 5.51543 c 1.9799,4.666905 6.57609,7.848885 11.9501,7.848885 5.37402,0 9.8995,-3.252691 11.95011,-7.848885 h 5.51543 c 1.9799,4.666905 6.57609,7.848885 11.95011,7.848885 5.37401,0 9.899493,-3.252691 11.950103,-7.848885 h 9.19239 c 1.69706,0 3.04056,1.343503 3.04056,3.040559 l -0.21213,59.902313 c -3.67696,2.121321 -6.36396,5.515433 -7.63676,9.475231 h -8.20244 c -2.828423,0 -5.091163,2.262742 -5.091163,5.091169 0,2.828427 2.26274,5.091169 5.091163,5.091169 h 8.20244 c 1.2728,3.959798 3.88909,7.424621 7.63676,9.475233 l 0,106.47991 c 0,1.69705 -1.34351,3.04055 -3.04056,3.04055 h -9.19239 c -1.9799,-4.66689 -6.576093,-7.84888 -11.950113,-7.84888 -5.37401,0 -9.89949,3.25269 -11.9501,7.84888 h -5.51543 c -1.9799,-4.66689 -6.5761,-7.84888 -11.95011,-7.84888 -5.37401,0 -9.89949,3.25269 -11.9501,7.84888 h -5.51544 c -1.97989,-4.66689 -6.57609,-7.84888 -11.9501,-7.84888 -5.374012,0 -9.899495,3.25269 -11.950105,7.84888 h -9.192388 c -1.697056,0 -3.040559,-1.3435 -3.040559,-3.04055 l 0,-106.47991 c 3.676955,-2.121323 6.363961,-5.515435 7.636753,-9.475233 h 8.202439 c 2.828427,0 5.091169,-2.262742 5.091169,-5.091169 0,-2.828427 -2.262742,-5.091169 -5.091169,-5.091169 H 17.111988 C 15.839196,78.428511 13.222901,74.963688 9.475235,72.913078 l 0,-59.831602 c 0,-1.697057 1.343503,-3.04056 3.040559,-3.04056 z"
   id="path4" />
</svg>
