<?xml version="1.0" encoding="UTF-8" standalone="no"?>
<!-- Created with Inkscape (http://www.inkscape.org/) -->

<svg
   xmlns:dc="http://purl.org/dc/elements/1.1/"
   xmlns:cc="http://creativecommons.org/ns#"
   xmlns:rdf="http://www.w3.org/1999/02/22-rdf-syntax-ns#"
   xmlns:svg="http://www.w3.org/2000/svg"
   xmlns="http://www.w3.org/2000/svg"
   xmlns:sodipodi="http://sodipodi.sourceforge.net/DTD/sodipodi-0.dtd"
   xmlns:inkscape="http://www.inkscape.org/namespaces/inkscape"
   width="55.219173mm"
   height="7.0665874mm"
   viewBox="0 0 195.65849 25.039089"
   id="svg2"
   version="1.1"
   inkscape:version="0.91 r13725"
   sodipodi:docname="callofsuli.svg">
  <defs
     id="defs4" />
  <sodipodi:namedview
     id="base"
     pagecolor="#ffffff"
     bordercolor="#666666"
     borderopacity="1.0"
     inkscape:pageopacity="0.0"
     inkscape:pageshadow="2"
     inkscape:zoom="2.8"
     inkscape:cx="81.16024"
     inkscape:cy="9.761531"
     inkscape:document-units="px"
     inkscape:current-layer="text4136"
     showgrid="false"
     fit-margin-top="0"
     fit-margin-left="0"
     fit-margin-right="0"
     fit-margin-bottom="0"
     inkscape:window-width="1361"
     inkscape:window-height="1021"
     inkscape:window-x="39"
     inkscape:window-y="0"
     inkscape:window-maximized="1" />
  <metadata
     id="metadata7">
    <rdf:RDF>
      <cc:Work
         rdf:about="">
        <dc:format>image/svg+xml</dc:format>
        <dc:type
           rdf:resource="http://purl.org/dc/dcmitype/StillImage" />
        <dc:title></dc:title>
      </cc:Work>
    </rdf:RDF>
  </metadata>
  <g
     inkscape:label="1. réteg"
     inkscape:groupmode="layer"
     id="layer1"
     transform="translate(-210.52455,-290.1998)">
    <g
       style="font-style:normal;font-variant:normal;font-weight:normal;font-stretch:normal;font-size:40px;line-height:125%;font-family:'Major Snafu';-inkscape-font-specification:'Major Snafu, Normal';text-align:start;letter-spacing:0px;word-spacing:0px;writing-mode:lr-tb;text-anchor:start;fill:#000000;fill-opacity:1;stroke:none;stroke-width:1px;stroke-linecap:butt;stroke-linejoin:miter;stroke-opacity:1"
       id="text4136">
      <g
         id="g4167"
         transform="translate(0,-0.009795)">
        <path
           id="path4141"
           d="m 216.79408,315.21936 q -6.26953,0 -6.26953,-6.21094 l 0,-12.53906 q 0,-6.21094 6.23047,-6.21094 l 3.82813,0 0,6.21094 -3.82813,-0.0195 -0.0195,12.53906 3.84766,0 0,6.23047 -3.78907,0 z m 15.60547,-6.17187 0.0195,-1.67969 -6.25,-0.0195 0,1.66015 -3.94531,0 0,6.23047 3.94531,0 q 6.23047,0 6.23047,-6.1914 z m 0,-12.61719 q 0,-6.21094 -6.23047,-6.21094 l -3.94531,0 0,6.25 3.94531,0 0,1.54297 6.25,-0.0195 -0.0195,-1.5625 z"
           inkscape:connector-curvature="0" />
        <path
           id="path4143"
           d="m 233.96205,315.23889 6.67969,-21.32812 4.6875,15.80078 -3.37891,0 -1.73828,5.52734 -6.25,0 z m 15.58594,0 -7.85156,-25 6.25,0 7.85156,25 -6.25,0 z"
           inkscape:connector-curvature="0" />
        <path
           id="path4145"
           d="m 264.04018,290.23889 0,25 -6.25,0 0,-25 6.25,0 z m 15.60547,18.75 0,6.25 -14.04297,0 0,-6.25 14.04297,0 z"
           inkscape:connector-curvature="0" />
        <path
           id="path4147"
           d="m 289.50893,290.23889 0,25 -6.25,0 0,-25 6.25,0 z m 15.60547,18.75 0,6.25 -14.04297,0 0,-6.25 14.04297,0 z"
           inkscape:connector-curvature="0" />
      </g>
      <g
         id="g4173"
         transform="matrix(0.53720271,0,0,0.53720271,143.49084,138.77702)">
        <path
           inkscape:connector-curvature="0"
           id="path4149"
           d="m 304.09829,304.8703 q -3.67418,0 -3.67418,-3.63984 l 0,-7.34836 q 0,-3.63985 3.65129,-3.63985 l 2.24342,0 0,3.63985 -2.24342,-0.0114 -0.0114,7.34836 2.25488,0 0,3.65129 -2.22054,0 z m 9.14539,-3.61695 0,-7.39415 q 0,-3.63984 -3.65129,-3.63984 l -2.3121,0 0,3.66274 2.3121,0 0,7.34836 -2.3121,0 0,3.65129 2.3121,0 q 3.65129,0 3.65129,-3.6284 z" />
        <path
           inkscape:connector-curvature="0"
           id="path4151"
           d="m 315.30397,304.88175 0,-14.65094 3.66274,0 0,5.4941 5.4941,0 0,3.66273 -5.4941,0 0,5.49411 -3.66274,0 z m 4.57842,-10.98821 0,-3.66273 8.22971,0 0,3.66273 -8.22971,0 z" />
      </g>
      <path
         inkscape:connector-curvature="0"
         d="m 324.58705,312.11389 q 0,3.125 3.10547,3.125 l 7.03125,0 0,-6.25 -3.92578,0 0,-3.14453 -6.21094,0 0,6.26953 z m 11.67969,3.08594 7.08984,0 q 3.06641,0 3.06641,-3.08594 l 0,-3.14453 q 0.0391,-3.125 -2.51953,-4.64844 l -13.06641,-7.87109 3.84766,0.0195 0,-6.26953 -6.95313,0 q -3.14453,0 -3.14453,3.14453 l 0,3.14453 q -0.0195,3.08594 2.48047,4.58985 l 13.16406,7.89062 -3.96484,0 0,6.23047 z m 10.19531,-21.85547 q 0,-3.125 -3.16406,-3.125 l -7.01172,0 0,6.25 3.94531,0 0,3.16406 6.25,-0.0195 -0.0195,-6.26953 z"
         id="path4153" />
      <path
         inkscape:connector-curvature="0"
         d="m 356.24721,315.21936 q -6.26953,0 -6.26953,-6.21094 l 0,-18.75 6.23047,0 -0.0195,18.73047 3.84766,0 0,6.23047 -3.78906,0 z m 15.60547,-6.17187 0.0195,-18.84766 -6.25,0 0,18.80859 -3.94531,0 0,6.23047 3.94531,0 q 6.23047,0 6.23047,-6.1914 z"
         id="path4155" />
      <path
         inkscape:connector-curvature="0"
         d="m 381.6183,290.23889 0,25 -6.25,0 0,-25 6.25,0 z m 15.60547,18.75 0,6.25 -14.04297,0 0,-6.25 14.04297,0 z"
         id="path4157" />
      <path
         inkscape:connector-curvature="0"
         d="m 399.93304,315.23889 0,-25 6.25,0 0,25 -6.25,0 z"
         id="path4159" />
    </g>
  </g>
</svg>
