<?xml version="1.0" encoding="utf-8"?>
<!-- Svg Vector Icons : http://www.onlinewebfonts.com/icon -->
<!DOCTYPE svg PUBLIC "-//W3C//DTD SVG 1.1//EN" "http://www.w3.org/Graphics/SVG/1.1/DTD/svg11.dtd">
<svg version="1.1" xmlns="http://www.w3.org/2000/svg" xmlns:xlink="http://www.w3.org/1999/xlink" x="0px" y="0px" viewBox="0 0 256 256" enable-background="new 0 0 256 256" xml:space="preserve">
<metadata> Svg Vector Icons : http://www.onlinewebfonts.com/icon </metadata>
<g><g><path fill="#000000" d="M101,177.1l36.3-36.3c2-2,2-5.2,0-7.2c-2-2-5.2-2-7.2,0l-36.3,36.3c-2,2-2,5.2,0,7.2C95.7,179.1,99,179.1,101,177.1z M86.1,162.3l23.6-23.6c2-2,2-5.2,0-7.2c-2-2-5.2-2-7.2,0l-23.6,23.6c-2,2-2,5.2,0,7.2C80.9,164.2,84.1,164.2,86.1,162.3z M159.8,52.3c-2,2-2,5.2,0,7.2l36.7,36.7c2,2,5.2,2,7.2,0c2-2,2-5.2,0-7.2l-36.6-36.7C165.1,50.4,161.8,50.4,159.8,52.3z M133,62.5c-2,2-2,5.2,0,7.2l36.7,36.7c2,2,5.2,2,7.2,0c2-2,2-5.2,0-7.2l-36.7-36.7C138.2,60.5,135,60.5,133,62.5z M148.8,78.3c-2,2-2,5.2,0,7.2l36.7,36.7c2,2,5.2,2,7.2,0c2-2,2-5.2,0-7.2L156,78.3C154,76.4,150.8,76.4,148.8,78.3z M180.2,30.5c2-2,2-5.2,0-7.2l-9.4-9.4c-5.2-5.2-13.5-5.2-18.8,0l-26.2,26.2c-1.6,1.6-2,4-0.9,6c1.4,2.6,1,5.8-1.1,7.9s-5.3,2.5-7.9,1.1c-2-1.1-4.4-0.7-6,0.9l-96.1,96.1c-5.1,5.2-5.1,13.6,0,18.8l9.4,9.4c2,2,5.2,2,7.2,0c1.1-1.1,2.8-1.1,3.9,0c1.1,1.1,1.1,2.8,0,3.9c-2,2-2,5.2,0,7.2l9.6,9.6c2,2,5.2,2,7.2,0c1.1-1.1,2.8-1.1,3.9,0c1.1,1.1,1.1,2.8,0,3.9c-2,2-2,5.2,0,7.2l9.6,9.6c2,2,5.2,2,7.2,0c1.1-1.1,2.8-1.1,3.9,0c1.1,1.1,1.1,2.8,0,3.9c-2,2-2,5.2,0,7.2l9.4,9.4c5.2,5.2,13.5,5.2,18.8,0l96.2-96.2c1.6-1.6,1.9-4,0.9-6c-1.4-2.6-1-5.8,1.1-7.9c2.1-2.1,5.3-2.5,7.9-1.1c2,1.1,4.4,0.7,6-0.9l26.2-26.3c5.2-5.2,5.2-13.5,0-18.8l-9.4-9.4c-2-2-5.2-2-7.2,0c-1.1,1.1-2.8,1.1-3.9,0c-1.1-1.1-1.1-2.8,0-3.9c2-2,2-5.2,0-7.2l-9.6-9.6c-2-2-5.2-2-7.2,0c-1.1,1.1-2.8,1.1-3.9,0c-1.1-1.1-1.1-2.8,0-3.9c2-2,2-5.2,0-7.2l-9.6-9.5c-2-2-5.2-2-7.2,0c-1.1,1.1-2.8,1.1-3.9,0C179.2,33.3,179.2,31.6,180.2,30.5z M170,26.9c-1.9,4.7-0.9,10.2,2.9,14c3.8,3.8,9.3,4.7,14,2.9l3.9,3.9c-1.9,4.7-0.9,10.2,2.9,14c3.8,3.8,9.3,4.7,14,2.9l3.9,3.9c-1.9,4.7-0.9,10.2,2.9,14c3.8,3.8,9.3,4.7,14,2.9l6.5,6.5c1.2,1.2,1.2,3.1,0,4.3L211,119.9c-4.1-1.1-8.4-0.6-12.1,1.3l-5.8-5.8c-2-2-5.2-2-7.2,0c-2,2-2,5.2,0,7.2l5.8,5.8c-1.9,3.7-2.5,8-1.3,12.1l-93.8,93.8c-1.2,1.2-3.1,1.2-4.3,0l-6.5-6.5c1.9-4.7,0.9-10.2-2.9-14c-3.8-3.8-9.3-4.7-14-2.9L65,207c1.9-4.7,0.9-10.2-2.9-14c-3.8-3.8-9.3-4.7-14-2.9l-3.9-3.9c1.9-4.7,0.9-10.2-2.9-14c-3.8-3.8-9.3-4.7-14-2.9l-6.5-6.5c-1.2-1.2-1.2-3.1,0-4.3l93.8-93.8c4.1,1.1,8.4,0.6,12.1-1.3l5.8,5.8c2,2,5.2,2,7.2,0c2-2,2-5.2,0-7.2l-5.8-5.8c1.9-3.7,2.5-8,1.3-12.1l23.8-23.8c1.2-1.2,3.1-1.2,4.3,0L170,26.9z M112.5,84.1l-68.3,68.3c-2,2-2,5.2,0,7.2l52.2,52.2c2,2,5.2,2,7.2,0l68.3-68.3c2-2,2-5.2,0-7.2l-52.2-52.2C117.8,82.1,114.5,82.1,112.5,84.1z M161.2,139.9L100.1,201L55,156l61.1-61.1L161.2,139.9z"/></g></g>
</svg>