<?xml version="1.0" encoding="iso-8859-1"?>
<!-- Generator: Adobe Illustrator 18.0.0, SVG Export Plug-In . SVG Version: 6.00 Build 0)  -->
<!DOCTYPE svg PUBLIC "-//W3C//DTD SVG 1.1//EN" "http://www.w3.org/Graphics/SVG/1.1/DTD/svg11.dtd">
<svg version="1.1" id="Capa_1" xmlns="http://www.w3.org/2000/svg" xmlns:xlink="http://www.w3.org/1999/xlink" x="0px" y="0px"
	 viewBox="0 0 297 297" style="enable-background:new 0 0 297 297;" xml:space="preserve">
<g>
	<path d="M158.384,35.089V9.884c0-5.458-4.426-9.884-9.884-9.884s-9.884,4.426-9.884,9.884v25.205
		c3.259-0.282,6.554-0.435,9.884-0.435S155.125,34.807,158.384,35.089z"/>
	<path d="M138.616,261.911v25.205c0,5.458,4.426,9.884,9.884,9.884s9.884-4.426,9.884-9.884v-25.205
		c-3.259,0.282-6.554,0.435-9.884,0.435S141.875,262.193,138.616,261.911z"/>
	<path d="M287.116,138.616h-25.204c0.281,3.259,0.434,6.554,0.434,9.884s-0.152,6.625-0.434,9.884h25.204
		c5.458,0,9.884-4.426,9.884-9.884S292.574,138.616,287.116,138.616z"/>
	<path d="M35.088,138.616H9.884C4.426,138.616,0,143.042,0,148.5s4.426,9.884,9.884,9.884h25.204
		c-0.281-3.259-0.434-6.554-0.434-9.884S34.807,141.875,35.088,138.616z"/>
	<path d="M138.616,89.442V35.092C83.712,39.836,39.832,83.711,35.088,138.616h54.354C93.633,113.5,113.5,93.633,138.616,89.442z"/>
	<path d="M183.154,138.616h8.289c-3.77-16.377-16.683-29.29-33.06-33.06v8.289c0,5.458-4.426,9.884-9.884,9.884
		s-9.884-4.426-9.884-9.884v-8.289c-16.377,3.77-29.29,16.683-33.06,33.06h8.289c5.458,0,9.884,4.426,9.884,9.884
		s-4.426,9.884-9.884,9.884h-8.289c3.77,16.377,16.683,29.29,33.06,33.06v-8.289c0-5.458,4.426-9.884,9.884-9.884
		s9.884,4.426,9.884,9.884v8.289c16.377-3.77,29.29-16.683,33.06-33.06h-8.289c-5.458,0-9.884-4.426-9.884-9.884
		S177.696,138.616,183.154,138.616z M148.5,165.07c-9.137,0-16.57-7.434-16.57-16.57s7.434-16.57,16.57-16.57
		s16.57,7.434,16.57,16.57S157.637,165.07,148.5,165.07z"/>
	<path d="M158.384,35.092v54.351c25.116,4.19,44.983,24.058,49.174,49.174h54.355C257.168,83.712,213.288,39.836,158.384,35.092z"/>
	<path d="M158.384,207.558v54.351c54.904-4.744,98.784-48.62,103.528-103.524h-54.355C203.367,183.5,183.5,203.367,158.384,207.558z
		"/>
	<path d="M138.616,207.558c-25.116-4.19-44.983-24.058-49.174-49.174H35.088c4.744,54.905,48.624,98.78,103.528,103.524V207.558z"/>
</g>
<g>
</g>
<g>
</g>
<g>
</g>
<g>
</g>
<g>
</g>
<g>
</g>
<g>
</g>
<g>
</g>
<g>
</g>
<g>
</g>
<g>
</g>
<g>
</g>
<g>
</g>
<g>
</g>
<g>
</g>
</svg>
