<?xml version="1.0" encoding="iso-8859-1"?>
<!-- Generator: Adobe Illustrator 19.0.0, SVG Export Plug-In . SVG Version: 6.00 Build 0)  -->
<svg version="1.1" id="Layer_1" xmlns="http://www.w3.org/2000/svg" xmlns:xlink="http://www.w3.org/1999/xlink" x="0px" y="0px"
	 viewBox="0 0 503.607 503.607" style="enable-background:new 0 0 503.607 503.607;" xml:space="preserve">
<g>
	<g>
		<g>
			<path d="M243.407,134.723V50.571C139.001,54.876,54.882,139.004,50.576,243.41h84.144
				C138.859,185.319,185.316,138.853,243.407,134.723z"/>
			<path d="M134.723,260.199H50.57c4.306,104.406,88.433,188.525,192.839,192.831v-84.144
				C185.319,364.748,138.853,318.29,134.723,260.199z"/>
			<path d="M368.883,243.406h84.153C448.73,139,364.603,54.881,260.197,50.576v84.144
				C318.288,138.858,364.754,185.315,368.883,243.406z"/>
			<path d="M352.097,260.197h-24.752c-4.633,0-8.393-3.752-8.393-8.393c0-4.642,3.76-8.393,8.393-8.393h24.752
				c-4.054-48.841-43.058-87.846-91.9-91.9v24.752c0,4.642-3.76,8.393-8.393,8.393c-4.633,0-8.393-3.752-8.393-8.393V151.51
				c-48.841,4.054-87.846,43.058-91.9,91.9h24.752c4.633,0,8.393,3.752,8.393,8.393c0,4.642-3.76,8.393-8.393,8.393H151.51
				c4.054,48.841,43.058,87.846,91.9,91.9v-24.752c0-4.642,3.76-8.393,8.393-8.393c4.633,0,8.393,3.752,8.393,8.393v24.752
				C309.038,348.042,348.042,309.038,352.097,260.197z M251.803,268.59c-9.275,0-16.787-7.521-16.787-16.787
				c0-9.275,7.512-16.787,16.787-16.787c9.275,0,16.787,7.512,16.787,16.787C268.59,261.07,261.078,268.59,251.803,268.59z"/>
			<path d="M251.803,0C112.959,0,0,112.959,0,251.803s112.959,251.803,251.803,251.803s251.803-112.959,251.803-251.803
				S390.648,0,251.803,0z M251.803,470.033c-120.328,0-218.229-97.893-218.229-218.229s97.901-218.23,218.229-218.23
				s218.23,97.893,218.23,218.23S372.132,470.033,251.803,470.033z"/>
			<path d="M260.2,368.883v84.153c104.406-4.306,188.525-88.433,192.831-192.839h-84.144
				C364.749,318.288,318.291,364.754,260.2,368.883z"/>
		</g>
	</g>
</g>
<g>
</g>
<g>
</g>
<g>
</g>
<g>
</g>
<g>
</g>
<g>
</g>
<g>
</g>
<g>
</g>
<g>
</g>
<g>
</g>
<g>
</g>
<g>
</g>
<g>
</g>
<g>
</g>
<g>
</g>
</svg>
