<?xml version="1.0" encoding="UTF-8" standalone="no"?>
<svg
   id="fantasyMap"
   width="2600"
   height="1200"
   version="1.1"
   background-color="#000000"
   sodipodi:docname="Feresia 2024-01-20-16-32.svg"
   inkscape:version="1.2.2 (b0a8486541, 2022-12-01)"
   xmlns:inkscape="http://www.inkscape.org/namespaces/inkscape"
   xmlns:sodipodi="http://sodipodi.sourceforge.net/DTD/sodipodi-0.dtd"
   xmlns="http://www.w3.org/2000/svg"
   xmlns:svg="http://www.w3.org/2000/svg">
  <sodipodi:namedview
     id="namedview1025"
     pagecolor="#ffffff"
     bordercolor="#000000"
     borderopacity="0.25"
     inkscape:showpageshadow="2"
     inkscape:pageopacity="0.0"
     inkscape:pagecheckerboard="0"
     inkscape:deskcolor="#d1d1d1"
     showgrid="false"
     inkscape:zoom="0.78666667"
     inkscape:cx="1446.6102"
     inkscape:cy="718.22034"
     inkscape:window-width="2520"
     inkscape:window-height="1411"
     inkscape:window-x="0"
     inkscape:window-y="0"
     inkscape:window-maximized="1"
     inkscape:current-layer="States_1705768885.6966503" />
  <defs
     id="defs115" />
  <g
     inkscape:label="States_1705768885.6956155"
     inkscape:groupmode="layer"
     id="States_1705768885.6956155">
    <path
       id="state-border1"
       d="M1951,668L1945,690L1945,690L1942,698L1956,716L1954,719L1939,723L1934,722L1930,723L1923,738L1926,744L1936,744L1946,759L1946,759L1959,766L1968,758L1968,757L1974,751L1979,750L1988,743L1988,742L1996,739L1998,739L2004,735L2007,735L2017,741L2018,744L2021,746L2031,746L2034,743L2041,743L2049,739L2041,725L2029,721L2029,717L2021,707L2018,705L2015,702L2011,689L2009,687L1996,690L1991,687L1988,675L1983,672L1979,668L1967,672L1957,666L1951,668"
       clip-path="url(#state-clip1)"
       stroke="#478873"
       style="fill:#ffffff" />
  </g>
  <g
     inkscape:label="States_1705768885.6957178"
     inkscape:groupmode="layer"
     id="States_1705768885.6957178">
    <path
       id="state-border2"
       d="M1528,269L1532,260L1547,262L1547,261L1556,260L1563,264L1564,264L1574,270L1572,278L1589,279L1589,278L1594,275L1599,264L1614,264L1615,264L1626,266L1627,266L1633,269L1642,264L1647,266L1651,262L1661,265L1663,270L1672,273L1673,275L1676,277L1687,275L1689,273L1701,271L1703,272L1704,274L1707,277L1703,297L1698,298L1695,314L1714,320L1720,318L1723,329L1735,335L1722,351L1733,357L1733,373L1728,378L1729,390L1733,394L1728,411L1729,413L1729,414L1734,423L1713,432L1710,428L1701,427L1696,430L1687,426L1683,427L1676,423L1670,424L1666,420L1656,422L1653,421L1647,423L1642,421L1634,422L1633,421L1628,420L1621,414L1616.5,410.5L1612,407L1609,408L1606,406L1599,409L1594,406L1588,410L1578,406L1576,409L1574,412L1575,419L1569,425L1561,423L1555,428L1549,420L1541,426L1541,431L1536,434L1535,436L1525,438L1518,430L1515,422L1503,423L1498,427L1491,425L1474,439L1474,439L1471,436L1448,436L1447,430L1434,424L1424,432L1415,430L1407,419L1403,418L1399,403L1381,410L1375,400L1358,409L1356,407L1340,408L1335,403L1325,411L1320,407L1324,393L1323,392L1321,379L1322,377L1321,371L1328,366L1325,353L1332,350L1337,354L1338,359L1347,364L1351,363L1358,368L1364,368L1368,370L1379,359L1378,350L1377,349L1368,349L1363,339L1364,337L1369,335L1372,330L1376,328L1379,323L1384,321L1392,324L1392,336L1392,337L1400,338L1408,329L1407,323L1411,319L1411,315L1421,307L1420,303L1429,296L1436,302L1435,306L1445,314L1443,320L1451,326L1450,338L1445,340L1441,350L1429,352L1427,360L1425,362L1422,372L1420,374L1418,382L1424,388L1426,389L1432,387L1434,377L1438,375L1440,365L1448,361L1449,361L1457,355L1459,350L1463,348L1467,346L1468,337L1466,332L1467,328L1471,325L1479,325L1483,322L1489,322L1495,319L1499,318L1505,316L1511,318L1514,317L1526,320L1531,314L1541,320L1544,320L1550,311L1548,304L1544,302L1541,290L1539,288L1533,278L1534,276L1528,269M1295,387L1297,389L1306,389L1311,381L1306,373L1294,376L1292,382L1295,387"
       clip-path="url(#state-clip2)"
       stroke="#b06345"
       style="fill:#ffffff" />
  </g>
  <g
     inkscape:label="States_1705768885.6957927"
     inkscape:groupmode="layer"
     id="States_1705768885.6957927">
    <path
       id="state-border3"
       d="M333,259L335,255L334,253L324,249L319,251L317,254L314,263L315,265L309,275L310,277L305,289L305,291L312,297L312,299L319,306L321,312L318,316L311,319L309,323L302,327L301,328L302,336L310,338L314,332L319,333L320,335L313,345L313,345L306,352L306,352L297,355L291,353L285,343L282,341L281,341L276,338L266,338L262,341L259,347L265,354L272,354L279,366L277,369L275,370L269,379L269,380L262,389L259,389L251,379L251,377L246,369L238,368L232,371L229,380L229,384L228,385L228,396L228,396L227,408L232,410L238,408L244,417L244,419L249,424L248,430L248,431L248,441L245,445L245,451L251,457L250,461L253,468L248,474L251,485L248,486L247,495L244,499L249,502L248,513L250,514L251,517L247,526L244,528L245,540L246,541L244,551L246,555L245,561L240,566L240,566L233,572L232,578L232,580L231,589L231,589L227,600L228,604L223,611L223,615L219,620L219,625L215,630L217,639L213,645L214,652L212,659L216,666L219,667L226,667L228,669L235,670L242,681L242,682L245,686L245,695L239,702L243,710L248,714L249,716L253,719L253,728L251,733L252,739L257,743L265,742L271,747L274,746L275,746L289,738L290,739L291,755L291,755L294,764L294,765L296,766L300,775L309,779L316,776L319,769L319,764L319,762L321,760L323,750L328,744L337,745L341,739L354,742L356,741L357,736L363,730L370,727L372,723L392,729L395,707L395,706L390,688L408,680L408,676L427,665L427,665L436,641L445,660L456,651L465,668L475,665L478,659L480,658L475,633L477,630L477,628L496,619L497,616L497,604L497,604L512,603L519,581L521,581L527,572L522,561L535,545L535,545L546,536L548,532L565,527L567,519L572,512L563,498L573,490L564,477L565,476L560,460L556,458L552,445L568,439L571,427L582,427L591,426L592,423L592,420L585,406L604,398L602,390L616,381L615,368L617,364L617,362L640,347L636,340L637,337L648,330L650,317L647,314L647,313L637,306L636,303L630,299L622,305L623,308L613,313L612,319L604,322L604,326L596,333L590,333L587,335L578,335L573,338L573,338L567,334L557,338L548,333L548,333L549,324L547,319L540,315L534,314L533,313L528,310L526,307L523,305L513,304L507,308L498,296L493,309L484,312L482,311L481,311L467,310L465,308L455,306L455,306L454,306L445,294L446,288L442,284L444,274L437,264L434,263L433,262L424,264L416,262L411,265L403,261L397,264L391,261L387,262L383,270L391,274L389,284L383,285L376,294L372,295L369,300L359,303L359,303L355,298L343,297L343,296L334,298L334,298L330,297L324,286L325,285L324,283L327,273L325,269L333,259"
       clip-path="url(#state-clip3)"
       stroke="#63708e"
       style="fill:#ffffff" />
  </g>
  <g
     inkscape:label="States_1705768885.695862"
     inkscape:groupmode="layer"
     id="States_1705768885.695862">
    <path
       id="state-border4"
       d="M2117,295L2119,282L2125,279L2126,279L2129,283L2135,286L2138,293L2133,302L2132,303L2132,304L2127,306L2125,315L2129,321L2140,321L2140,321L2150,329L2150,330L2148,334L2139,338L2139,348L2147,352L2151,352L2157,360L2157,365L2158,368L2157,375L2159,379L2156,386L2145,387L2142,389L2136,389L2132,395L2123,397L2118,410L2125,414L2128,423L2135,425L2142,425L2144,426L2152,426L2154,428L2155,435L2152,445L2159,453L2159,454L2164,461L2165,462L2165,470L2160,476L2152,474L2155,466L2148,465L2145,460L2139,458L2138,456L2136,448L2134,447L2130,443L2126,442L2123,439L2111,441L2109,447L2103,447L2095,454L2095,456L2091,457L2083,454L2081,447L2075,444L2074,438L2071,435L2064,434L2060,428L2054,427L2048,417L2046,416L2041,407L2032,409L2025,389L2025,387L2026,387L2026,387L2033,380L2034,368L2046,367L2049,371L2060,369L2061,367L2078,363L2079,357L2099,349L2100,342L2114,338L2117,330L2112,320L2106,316L2109,310L2109,300L2112,296L2117,295M2098,469L2101,464L2115,463L2119,469L2120,471L2111,482L2105,483L2098,469M2135,527L2136,517L2145,510L2153,514L2154,526L2159,530L2160,541L2149,545L2144,543L2139,532L2137,531L2135,527M2178,524L2179,514L2187,509L2195,512L2195,518L2201,524L2199,528L2191,533L2183,530L2180,525L2178,524M2189,557L2191,551L2205,557L2202,565L2194,566L2189,557M2154,567L2152,571L2153,587L2154,587L2160,589L2170,585L2170,585L2183,580L2183,575L2174,565L2167,564L2166,564L2164,565L2154,567"
       clip-path="url(#state-clip4)"
       stroke="#a26189"
       style="fill:#ffffff" />
  </g>
  <g
     inkscape:label="States_1705768885.6959295"
     inkscape:groupmode="layer"
     id="States_1705768885.6959295">
    <path
       id="state-border5"
       d="M1797,457L1787,453L1775,462L1771,460L1758,473L1758,475L1757,476L1748,477L1743,465L1740,466L1736.5,471L1733,476L1716,484L1718,487L1726,492L1731,503L1730,503L1745,517L1744,525L1746,527L1765,525L1767,524L1776,527L1782,537L1797,535L1804,547L1802,553L1802,555L1817,568L1821,567L1832,570L1837,580L1857,576L1861,569L1861,569L1880,586L1883,584L1886,564L1890,562L1894,563L1909,580L1924,569L1932,579L1942,581L1943,582L1939,603L1945,606L1945,620L1961,623L1960,640L1977,639L1981,651L1983,653L1979,668L1983,672L1988,675L1991,687L1996,690L2009,687L2011,689L2015,702L2018,705L2021,707L2029,717L2029,721L2041,725L2049,739L2051,739L2054,738L2059,739L2066,737L2077,740L2080,740L2082,735L2079,725L2084,720L2095,721L2095,721L2105,723L2107,722L2108,721L2118,716L2118,715L2118,715L2110,703L2107,703L2100,695L2101,690L2107,688L2112,682L2113,681L2116,678L2114,672L2118,662L2117,660L2117,650L2126,649L2130,655L2129,662L2132,665L2135,672L2141,674L2141,674L2153,677L2158,684L2168,683L2170,685L2179,689L2183,688L2188,689L2192,687L2197,687L2202,677L2201,674L2206,669L2216,672L2217,672L2228,673L2231,667L2232,661L2229,659L2226,649L2228,644L2224,633L2224,632L2224,632L2219,622L2219,621L2215,616L2214,607L2213,606L2211,597L2211,597L2208,584L2200,583L2190,590L2190,593L2192,599L2191,605L2193,610L2193,615L2187,621L2182,623L2175,620L2170,623L2160,620L2156,623L2147,620L2138,623L2135,627L2132,629L2128,633L2120,633L2113,625L2115,615L2120,613L2123,609L2121,603L2113,598L2113,595L2119,587L2119,587L2123,573L2110,570L2109,568L2099,568L2097,554L2100,552L2101,538L2103,536L2103,532L2103,531L2095,525L2083,524L2078,527L2075,526L2070,522L2067,519L2066,509L2063,507L2061,502L2052,497L2051,486L2052,485L2053,473L2050,469L2033,481L2031,479L2016,471L2015,470L1997,485L1990,470L1993,462L1992,457L1976,454L1974,455L1956,454L1955,455L1944,459L1935,452L1936,440L1923,434L1921,434L1910,438L1907,448L1886,443L1886,444L1870,441L1869,442L1856,443L1853,446L1835,440L1829,447L1822,449L1814,441L1811,440L1797,457M2102,894L2103,896L2102,897L2105,906L2109,908L2107,917L2120,917L2121,915L2118,908L2119,905L2117,895L2118,894L2117,884L2115,883L2104,883L2103,884L2102,894"
       clip-path="url(#state-clip5)"
       stroke="#74973b"
       style="fill:#ffffff" />
  </g>
  <g
     inkscape:label="States_1705768885.6959956"
     inkscape:groupmode="layer"
     id="States_1705768885.6959956">
    <path
       id="state-border6"
       d="M1697,581L1713,582L1714,583L1718,597L1722,603L1726,603L1734,594L1749,603L1744,616L1765,615L1768,622L1767,634L1773,634L1784,639L1786,652L1793,653L1801,662L1814,650L1818,665L1816,667L1822,682L1809,683L1807,686L1810,705L1806,707L1802,721L1798,724L1799,738L1804,743L1793,755L1800,764L1802,772L1787,780L1789,790L1779,799L1768,793L1761,798L1755,795L1742,799L1741,809L1734,812L1734,826L1724,831L1715,824L1713,825L1695,832L1691,830L1687,830L1679,826L1661,830L1661,831L1647,827L1643,845L1626,846L1626,846L1624,833L1608,830L1607,830L1591,827L1595,815L1587,807L1589,799L1575,791L1572,786L1557,791L1555,773L1548,770L1543,758L1542,758L1540,755L1520,749L1514,768L1502,765L1497,761L1496,747L1518,746L1520,739L1532,732L1535,731L1539,726L1556,730L1559,727L1552,708L1568,705L1572,701L1572,697L1594,693L1594,693L1604,678L1605,674L1625,680L1626,678L1627,657L1637,654L1645,658L1660,650L1664,652L1684,649L1683,641L1673,630L1679,622L1668,609L1672,602L1692,603L1693,584L1697,581"
       clip-path="url(#state-clip6)"
       stroke="#b39821"
       style="fill:#ffffff" />
  </g>
  <g
     inkscape:label="States_1705768885.6960583"
     inkscape:groupmode="layer"
     id="States_1705768885.6960583">
    <path
       id="state-border7"
       d="M1356,691L1358,703L1357,704L1366,721L1358,732L1357,732L1343,748L1350,760L1356,762L1358,761L1369,779L1376,780L1385,763L1400,766L1407,760L1408,760L1416,741L1430,749L1446,743L1451,754L1463,758L1463,769L1471,776L1482,774L1487,783L1487,795L1490,795L1506,811L1502,821L1502,825L1496,829L1502,850L1501,851L1499,859L1503,866L1496,880L1518,883L1511,897L1516,903L1514,912L1522,922L1520,934L1519,936L1516,951L1536,957L1537,959L1539,963L1518,977L1519,982L1513,993L1522,1002L1520,1009L1526,1020L1524,1021L1517,1024L1514,1027L1505,1029L1501,1027L1495,1026L1488,1021L1487,1018L1482,1014L1483,1009L1480,1004L1483,995L1480,990L1474,991L1468,999L1468,1000L1465,1003L1466,1010L1462,1017L1464,1022L1463,1025L1453,1029L1446,1026L1445,1025L1440,1024L1438,1022L1431,1023L1429,1024L1417,1025L1415,1024L1408,1026L1404,1025L1399,1026L1389,1024L1387,1020L1383,1019L1376,1011L1372,1010L1367,1010L1363,1013L1361,1020L1350,1024L1342,1021L1338,1023L1332,1024L1330,1025L1323,1025L1318,1029L1311,1028L1300,1037L1299,1037L1295,1041L1287,1042L1287,1043L1285,1043L1273,1040L1270,1031L1256,1031L1256,1032L1254,1038L1247,1043L1247,1043L1237,1040L1235,1030L1227,1025L1220,1028L1218,1034L1207,1037L1205,1040L1204,1048L1201,1052L1200,1057L1191,1063L1181,1058L1178,1051L1173,1049L1169,1051L1167,1057L1157,1063L1169,1069L1171,1081L1165,1084L1153,1076L1149,1067L1150,1063L1149,1060L1149,1060L1146,1049L1142,1045L1132,1043L1132,1043L1123,1038L1114,1046L1109,1045L1105,1035L1098,1033L1097,1030L1085,1026L1080,1031L1076,1031L1073,1030L1072,1028L1071,1020L1068,1018L1068,1010L1065,1007L1054,1008L1051,1011L1045,1010L1040,1006L1035,1005L1030,1002L1026,992L1025,992L1021,991L1013,985L1006,986L1004,999L1004,999L1002,1007L988,1010L988,1009L986,997L986,997L982,985L977,982L975,975L966,973L963,967L956,966L948,971L947,975L942,977L933,973L933,965L937,959L940,959L949,953L949,952L949,948L958,940L950,931L944,938L936,934L931,938L923,935L919,925L920,924L919,918L921,910L920,909L920,901L927,893L929,892L932,887L934,886L939,886L944,883L948,883L957,892L963,883L975,881L975,881L985,878L994,881L1004,881L1006,876L1020,875L1025,884L1040,887L1043,883L1054,881L1059,877L1070,877L1074,884L1095,885L1095,885L1109,890L1114,887L1114,866L1126,866L1133,861L1141,864L1156,852L1158,851L1164,835L1172,833L1176,834L1185,826L1198,835L1203,815L1208,815L1220,806L1220,797L1231,791L1232,790L1229,773L1230,772L1250,771L1253,757L1256,755L1262,747L1274,746L1275,745L1272,729L1286,727L1289,713L1290,712L1300,718L1306,728L1321,730L1325,721L1342,720L1347,709L1341,705L1342,686L1356,691M965,1019L958,1011L950,1010L942,1015L941,1022L944,1028L951,1033L954,1033L956,1033L961,1029L965,1019"
       clip-path="url(#state-clip7)"
       stroke="#508484"
       style="fill:#ffffff" />
  </g>
  <g
     inkscape:label="States_1705768885.6961231"
     inkscape:groupmode="layer"
     id="States_1705768885.6961231">
    <path
       id="state-border8"
       d="M1082,253L1083,252L1089,251L1089,251L1100,249L1100,248L1109,247L1113,252L1113,262L1121,264L1125,261L1135,261L1136,269L1143,275L1150,267L1160,267L1161,266L1167,264L1171,266L1175,278L1175,279L1168,282L1166,293L1168,295L1167,304L1168,306L1170,307L1172,316L1176,317L1182,309L1181,306L1182,304L1180,294L1181,291L1179,285L1193,279L1197,289L1197,290L1200,301L1200,303L1201,304L1208,312L1211,313L1216,326L1217,327L1220,332L1225,334L1229,342L1237,345L1237,350L1232,359L1227,358L1222,361L1221,365L1227,373L1225,381L1229,385L1230,390L1224,397L1225,404L1217,410L1216,410L1205,418L1202,418L1195,421L1193,432L1193,432L1199,438L1207,439L1213,431L1219,430L1224,421L1232,421L1236,416L1243,415L1247,411L1252,410L1260,413L1261,417L1255,428L1255,429L1249,435L1249,437L1254,445L1261,445L1265,459L1266,460L1265,467L1258,473L1254,483L1234,466L1231,475L1233,489L1252,487L1251,509L1254,511L1257,527L1248,533L1248,545L1240,550L1241,560L1226,565L1226,566L1213,583L1205,579L1200,582L1182,579L1180,582L1168,583L1159,592L1158,592L1143,612L1141,605L1127,598L1127,589L1110,586L1106,602L1093,604L1089,602L1081,600L1080,600L1062,602L1060,589L1066,582L1057,563L1060,559L1052,546L1043,542L1041,543L1025,545L1019,543L1020,532L1006,524L1014,513L1013,511L1014,495L997,493L1007,478L1000,472L1003,464L1015,460L1015,458L1003,445L1009,440L1009,428L1017,426L1013,406L1024,407L1026,404L1042,409L1043,411L1046,414L1048,421L1049,423L1057,425L1060,424L1067,423L1070,418L1074,415L1076,409L1082,407L1089,414L1090,418L1090,418L1101,419L1101,419L1108,423L1118,420L1120,423L1132,422L1132,422L1141,424L1144,422L1155,425L1158,422L1163,422L1168,415L1176,414L1178,408L1173,402L1164,405L1161,403L1153,404L1151,406L1148,408L1135,401L1128,409L1122,408L1120,406L1106,404L1105,402L1100,399L1098,389L1105,382L1105,382L1114,376L1114,368L1125,365L1125,365L1133,363L1135,360L1132,350L1126,348L1126,342L1119,337L1113,342L1114,352L1107,356L1106,356L1098,347L1098,346L1089,338L1089,338L1084,340L1077,337L1069,340L1065,335L1054,338L1055,328L1053,326L1053,316L1044,317L1038,311L1034,310L1028,304L1025,303L1026,284L1036,285L1039,281L1039,272L1036,267L1036,267L1045,261L1051,268L1059,261L1064,263L1065,262L1070,254L1082,253M1274,338L1271,332L1271,323L1273,318L1274,318L1284,319L1288,321L1288,330L1283,336L1274,338"
       clip-path="url(#state-clip8)"
       stroke="#ae6258"
       style="fill:#ffffff" />
  </g>
  <g
     inkscape:label="States_1705768885.6961887"
     inkscape:groupmode="layer"
     id="States_1705768885.6961887">
    <path
       id="state-border9"
       d="M882,273L884,276L885,285L885,285L884,297L876,304L876,304L865,308L863,313L862,314L849,311L846,306L846,305L841,297L837,296L832,285L833,282L837,279L843,281L848,285L851,285L855,276L860,274L862,267L868,263L878,265L881,272L882,273M946,285L940,283L939,283L939,270L943,264L948,264L955,268L954,272L963,280L971,275L971,275L979,265L981,265L981,264L997,262L999,275L997,279L994,278L981,284L973,279L967,292L974,298L979,295L987,299L995,298L998,301L999,305L1005,310L1005,313L1012,322L1012,322L1010,326L1010,332L1020,334L1021,344L1025,346L1026,348L1023,358L1025,360L1023,371L1016,372L1014,378L1007,380L1005,384L998,386L991,397L991,400L992,402L998,406L1003,406L1009,404L1012,395L1020,391L1031,395L1032,395L1033,395L1042,401L1042,409L1026,404L1024,407L1013,406L1017,426L1009,428L1009,440L1003,445L1015,458L1015,460L1003,464L1000,472L1007,478L997,493L1014,495L1013,511L1014,513L1006,524L1020,532L1019,543L1016,545L1012,544L990,544L987,534L969,532L962,549L956,549L949,543L934,548L930,542L918,547L914,551L901,549L901,549L883,554L880,563L869,565L862,572L848,555L836,566L826,565L826,565L825,580L817,585L816,585L809,574L793,584L788,580L778,578L771,583L757,584L754,581L756,571L748,560L740,567L728,564L726,557L719,556L706,544L706,544L686,527L683,528L669,527L661,513L656,513L646,499L636,496L633,491L622,493L614,477L608,477L604,459L603,458L599,442L599,440L591,426L592,423L592,420L585,406L604,398L602,390L616,381L615,368L617,364L617,362L640,347L636,340L637,337L648,330L650,317L660,317L664,320L676,320L676,320L684,321L688,323L692,323L697,328L706,328L708,336L712,338L717,346L717,347L722,355L723,356L726,356L736,360L740,365L751,366L752,367L754,374L759,376L761,388L768,390L773,380L773,377L778,370L779,367L778,363L781,359L788,357L800,367L800,367L809,370L810,371L816,371L823,362L823,362L828,353L833,351L842,358L843,359L848,365L854,366L860,363L864,352L866,351L867,349L879,342L888,347L889,348L898,350L903,360L903,361L910,370L909,374L916,379L917,387L923,392L929,392L932,389L946,388L947,388L947,388L950,399L949,402L951,407L956,410L969,408L970,405L970,396L970,396L970,389L969,385L969,379L967,374L960,371L958,369L958,359L956,357L955,347L957,344L951,337L955,332L962,334L965,327L963,323L954,321L951,310L953,306L952,303L954,291L946,285M1019,304L1025,303L1026,284L1023,282L1011,288L1011,295L1019,304L1019,304M1053,316L1044,317L1038,311L1034,310L1030,321L1031,327L1033,328L1036,333L1039,335L1043,339L1053,339L1054,338L1055,328L1053,326L1053,316M943,361L947,369L942,375L934,371L933,368L936,363L943,361"
       clip-path="url(#state-clip9)"
       stroke="#ac5f95"
       style="fill:#ffffff" />
  </g>
  <g
     inkscape:label="States_1705768885.6962519"
     inkscape:groupmode="layer"
     id="States_1705768885.6962519">
    <path
       id="state-border10"
       d="M1266,460L1265,459L1261,445L1266,441L1277,444L1279,452L1284,455L1287,454L1297,456L1300,460L1302,469L1302,469L1303,473L1315,478L1321,474L1327,476L1331,486L1331,488L1334,494L1342,495L1349,486L1353,488L1356,497L1358,498L1360,507L1366,508L1371,498L1369,494L1369,492L1365,486L1371,478L1378,480L1380,478L1381,468L1378,462L1383,460L1401,463L1401,475L1406,477L1411,483L1431,474L1433,485L1439,489L1449,488L1451,484L1466,484L1465,493L1467,496L1481,492L1481,487L1500,486L1501,487L1504,487L1510,494L1523,490L1526,493L1535,492L1540,494L1542,494L1547,492L1555,492L1555.5,492L1561.75,488.5L1568,485L1572,491L1584,489L1586,481L1587,476L1588,471L1593,469L1594,465L1609,457L1611.5,461.5L1614,466L1617,473L1620,480L1628,481L1629,482L1641,484L1642,491L1649,494L1654,503L1662,505L1662,507L1678,517L1680,525L1699,520L1701,530L1692,546L1693,548L1685,561L1697,579L1697,581L1693,584L1692,603L1672,602L1668,609L1679,622L1673,630L1683,641L1684,649L1664,652L1660,650L1645,658L1637,654L1627,657L1626,678L1625,680L1605,674L1604,678L1594,693L1594,693L1572,697L1572,701L1568,705L1552,708L1559,727L1556,730L1539,726L1535,731L1532,732L1520,739L1518,746L1496,747L1497,761L1483,768L1482,774L1471,776L1463,769L1463,758L1451,754L1446,743L1430,749L1416,741L1408,760L1407,760L1400,766L1385,763L1376,780L1369,779L1358,761L1356,762L1350,760L1343,748L1357,732L1358,732L1366,721L1357,704L1358,703L1356,691L1358,688L1360,674L1356,668L1363,656L1360,648L1363,641L1360,636L1338,636L1337,645L1332,648L1327,660L1305,652L1314,676L1312,677L1290,674L1289,682L1285,687L1276,693L1271,691L1255,696L1251,694L1238,709L1233,692L1230,691L1239,672L1218,671L1217,660L1211,653L1213,637L1219,631L1216,618L1214,616L1217,602L1213,597L1213,584L1213,583L1226,566L1226,565L1241,560L1240,550L1248,545L1248,533L1257,527L1254,511L1251,509L1252,487L1233,489L1231,475L1234,466L1254,483L1258,473L1265,467L1266,460"
       clip-path="url(#state-clip10)"
       stroke="#b36190"
       style="fill:#ffffff" />
  </g>
  <g
     inkscape:label="States_1705768885.6963167"
     inkscape:groupmode="layer"
     id="States_1705768885.6963167">
    <path
       id="state-border11"
       d="M1851,232L1858,222L1862,223L1868,235L1870,235L1875,244L1875,248L1875,249L1888,250L1887,261L1890,264L1890,266L1894,271L1899,273L1904,281L1918,277L1921,274L1927,272L1932,264L1933,264L1938,263L1948,269L1951,278L1955,281L1956,285L1955,287L1955,296L1961,300L1957,307L1959,311L1957,317L1957,317L1956,325L1960,331L1963,331L1964,331L1976,334L1977,342L1982,347L1984,353L1984,354L1991,354L1999,360L1999,369L1998,370L1997,380L1998,382L2009,385L2012,383L2025,387L2025,389L2032,409L2029,411L2027,419L2031,424L2035,426L2037,431L2044,436L2045,439L2046,441L2044,455L2045,455L2045,459L2050,466L2050,469L2033,481L2031,479L2016,471L2015,470L1997,485L1990,470L1993,462L1992,457L1976,454L1974,455L1956,454L1955,455L1944,459L1935,452L1936,440L1923,434L1921,434L1910,438L1907,448L1886,443L1886,444L1870,441L1869,442L1856,443L1853,446L1835,440L1829,447L1822,449L1814,441L1811,440L1797,457L1787,453L1775,462L1771,460L1758,473L1752,464L1747,463L1746,454L1736,449L1733,446.5L1730,444L1725,443L1716,436L1713,432L1734,423L1729,414L1729,413L1728,411L1733,394L1729,390L1728,378L1733,373L1733,357L1722,351L1735,335L1723,329L1720,318L1714,320L1695,314L1698,298L1703,297L1707,277L1714,279L1716,284L1727,284L1728,286L1738,285L1741,290L1752,290L1756,294L1765,295L1769,289L1777,285L1779,286L1789,280L1789,280L1793,279L1805,283L1805,283L1813,285L1822,280L1824,278L1817,272L1818,262L1819,260L1825,259L1828,254L1838,255L1847,261L1855,260L1856,259L1856,257L1854,242L1855,241L1851,232"
       clip-path="url(#state-clip11)"
       stroke="#b29138"
       style="fill:#ffffff" />
  </g>
  <g
     inkscape:label="States_1705768885.696385"
     inkscape:groupmode="layer"
     id="States_1705768885.696385">
    <path
       id="state-border12"
       d="M1886,564L1890,562L1894,563L1909,580L1924,569L1932,579L1942,581L1943,582L1939,603L1945,606L1945,620L1961,623L1960,640L1977,639L1981,651L1983,653L1979,668L1967,672L1957,666L1951,668L1945,690L1945,690L1942,698L1956,716L1954,719L1939,723L1934,722L1938,701L1921,701L1918,694L1908,689L1910,673L1892,670L1890,664L1882,659L1887,641L1881,635L1878,634L1876,622L1866,617L1877,604L1873,598L1873,593L1880,586L1883,584L1886,564"
       clip-path="url(#state-clip12)"
       stroke="#a7ad31"
       style="fill:#ffffff" />
  </g>
  <g
     inkscape:label="States_1705768885.6964557"
     inkscape:groupmode="layer"
     id="States_1705768885.6964557">
    <path
       id="state-border13"
       d="M1694,465.5L1698,460L1704,458L1707,460L1712,472L1711,476L1712,481L1716,484L1718,487L1726,492L1731,503L1730,503L1745,517L1744,525L1746,527L1765,525L1767,524L1776,527L1782,537L1797,535L1804,547L1802,553L1802,555L1817,568L1821,567L1832,570L1837,580L1857,576L1861,569L1861,569L1880,586L1873,593L1873,598L1877,604L1866,617L1876,622L1878,634L1881,635L1887,641L1882,659L1890,664L1892,670L1910,673L1908,689L1918,694L1921,701L1938,701L1934,722L1930,723L1923,738L1926,744L1936,744L1946,759L1946,759L1959,766L1959,773L1959,773L1958,785L1949,792L1946,793L1946,794L1939,796L1939,796L1931,797L1927,797L1920,799L1913,805L1911,811L1904,813L1898,809L1894,802L1882,797L1882,797L1879,795L1865,795L1863,793L1858,793L1849,798L1847,810L1847,810L1840,819L1840,823L1837,829L1838,832L1836,838L1826,843L1824,843L1822,844L1813,845L1811,843L1801,848L1801,849L1802,859L1804,861L1805,861L1812,869L1813,870L1814,871L1816,883L1813,888L1817,894L1812,905L1811,905L1803,902L1800,903L1790,901L1787,903L1784,911L1786,916L1785,923L1786,926L1780,934L1783,945L1784,946L1782,957L1780,958L1768,955L1763,960L1762,960L1757,968L1750,970L1745,981L1744,982L1743,989L1741,992L1726,993L1725,1000L1719,1004L1717,1010L1714,1012L1711,1012L1706,1018L1697,1019L1694,1009L1684,1008L1681,1003L1678,1002L1667,1006L1665,1004L1654,1004L1652,1009L1643,1002L1636,1009L1630,1005L1629,997L1632,994L1633,985L1632,983L1632,973L1620,971L1622,982L1616,986L1614,993L1609,995L1605,998L1593,1001L1593,1002L1579,1007L1579,1008L1577,1008L1569,1017L1572,1024L1571,1029L1562,1031L1557,1027L1548,1026L1547,1025L1546,1023L1540,1019L1529,1018L1526,1020L1520,1009L1522,1002L1513,993L1519,982L1518,977L1539,963L1537,959L1536,957L1516,951L1519,936L1520,934L1522,922L1514,912L1516,903L1511,897L1518,883L1496,880L1503,866L1499,859L1501,851L1502,850L1496,829L1502,825L1502,821L1506,811L1490,795L1487,795L1487,783L1482,774L1483,768L1497,761L1502,765L1514,768L1520,749L1540,755L1542,758L1543,758L1548,770L1555,773L1557,791L1572,786L1575,791L1589,799L1587,807L1595,815L1591,827L1607,830L1608,830L1624,833L1626,846L1626,846L1643,845L1647,827L1661,831L1661,830L1679,826L1687,830L1691,830L1695,832L1713,825L1715,824L1724,831L1734,826L1734,812L1741,809L1742,799L1755,795L1761,798L1768,793L1779,799L1789,790L1787,780L1802,772L1800,764L1793,755L1804,743L1799,738L1798,724L1802,721L1806,707L1810,705L1807,686L1809,683L1822,682L1816,667L1818,665L1814,650L1801,662L1793,653L1786,652L1784,639L1773,634L1767,634L1768,622L1765,615L1744,616L1749,603L1734,594L1726,603L1722,603L1718,597L1714,583L1713,582L1697,581L1697,579L1685,561L1693,548L1692,546L1701,530L1699,520L1680,525L1678,517L1662,507L1662,505L1654,503L1649,494L1655,482L1657,482L1659,478L1666,476L1673,481L1682,480L1683,476L1690,471L1694,465.5M1785,981L1790,985L1794,984L1798,973L1788,970L1785,974L1785,981"
       clip-path="url(#state-clip13)"
       stroke="#b37645"
       style="fill:#ffffff" />
  </g>
  <g
     inkscape:label="States_1705768885.6965225"
     inkscape:groupmode="layer"
     id="States_1705768885.6965225">
    <path
       id="state-border14"
       d="M582,427L591,426L599,440L599,442L603,458L604,459L608,477L614,477L622,493L633,491L636,496L646,499L656,513L661,513L669,527L683,528L686,527L706,544L706,544L719,556L726,557L728,564L740,567L748,560L756,571L754,581L757,584L771,583L778,578L788,580L793,584L809,574L816,585L817,585L822,595L826,596L831,594L832,586L825,580L826,565L826,565L836,566L848,555L862,572L869,565L880,563L883,554L901,549L901,549L914,551L918,547L930,542L934,548L949,543L956,549L962,549L969,532L987,534L990,544L1012,544L1016,545L1019,543L1025,545L1041,543L1043,542L1052,546L1060,559L1057,563L1066,582L1060,589L1062,602L1080,600L1081,600L1089,602L1093,604L1106,602L1110,586L1127,589L1127,598L1141,605L1143,612L1158,592L1159,592L1168,583L1180,582L1182,579L1200,582L1205,579L1213,583L1213,584L1213,597L1217,602L1214,616L1216,618L1219,631L1213,637L1211,653L1217,660L1218,671L1239,672L1230,691L1233,692L1238,709L1251,694L1255,696L1271,691L1276,693L1279,708L1289,713L1286,727L1272,729L1275,745L1274,746L1262,747L1256,755L1253,757L1250,771L1230,772L1229,773L1232,790L1231,791L1220,797L1220,806L1208,815L1203,815L1198,835L1185,826L1176,834L1172,833L1164,835L1158,851L1156,852L1141,864L1133,861L1126,866L1114,866L1114,887L1109,890L1095,885L1095,885L1074,884L1070,877L1059,877L1054,881L1043,883L1040,887L1025,884L1020,875L1006,876L1004,881L994,881L985,878L975,881L975,881L963,883L957,892L948,883L956,876L957,871L952,867L944,868L941,866L934,867L932,866L930,856L925,853L928,842L931,842L938,850L946,840L946,839L949,829L950,828L953,819L948,814L944,812L938,814L931,824L931,825L923,838L922,838L916,853L916,855L915,857L917,871L917,871L917,872L916,873L918,889L910,890L907,895L901,898L901,905L898,911L899,914L896,923L896,923L892,937L890,937L885,949L885,950L883,959L882,960L881,961L876,966L870,966L862,955L867,952L870,944L874,943L875,934L881,932L880,920L878,918L880,908L878,904L870,899L868,900L864,905L862,916L855,919L846,916L845,906L843,903L836,903L827,912L821,910L812,916L807,915L801,919L792,914L781,914L780,915L778,917L777,928L777,931L777,931L787,936L797,936L800,938L808,939L811,948L810,952L815,964L805,969L802,968L799,963L796,960L788,959L779,967L773,966L771,968L767,977L766,977L758,985L747,980L747,980L742,980L740,981L736,989L724,990L724,990L723,976L730,972L730,965L732,961L730,951L724,948L713,951L711,954L711,957L705,962L703,968L697,971L686,966L686,962L676,951L674,951L670,948L670,947L663,938L658,937L651,949L647,948L638,952L637,957L635,959L631,967L621,970L617,969L615,964L613,963L607,957L605,949L601,948L596,938L601,933L601,926L602,924L598,915L586,920L584,917L586,907L588,905L589,904L598,904L599,899L607,891L606,885L616,877L615,875L620,866L617,858L618,857L617,847L615,845L616,840L614,834L615,831L608,820L609,819L602,807L605,802L610,800L612,801L622,795L620,788L627,781L630,782L635,778L636,774L633,766L636,758L643,755L652,757L656,760L657,760L664,760L672,750L672,744L679,740L691,748L691,747L702,745L709,752L709,752L717,739L716,736L720,728L720,725L722,718L714,711L706,714L703,717L699,719L689,713L687,714L676,709L675,710L661,705L656,709L653,709L646,717L646,720L635,729L633,728L624,727L618,731L617,736L612,740L610,746L613,756L613,756L615,770L614,772L613,773L609,780L607,782L607,782L595,790L588,787L584,792L573,792L571,789L556,792L555,792L549,802L546,803L543,810L533,811L528,819L527,826L528,827L529,838L530,839L533,848L532,852L530,854L529,857L531,863L530,868L533,875L526,882L520,881L519,879L518,873L515,869L515,864L509,857L509,855L500,845L499,839L494,833L493,829L492,829L491,828L482,819L479,819L475,811L465,810L462,802L455,799L450,793L449,793L440,791L432,792L430,794L417,797L411,795L408,790L404,788L403,781L400,775L400,772L394,765L392,764L383,770L380,769L371,772L366,760L369,756L367,750L361,747L356,741L357,736L363,730L370,727L372,723L392,729L395,707L395,706L390,688L408,680L408,676L427,665L427,665L436,641L445,660L456,651L465,668L475,665L478,659L480,658L475,633L477,630L477,628L496,619L497,616L497,604L497,604L512,603L519,581L521,581L527,572L522,561L535,545L535,545L546,536L548,532L565,527L567,519L572,512L563,498L573,490L564,477L565,476L560,460L556,458L552,445L568,439L571,427L582,427M561,893L561,893L560,884L553,879L544,881L541,888L543,894L545,897L550,898L561,893"
       clip-path="url(#state-clip14)"
       stroke="#6ca652"
       style="fill:#ffffff" />
  </g>
  <g
     inkscape:label="States_1705768885.6966503"
     inkscape:groupmode="layer"
     id="States_1705768885.6966503">
    <path
       id="state-border15"
       d="M1308,419L1308,417L1316,406L1320,407L1325,411L1335,403L1340,408L1356,407L1358,409L1375,400L1381,410L1399,403L1403,418L1407,419L1415,430L1424,432L1434,424L1447,430L1448,436L1471,436L1474,439L1474,439L1491,425L1498,427L1503,423L1515,422L1518,430L1525,438L1535,436L1537,443L1534,447L1537,458L1540,458L1547,466L1547,472L1546,473L1535,474L1534,475L1519,481L1518,480L1516,471L1512,469L1508,458L1504,456L1499,459L1495,469L1498,476L1499,481L1500,486L1481,487L1481,492L1467,496L1465,493L1466,484L1451,484L1451,476L1444,472L1454,459L1435,461L1433,464L1432.5,466.5L1432,469L1431,474L1411,483L1406,477L1401,475L1401,463L1383,460L1378,462L1369,459L1364,462L1363,462L1361,463L1354,462L1346,457L1343,450L1340,449L1336,441L1327,447L1327,452L1320,459L1314,454L1311,442L1306,440L1306,440L1296,438L1293,436L1293,431L1298,424L1307,424L1308,419"
       clip-path="url(#state-clip15)"
       stroke="#5c859a"
       style="fill:#ffffff" />
  </g>
  <g
     inkscape:label="States_1705768885.6967247"
     inkscape:groupmode="layer"
     id="States_1705768885.6967247">
    <path
       id="state-border16"
       d="M2048,306L2046,290L2047,289L2055,288L2059,292L2068,293L2068,294L2073,296L2081,295L2085,288L2084,284L2093,278L2098,282L2108,279L2109,280L2119,282L2117,295L2112,296L2109,300L2109,310L2106,316L2112,320L2117,330L2114,338L2100,342L2099,349L2079,357L2078,363L2061,367L2060,369L2049,371L2046,367L2044,363L2051,354L2049,349L2050,344L2048,340L2046,338L2045,336L2050,324L2050,321L2054,315L2054,313L2048,306L2048,306M2022,350L2023,341L2030,339L2035,344L2032,355L2031,356L2027,354L2022,350"
       clip-path="url(#state-clip16)"
       stroke="#71ad46"
       style="fill:#ffffff" />
  </g>
</svg>
