<?xml version="1.0" encoding="UTF-8" standalone="no"?>
<svg
   id="fantasyMap"
   width="303.4696"
   height="328.06351"
   version="1.1"
   background-color="#000000"
   viewBox="0 0 303.4696 328.06351"
   xmlns="http://www.w3.org/2000/svg"
   xmlns:svg="http://www.w3.org/2000/svg">
  <defs
     id="defs4389" />
  <g
     id="land_1708199572.7545137"
     style="display:inline"
     transform="translate(-1045.1686,-519.72264)">
    <path
       id="state-border6"
       d="m 1194.8217,522.245 1,-1 20,-1 2,15 13,5 2,4 12,4 6,-9 18,4 1,3 15,7 v 1 l -1,7 5,11 -6,9 -1,9 5,6 1,12 2,2 -7,24 1,2 20,-12 2,6 13,2 5,-10 16,17 v 4 l -6,4 6,21 -1,1 -2,8 4,7 -7,14 h -1 l 6,16 -8,10 1,3 4,8 v 1 l 12,14 -18,8 9,12 -5,6 8,15 -5,3 -3,11 5,10 -4,1 -14,11 -3,-5 3,-9 -3,-5 -6,1 -6,8 v 1 l -3,3 1,7 -4,7 2,5 -1,3 -10,4 -7,-3 -1,-1 -5,-1 -2,-2 -7,1 -2,1 -12,1 -2,-1 -7,2 -4,-1 -5,1 -10,-2 -2,-4 -4,-1 -7,-8 -4,-1 h -5 l -4,3 -2,7 -11,4 -8,-3 -4,2 -6,1 -2,1 h -7 l -5,4 -7,-1 -7,-11 2,-6 -11,-5 -5,-9 -19,11 -1,-17 4,-3 -4,-15 5,-5 v -10 l -4,-3 6,-18 -12,-9 v -4 l 7,-8 -3,-11 v 0 l -3,-19 h -5 l -9,-10 4,-11 -23,1 1,-9 -18,-12 7,-12 -11,-11 -4,-7 12,-9 v -9 l 11,-6 1,-1 -3,-17 1,-1 20,-1 3,-14 3,-2 6,-8 12,-1 1,-1 13,-3 2,-3 h 7 l 9,-11 15,2 4,-9 17,-1 5,-11 10,-5"
       clip-path="url(#state-clip6)"
       stroke="#b39821"
       style="fill:#ffffff;stroke:#000000" />
  </g>
  <text
     xml:space="preserve"
     style="font-weight:600;font-size:14.6667px;font-family:Rajdhani;-inkscape-font-specification:'Rajdhani, Semi-Bold';text-align:center;text-anchor:middle;fill:#ffffff;stroke:#000000;stroke-width:10;paint-order:stroke fill markers"
     x="163.53513"
     y="175.28075"
     id="text14259"><tspan
       id="tspan14257"
       x="163.53513"
       y="175.28075">X</tspan></text>
</svg>
