<?xml version="1.0" encoding="UTF-8" standalone="no"?>
<svg
   id="fantasyMap"
   width="298.03766"
   height="365.58597"
   version="1.1"
   background-color="#000000"
   viewBox="0 0 298.03766 365.58597"
   xmlns="http://www.w3.org/2000/svg"
   xmlns:svg="http://www.w3.org/2000/svg">
  <defs
     id="defs4389" />
  <g
     id="land_1708199572.7547007"
     style="display:inline"
     transform="translate(-1268.3172,-274.57253)">
    <path
       id="state-border8"
       d="m 1431.8217,283.245 15,-8 v 0 l 5,9 v 0 l 6,14 8,1 1,1 12,2 1,7 7,3 6,-12 h 2 l 2,-4 7,-2 7,5 9,-1 1,2 -6,17 5,2 v 8 l 17,10 2,-2 12,-2 7,12 -6,9 3,10 -13,7 2,5 6,5 1,19 1,1 4,14 4,6 -5,8 7,15 -2,4 6,9 -3,14 -6,2 -2,3 -2,8 -2,4 5,16 -17,4 -4,7 -18,-5 -6,11 -8,-1 -10,4 8,16 -5,10 1,4 -19,14 1,3 -13,13 -9,-13 -10,3 -10,-12 -6,-1 -6,12 -3,2 -15,-1 v 0 l -2,14 -12,3 2,18 -3,3 4,13 -7,11 -13,-7 -1,-15 h -19 v 2 l -12,13 -4,10 -16,-17 -5,10 -13,-2 -2,-6 -20,12 -1,-2 7,-24 -2,-2 -1,-12 -5,-6 1,-9 6,-9 -5,-11 1,-7 v -1 l -15,-7 -1,-3 1,-18 v 0 l 9,-1 7,-17 v 0 l 5,-15 -3,-2 -3,-10 -11,-8 h -1 l 13,-22 -1,-1 2,-4 -2,-11 2,-12 -4,-2 -5,-17 8,-8 1,-7 11,-7 -1,-15 4,-4 -4,-12 6,-7 15,7 3,-20 2,-1 v -10 l 14,-10 2,-4 h 3 l 6,7 13,-4 3,3 9,-1 5,2 h 2 l 5,-2 h 8 v 0 h 1 l 12,-7 4,6 12,-2 2,-8 v 0 l 2,-10 5,-2 1,-4"
       clip-path="url(#state-clip8)"
       stroke="#7a6e97"
       style="fill:#ffffff;stroke:#000000" />
  </g>
  <text
     xml:space="preserve"
     style="font-weight:600;font-size:14.6667px;font-family:Rajdhani;-inkscape-font-specification:'Rajdhani, Semi-Bold';text-align:center;text-anchor:middle;fill:#ffffff;stroke:#000000;stroke-width:10;paint-order:stroke fill markers"
     x="148.00671"
     y="171.16423"
     id="text14193"><tspan
       id="tspan14191"
       x="148.00671"
       y="171.16423">X</tspan></text>
</svg>
