<?xml version="1.0" encoding="UTF-8" standalone="no"?>
<svg
   id="fantasyMap"
   width="569.11176"
   height="587.05127"
   version="1.1"
   background-color="#000000"
   viewBox="0 0 569.11176 587.05127"
   xmlns="http://www.w3.org/2000/svg"
   xmlns:svg="http://www.w3.org/2000/svg">
  <defs
     id="defs4389" />
  <g
     id="land_1708199572.7548883"
     style="display:inline"
     transform="translate(-594.25425,-64.717653)">
    <path
       id="state-border10"
       d="m 919.82173,71.245 1,-1 6,-1 v 0 l 11,-2 v -1 l 9,-1 4,5 v 10 l 8,2 4,-3 h 10 l 1,8 7,6 7,-8 h 10 l 1,-1 5.99997,-2 4,2 4,12 v 1 l -7,3 -2,11 2,2 -1,9 1,2 2,1 2,9 4,1 6,-8 -1,-3 1,-2 -2,-10 1,-3 -2,-6 14,-6 4,10 v 1 l 3,11 v 2 l 1,1 7,8 3,1 5,13 1,1 3,5 5,2 4,8 8,3 v 5 l -5,9 -5,-1 -5,3 -1,4 6,8 -2,8 4,4 1,5 -6,7 1,7 -8,6 h -1 l -11,8 h -3 l -7,3 -2,11 v 0 l 6,6 8,1 6,-8 6,-1 5,-9 h 8 l 4,-5 7,-1 4,-4 5,-1 8,3 1,4 -6,11 v 1 l -6,6 v 2 l 5,8 h 7 l 5,-4 11,3 2,8 5,3 3,-1 10,2 3,4 2,9 v 0 l 1,4 12,5 v 12 l -2,3 h -4 l -6,15 h -7 l -8,9 6,10 16,-5 5,4 -12,15 9,6 v 10 l -8,8 -11,-3 -11,22 -9,1 -3,9 3,7 -7,17 -16,-7 -3,7 8,13 -11,7 11,11 -3,14 v 5 l 5,1 10,5 21,-5 2,5 22,3 -3,13 14,11 -3,8 5,12 -4,9 -15,-2 -9,11 h -7 l -2,3 -13,3 -1,1 -12,1 -6,8 -3,2 -3,14 -20,1 -1,1 3,17 -1,1 -11,6 v 9 l -12,9 h -5 l -4,-2 -10,-1 -5,-5 -14,11 -14.99997,-5 -3,1 -3,12 -2,1 -17,1 -1,1 -20,4 -4,-2 -1,-2 -8,-4 -6,-14 -11,1 h -1 l -14,-1 -6,14 -15,-2 -3,-6 -15,-5 -2,-2 -17,7 -8,-19 -2,-1 -13,3 v 1 l -5,-1 -10,-10 -9,2 -1,5 h -11 l -5,7 -7,-5 -1,-10 -3,-4 -10,13 -9,-17 h -1 l -3,-9 v -3 l -5,-8 4,-8 -3,-8 -6,-7 -12,8 -12,-20 -9,3 -7,-4 5,-27 v 0 l 21,-8 -5,-15 -5,-2 -9,-12 -15,19 -5,-1 -4,-11 -7,-3 3,-17 h 1 l 8,-8 -3,-4 7,-5 v -11 l -4,-2 h -6 l -6,-2 h -3 -3 l -2,-20 5,-2 1,-8 -7,-6 1,-15 -12,-3 -1,-9 -4,-6 -12,-4 -3,3 -15,-4 -1,-10 -9,-4 6,-15 -16,-1 -1,-14 -1,-1 5,-16 5,-3 7,-1 v -21 l 1,-1 -7,-15 8,-4 18,3 3,-12 13,-3 2,-12 -10,-5 6,-12 14,-3 -13,-15 1,-6 h 6 l 7,-9 v 0 l 5,-9 5,-2 9,7 1,1 5,6 6,1 6,-3 4,-11 2,-1 1,-2 12,-7 9,5 1,1 9,2 5,10 v 1 l 7,9 -1,4 7,5 1,8 6,5 h 6 l 3,-3 14,-1 h 1 v 0 l 3,11 -1,3 2,5 5,3 13,-2 1,-3 v -9 0 -7 l -1,-4 v -6 l -2,-5 -7,-3 -2,-2 v -10 l -2,-2 -1,-10 2,-3 -6,-7 4,-5 7,2 3,-7 -2,-4 -9,-2 -3,-11 2,-4 -1,-3 2,-12 -8,-6 -6,-2 h -1 v -13 l 4,-6 h 5 l 7,4 -1,4 9,8 8,-5 v 0 l 8,-10 h 2 v -1 l 16,-2 2,13 -2,4 -3,-1 -13,6 -8,-5 -6,13 7,6 5,-3 8,4 8,-1 3,3 1,4 6,5 v 3 l 7,9 v 0 l -2,4 v 6 l 10,2 1,10 4,2 1,2 -3,10 2,2 -2,11 -7,1 -2,6 -7,2 -2,4 -7,2 -7,11 v 3 l 1,2 6,4 h 5 l 6,-2 3,-9 8,-4 11,4 h 1 1 l 9,6 v 8 l 1,2 3,3 2,7 1,2 8,2 3,-1 7,-1 3,-5 4,-3 2,-6 6,-2 7,7 1,4 v 0 l 11,1 v 0 l 7,4 10,-3 2,3 12,-1 v 0 l 9,2 3,-2 11,3 3,-3 h 4.99997 l 5,-7 8,-1 2,-6 -5,-6 -9,3 -2.99997,-2 -8,1 -2,2 -3,2 -13,-7 -7,8 -6,-1 -2,-2 -14,-2 -1,-2 -5,-3 -2,-10 7,-7 v 0 l 9,-6 v -8 l 11,-3 v 0 l 8,-2 2,-3 -3,-10 -6,-2 v -6 l -7,-5 -6,5 1,10 -7,4 h -1 l -8,-9 v -1 l -9,-8 v 0 l -5,2 -7,-3 -8,3 -4,-5 -11,3 -1,1 h -10 l -4,-4 -3,-2 -3,-5 -2,-1 -1,-6 4,-11 -6,-6 -3,-1 -6,1 v 0 l -8,-9 v -7 l 12,-6 3,2 10,1 3,-4 v -9 l -3,-5 v 0 l 9,-6 6,7 8,-7 5,2 1,-1 5,-8 12,-1 m -200,20 2,3 1,9 v 0 l -1,12 -8,7 v 0 l -11,4 -2,5 -1,1 -13,-3 -3,-5 v -1 l -5,-8 -4,-1 -5,-11 1,-3 4,-3 6,2 5,4 h 3 l 4,-9 5,-2 2,-7 6,-4 10,2 3,7 1,1 m 391.99997,65 -3,-6 v -9 l 2,-5 h 1 l 10,1 4,2 v 9 l -5,6 -9,2 m -330.99997,23 4,8 -5,6 -8,-4 -1,-3 3,-5 7,-2"
       clip-path="url(#state-clip10)"
       stroke="#6ca751"
       style="fill:#ffffff;stroke:#000000" />
  </g>
  <text
     xml:space="preserve"
     style="font-weight:600;font-size:14.6667px;font-family:Rajdhani;-inkscape-font-specification:'Rajdhani, Semi-Bold';text-align:center;text-anchor:middle;fill:#ffffff;stroke:#000000;stroke-width:10;paint-order:stroke fill markers"
     x="295.87051"
     y="358.92487"
     id="text14127"><tspan
       id="tspan14125"
       x="295.87051"
       y="358.92487">X</tspan></text>
</svg>
