<?xml version="1.0" encoding="UTF-8" standalone="no"?>
<svg
   id="fantasyMap"
   width="98.063828"
   height="94.166039"
   version="1.1"
   background-color="#000000"
   xmlns="http://www.w3.org/2000/svg"
   xmlns:svg="http://www.w3.org/2000/svg">
  <defs
     id="defs7517" />
  <g
     id="land_1706637220.5974333"
     style="display:inline"
     transform="translate(-1859.3261,-95.626172)">
    <path
       id="state-border16"
       d="m 1885.823,124.245 -2,-16 1,-1 8,-1 4,4 9,1 v 1 l 5,2 8,-1 4,-7 -1,-4 9,-6 5,4 10,-3 1,1 10,2 -2,13 -5,1 -3,4 v 10 l -3,6 6,4 5,10 -3,8 -14,4 -1,7 -20,8 -1,6 -17,4 -1,2 -11,2 -3,-4 -2,-4 7,-9 -2,-5 1,-5 -2,-4 -2,-2 -1,-2 5,-12 v -3 l 4,-6 v -2 l -6,-7 v 0 m -26,44 1,-9 7,-2 5,5 -3,11 -1,1 -4,-2 -5,-4"
       clip-path="url(#state-clip16)"
       stroke="#71ad46"
       style="fill:#ffffff;stroke:#000000" />
  </g>
  <text
     xml:space="preserve"
     style="font-weight:600;font-size:14.6667px;font-family:Rajdhani;-inkscape-font-specification:'Rajdhani, Semi-Bold';text-align:center;text-anchor:middle;fill:#ffffff;stroke:#000000;stroke-width:10;paint-order:stroke fill markers"
     x="57.76495"
     y="45.75351"
     id="text2372"><tspan
       id="tspan2370"
       x="57.76495"
       y="45.75351">X</tspan></text>
</svg>
