<?xml version="1.0" encoding="UTF-8" standalone="no"?>
<svg
   id="fantasyMap"
   width="450.38571"
   height="295.1246"
   version="1.1"
   background-color="#000000"
   viewBox="0 0 450.38571 295.1246"
   xmlns="http://www.w3.org/2000/svg"
   xmlns:svg="http://www.w3.org/2000/svg">
  <defs
     id="defs4389" />
  <g
     id="land_1708199572.7551453"
     style="display:inline"
     transform="translate(-699.09607,-607.69736)">
    <path
       id="state-border12"
       d="m 796.82173,610.245 -1,5 v 1 l -10,16 5,5 -3,9 -1,1 -3,10 v 1 l -8,10 -7,-8 h -3 l -3,11 5,3 2,10 2,1 7,-1 3,2 8,-1 5,4 -1,5 -8,7 h -4 l -5,3 h -5 l -2,1 -3,5 -2,1 -7,8 v 8 l 1,1 -2,8 1,6 -1,1 4,10 8,3 5,-4 8,4 6,-7 8,9 -9,8 v 4 1 l -9,6 h -3 l -4,6 v 8 l 9,4 5,-2 1,-4 8,-5 7,1 3,6 9,2 2,7 5,3 4,12 v 0 l 2,12 v 1 l 14,-3 2,-8 v 0 l 2,-13 7,-1 8,6 4,1 h 1 l 4,10 5,3 5,1 5,4 6,1 3,-3 11,-1 3,3 v 8 l 3,2 1,8 1,2 3,1 h 4 l 5,-5 12,4 1,3 7,2 4,10 5,1 9,-8 9,5 v 0 l 10,2 4,4 3,11 v 0 l 1,3 -1,4 4,9 11.99997,8 6,-3 -2,-12 -11.99997,-6 9.99997,-6 2,-6 4,-2 5,2 3,7 10,5 9,-6 1,-5 3,-4 1,-8 2,-3 11,-3 2,-6 7,-3 8,5 2,10 10,3 v 0 l 7,-5 2,-6 v -1 h 14 l 3,9 12,3 h 2 v -1 l 8,-1 4,-4 h 1 l 11,-9 -7,-11 2,-6 -11,-5 -5,-9 -19,11 -1,-17 4,-3 -4,-15 5,-5 v -10 l -4,-3 6,-18 -12,-9 v -4 l 7,-8 -3,-11 v 0 l -3,-19 h -5 l -9,-10 4,-11 -23,1 1,-9 -18,-12 7,-12 -11,-11 -4,-7 h -5 l -4,-2 -10,-1 -5,-5 -14,11 -14.99997,-5 -3,1 -3,12 -2,1 -17,1 -1,1 -20,4 -4,-2 -1,-2 -8,-4 -6,-14 -11,1 h -1 l -14,-1 -6,14 -15,-2 -3,-6 -15,-5 -2,-2 -17,7 -8,-19 -2,-1 -13,3 v 1 l -5,-1 -10,-10 -9,2 m -63,131 v 0 l -16,-3 1,12 -6,2 -1,9 -4,1 -3,8 -5,3 8,11 h 6 l 5,-5 1,-1 1,-1 2,-9 v -1 l 5,-12 h 2 l 4,-14 m 69,96 -7,-8 -8,-1 -8,5 -1,7 3,6 7,5 h 3 2 l 5,-4 4,-10"
       clip-path="url(#state-clip12)"
       stroke="#4c8989"
       style="fill:#ffffff;stroke:#000000" />
  </g>
  <text
     xml:space="preserve"
     style="font-weight:600;font-size:14.6667px;font-family:Rajdhani;-inkscape-font-specification:'Rajdhani, Semi-Bold';text-align:center;text-anchor:middle;fill:#ffffff;stroke:#000000;stroke-width:10;paint-order:stroke fill markers"
     x="252.36592"
     y="138.67632"
     id="text14061"><tspan
       id="tspan14059"
       x="252.36592"
       y="138.67632">X</tspan></text>
</svg>
