<?xml version="1.0" encoding="UTF-8" standalone="no"?>
<svg
   id="fantasyMap"
   width="439.07135"
   height="531.08405"
   version="1.1"
   background-color="#000000"
   xmlns="http://www.w3.org/2000/svg"
   xmlns:svg="http://www.w3.org/2000/svg">
  <defs
     id="defs7517" />
  <g
     id="land_1706637220.5961845"
     style="display:inline"
     transform="translate(-49.28437,-66.706484)">
    <path
       id="state-border3"
       d="m 170.823,77.245 2,-4 -1,-2 -10,-4 -5,2 -2,3 -3,9 1,2 -6,10 1,2 -5,12 v 2 l 7,6 v 2 l 7,7 2,6 -3,4 -7,3 -2,4 -7,4 -1,1 1,8 8,2 4,-6 5,1 1,2 -7,10 v 0 l -7,7 v 0 l -9,3 -6,-2 -6,-10 -3,-2 h -1 l -5,-3 h -10 l -4,3 -3,6 6,7 h 7 l 7,12 -2,3 -2,1 -6,9 v 1 l -7,9 h -3 l -8,-10 v -2 l -5,-8 -8,-1 -6,3 -3,9 v 4 l -1,1 v 11 0 l -1,12 5,2 6,-2 6,9 v 2 l 5,5 -1,6 v 1 10 l -3,4 v 6 l 6,6 -1,4 3,7 -5,6 3,11 -3,1 -1,9 -3,4 5,3 -1,11 2,1 1,3 -4,9 -3,2 1,12 1,1 -2,10 2,4 -1,6 -5,5 v 0 l -7,6 -1,6 v 2 l -1,9 v 0 l -4,11 1,4 -5,7 v 4 l -4,5 v 5 l -4,5 2,9 -4,6 1,7 -2,7 4,7 3,1 h 7 l 2,2 7,1 7,11 v 1 l 3,4 v 9 l -6,7 4,8 5,4 1,2 4,3 v 9 l -2,5 1,6 5,4 8,-1 6,5 3,-1 h 1 l 14,-8 1,1 1,16 v 0 l 3,9 v 1 l 2,1 4,9 9,4 7,-3 3,-7 v -5 -2 l 2,-2 2,-10 5,-6 9,1 4,-6 13,3 2,-1 1,-5 6,-6 7,-3 2,-4 20,6 3,-22 v -1 l -5,-18 18,-8 v -4 l 19,-11 v 0 l 9,-24 9,19 11,-9 9,17 10,-3 3,-6 2,-1 -5,-25 2,-3 v -2 l 19,-9 1,-3 v -12 0 l 15,-1 7,-22 h 2 l 6,-9 -5,-11 13,-16 v 0 l 11,-9 2,-4 17,-5 2,-8 5,-7 -9,-14 10,-8 -9,-13 1,-1 -5,-16 -4,-2 -4,-13 16,-6 3,-12 h 11 l 9,-1 1,-3 v -3 l -7,-14 19,-8 -2,-8 14,-9 -1,-13 2,-4 v -2 l 23,-15 -4,-7 1,-3 11,-7 2,-13 -3,-3 v -1 l -10,-7 -1,-3 -6,-4 -8,6 1,3 -10,5 -1,6 -8,3 v 4 l -8,7 h -6 l -3,2 h -9 l -5,3 v 0 l -6,-4 -10,4 -9,-5 v 0 l 1,-9 -2,-5 -7,-4 -6,-1 -1,-1 -5,-3 -2,-3 -3,-2 -10,-1 -6,4 -9,-12 -5,13 -9,3 -2,-1 h -1 l -14,-1 -2,-2 -10,-2 v 0 h -1 l -9,-12 1,-6 -4,-4 2,-10 -7,-10 -3,-1 -1,-1 -9,2 -8,-2 -5,3 -8,-4 -6,3 -6,-3 -4,1 -4,8 8,4 -2,10 -6,1 -7,9 -4,1 -3,5 -10,3 v 0 l -4,-5 -12,-1 v -1 l -9,2 v 0 l -4,-1 -6,-11 1,-1 -1,-2 3,-10 -2,-4 8,-10"
       clip-path="url(#state-clip3)"
       stroke="#63708e"
       style="fill:#ffffff;stroke:#000000" />
  </g>
  <text
     xml:space="preserve"
     style="font-weight:600;font-size:14.6667px;font-family:Rajdhani;-inkscape-font-specification:'Rajdhani, Semi-Bold';text-align:center;text-anchor:middle;fill:#ffffff;stroke:#000000;stroke-width:10;paint-order:stroke fill markers"
     x="188.74944"
     y="230.11919"
     id="text797"><tspan
       id="tspan795"
       x="188.74944"
       y="230.11919">X</tspan></text>
</svg>
