<?xml version="1.0" encoding="UTF-8" standalone="no"?>
<svg
   id="fantasyMap"
   width="127.25162"
   height="101.15308"
   version="1.1"
   background-color="#000000"
   xmlns="http://www.w3.org/2000/svg"
   xmlns:svg="http://www.w3.org/2000/svg">
  <defs
     id="defs7517" />
  <g
     id="land_1706637220.595947"
     style="display:inline"
     transform="translate(-1760.2677,-483.69794)">
    <path
       id="state-border1"
       d="m 1788.823,486.245 -6,22 v 0 l -3,8 14,18 -2,3 -15,4 -5,-1 -4,1 -7,15 3,6 h 10 l 10,15 v 0 l 13,7 9,-8 v -1 l 6,-6 5,-1 9,-7 v -1 l 8,-3 h 2 l 6,-4 h 3 l 10,6 1,3 3,2 h 10 l 3,-3 h 7 l 8,-4 -8,-14 -12,-4 v -4 l -8,-10 -3,-2 -3,-3 -4,-13 -2,-2 -13,3 -5,-3 -3,-12 -5,-3 -4,-4 -12,4 -10,-6 -6,2"
       clip-path="url(#state-clip1)"
       stroke="#478873"
       style="fill:#ffffff;stroke:#000000" />
  </g>
  <text
     xml:space="preserve"
     style="font-weight:600;font-size:14.6667px;font-family:Rajdhani;-inkscape-font-specification:'Rajdhani, Semi-Bold';text-align:center;text-anchor:middle;fill:#ffffff;stroke:#000000;stroke-width:10;paint-order:stroke fill markers"
     x="65.808411"
     y="53.942703"
     id="text639"><tspan
       id="tspan637"
       x="65.808411"
       y="53.942703">X</tspan></text>
</svg>
