<?xml version="1.0" encoding="UTF-8" standalone="no"?>
<!-- Created with Inkscape (http://www.inkscape.org/) -->

<svg
   xmlns:dc="http://purl.org/dc/elements/1.1/"
   xmlns:cc="http://creativecommons.org/ns#"
   xmlns:rdf="http://www.w3.org/1999/02/22-rdf-syntax-ns#"
   xmlns:svg="http://www.w3.org/2000/svg"
   xmlns="http://www.w3.org/2000/svg"
   xmlns:sodipodi="http://sodipodi.sourceforge.net/DTD/sodipodi-0.dtd"
   xmlns:inkscape="http://www.inkscape.org/namespaces/inkscape"
   version="1.0"
   width="112"
   height="112"
   id="svg7966"
   inkscape:version="0.91 r13725"
   sodipodi:docname="02.svg">
  <sodipodi:namedview
     pagecolor="#ffffff"
     bordercolor="#666666"
     borderopacity="1"
     objecttolerance="10"
     gridtolerance="10"
     guidetolerance="10"
     inkscape:pageopacity="0"
     inkscape:pageshadow="2"
     inkscape:window-width="663"
     inkscape:window-height="480"
     id="namedview8"
     showgrid="false"
     fit-margin-top="0"
     fit-margin-left="0"
     fit-margin-right="0"
     fit-margin-bottom="0"
     inkscape:zoom="1.9666667"
     inkscape:cx="37.874195"
     inkscape:cy="55.502087"
     inkscape:window-x="39"
     inkscape:window-y="0"
     inkscape:window-maximized="0"
     inkscape:current-layer="svg7966" />
  <defs
     id="defs7968" />
  <metadata
     id="metadata7971">
    <rdf:RDF>
      <cc:Work
         rdf:about="">
        <dc:format>image/svg+xml</dc:format>
        <dc:type
           rdf:resource="http://purl.org/dc/dcmitype/StillImage" />
        <dc:title></dc:title>
      </cc:Work>
    </rdf:RDF>
  </metadata>
  <g
     transform="translate(-298.70995,-526.62296)"
     id="g3041">
    <path
       d="m 354.70995,527.1698 c -9.15531,25.42538 -25.55617,47.38993 -46.71875,63.40625 l 0,22.6875 c 0.32305,0.47931 0.66272,0.93756 1,1.40625 10.18512,14.15407 26.77492,23.40627 45.53125,23.40625 0.0624,-10e-6 0.12516,2e-4 0.1875,0 0.0624,1.9e-4 0.12511,0 0.1875,0 18.75634,10e-6 35.34614,-9.25217 45.53125,-23.40625 0.33728,-0.4687 0.67696,-0.92693 1,-1.40625 l 0,-22.6875 C 380.26613,574.55972 363.86527,552.59519 354.70995,527.1698 Z"
       id="path7835"
       style="fill:#1a374f;fill-opacity:1;stroke:#000000;stroke-width:0;stroke-miterlimit:4;stroke-dasharray:none;stroke-opacity:1"
       inkscape:connector-curvature="0" />
    <path
       d="m 354.70995,543.6073 c -9.802,19.78861 -24.02909,37.02277 -41.375,50.375 l 0,2.625 -0.0312,0 0,13.59375 c 9.02952,13.00904 24.06809,21.53126 41.09375,21.53125 17.41836,-10e-6 32.75761,-8.91891 41.71875,-22.4375 l 0,-12.6875 -0.0312,0 0,-2.625 c -17.3459,-13.35224 -31.57296,-30.58638 -41.375,-50.375 z m 0,20.78125 c 9.39135,14.30886 21.10565,26.96917 34.59375,37.4375 -6.96376,12.05654 -19.99056,20.15625 -34.90625,20.15625 -14.7701,-2e-5 -27.706,-7.9502 -34.71875,-19.8125 13.67208,-10.53348 25.53869,-23.31818 35.03125,-37.78125 z"
       id="path7839"
       style="fill:#f3c463;fill-opacity:1;stroke:#000000;stroke-width:0;stroke-miterlimit:4;stroke-dasharray:none;stroke-opacity:1"
       inkscape:connector-curvature="0" />
  </g>
</svg>
