<?xml version="1.0" encoding="UTF-8" standalone="no"?>
<!-- Created with Inkscape (http://www.inkscape.org/) -->

<svg
   xmlns:dc="http://purl.org/dc/elements/1.1/"
   xmlns:cc="http://creativecommons.org/ns#"
   xmlns:rdf="http://www.w3.org/1999/02/22-rdf-syntax-ns#"
   xmlns:svg="http://www.w3.org/2000/svg"
   xmlns="http://www.w3.org/2000/svg"
   xmlns:xlink="http://www.w3.org/1999/xlink"
   xmlns:sodipodi="http://sodipodi.sourceforge.net/DTD/sodipodi-0.dtd"
   xmlns:inkscape="http://www.inkscape.org/namespaces/inkscape"
   width="525"
   height="525"
   id="svg2"
   sodipodi:version="0.32"
   inkscape:version="0.91 r13725"
   sodipodi:docname="14.svg"
   inkscape:output_extension="org.inkscape.output.svg.inkscape"
   version="1.0">
  <defs
     id="defs4">
    <linearGradient
       id="linearGradient12101">
      <stop
         id="stop12103"
         offset="0"
         style="stop-color:#824b00;stop-opacity:1;" />
      <stop
         style="stop-color:#deab2d;stop-opacity:1;"
         offset="0.5"
         id="stop12107" />
      <stop
         id="stop12105"
         offset="1"
         style="stop-color:#824b00;stop-opacity:1;" />
    </linearGradient>
    <linearGradient
       id="linearGradient10147">
      <stop
         style="stop-color:#d9bd55;stop-opacity:1;"
         offset="0"
         id="stop10149" />
      <stop
         style="stop-color:#d9bd55;stop-opacity:0;"
         offset="1"
         id="stop10151" />
    </linearGradient>
    <linearGradient
       id="linearGradient6161">
      <stop
         style="stop-color:#deab2d;stop-opacity:1;"
         offset="0"
         id="stop6163" />
      <stop
         style="stop-color:#824b00;stop-opacity:1;"
         offset="1"
         id="stop6165" />
    </linearGradient>
    <linearGradient
       id="linearGradient5180">
      <stop
         style="stop-color:#824b00;stop-opacity:1;"
         offset="0"
         id="stop5182" />
      <stop
         style="stop-color:#b07b00;stop-opacity:1;"
         offset="1"
         id="stop5184" />
    </linearGradient>
    <linearGradient
       id="linearGradient5140">
      <stop
         style="stop-color:#c38c00;stop-opacity:1;"
         offset="0"
         id="stop5142" />
      <stop
         id="stop5150"
         offset="0.25"
         style="stop-color:#e9de94;stop-opacity:1;" />
      <stop
         style="stop-color:#c38c00;stop-opacity:1;"
         offset="0.5"
         id="stop5152" />
      <stop
         id="stop5154"
         offset="0.75"
         style="stop-color:#e9de94;stop-opacity:1;" />
      <stop
         id="stop5148"
         offset="1"
         style="stop-color:#c38c00;stop-opacity:1;" />
    </linearGradient>
    <linearGradient
       id="linearGradient4160">
      <stop
         style="stop-color:#e9de94;stop-opacity:1;"
         offset="0"
         id="stop4162" />
      <stop
         style="stop-color:#b07b00;stop-opacity:1"
         offset="1"
         id="stop4164" />
    </linearGradient>
    <linearGradient
       id="linearGradient4146">
      <stop
         id="stop4148"
         offset="0"
         style="stop-color:#e9de94;stop-opacity:1;" />
      <stop
         id="stop4150"
         offset="1"
         style="stop-color:#e9de94;stop-opacity:0;" />
    </linearGradient>
    <linearGradient
       id="linearGradient4114">
      <stop
         style="stop-color:#865100;stop-opacity:1;"
         offset="0"
         id="stop4116" />
      <stop
         style="stop-color:#865100;stop-opacity:0;"
         offset="1"
         id="stop4118" />
    </linearGradient>
    <radialGradient
       inkscape:collect="always"
       xlink:href="#linearGradient4114"
       id="radialGradient4120"
       cx="458.67865"
       cy="708.93274"
       fx="458.67865"
       fy="708.93274"
       r="249.79179"
       gradientTransform="matrix(-0.729034,-0.02972218,0.02033062,-0.4986741,888.71761,928.29555)"
       gradientUnits="userSpaceOnUse" />
    <radialGradient
       inkscape:collect="always"
       xlink:href="#linearGradient4114"
       id="radialGradient4128"
       gradientUnits="userSpaceOnUse"
       gradientTransform="matrix(-0.4128648,-0.02709556,0.02107056,-0.3210597,662.53811,858.07427)"
       cx="746.81195"
       cy="257.75104"
       fx="746.81195"
       fy="257.75104"
       r="249.79179" />
    <radialGradient
       inkscape:collect="always"
       xlink:href="#linearGradient4114"
       id="radialGradient4134"
       gradientUnits="userSpaceOnUse"
       gradientTransform="matrix(-0.7288851,0.03317422,-0.01202121,-0.2641234,909.68403,710.61137)"
       cx="1026.5966"
       cy="652.80103"
       fx="1026.5966"
       fy="652.80103"
       r="249.79179" />
    <radialGradient
       inkscape:collect="always"
       xlink:href="#linearGradient4146"
       id="radialGradient4144"
       cx="91.299866"
       cy="266.78873"
       fx="91.299866"
       fy="266.78873"
       r="249.79179"
       gradientTransform="matrix(0.4532314,-0.04609931,0.03328577,0.3272533,145.97823,270.06845)"
       gradientUnits="userSpaceOnUse" />
    <linearGradient
       inkscape:collect="always"
       xlink:href="#linearGradient5140"
       id="linearGradient5146"
       x1="184.87541"
       y1="655.24652"
       x2="563.55231"
       y2="366.72134"
       gradientUnits="userSpaceOnUse"
       gradientTransform="translate(52.766088,-8.8998916)" />
    <radialGradient
       inkscape:collect="always"
       xlink:href="#linearGradient4146"
       id="radialGradient5158"
       gradientUnits="userSpaceOnUse"
       gradientTransform="matrix(0.2645028,-0.02322311,0.02877013,0.3276812,285.56005,253.19096)"
       cx="695.27075"
       cy="318.46243"
       fx="695.27075"
       fy="318.46243"
       r="249.79179" />
    <linearGradient
       inkscape:collect="always"
       xlink:href="#linearGradient5180"
       id="linearGradient5186"
       x1="322.5061"
       y1="596.06561"
       x2="363.5625"
       y2="605.40369"
       gradientUnits="userSpaceOnUse" />
    <linearGradient
       inkscape:collect="always"
       xlink:href="#linearGradient6161"
       id="linearGradient6167"
       x1="152.625"
       y1="559.72064"
       x2="362.36188"
       y2="559.72064"
       gradientUnits="userSpaceOnUse" />
    <radialGradient
       inkscape:collect="always"
       xlink:href="#linearGradient4146"
       id="radialGradient7176"
       gradientUnits="userSpaceOnUse"
       gradientTransform="matrix(0.2645028,-0.02322311,0.02877013,0.3276812,285.56005,253.19096)"
       cx="696.23462"
       cy="318.09991"
       fx="696.23462"
       fy="318.09991"
       r="249.79179" />
    <radialGradient
       inkscape:collect="always"
       xlink:href="#linearGradient4114"
       id="radialGradient7178"
       gradientUnits="userSpaceOnUse"
       gradientTransform="matrix(-0.729034,-0.02972218,0.02033062,-0.4986741,888.71761,928.29555)"
       cx="458.67865"
       cy="708.93274"
       fx="458.67865"
       fy="708.93274"
       r="249.79179" />
    <radialGradient
       inkscape:collect="always"
       xlink:href="#linearGradient4114"
       id="radialGradient7180"
       gradientUnits="userSpaceOnUse"
       gradientTransform="matrix(-0.4128648,-0.02709556,0.02107056,-0.3210597,662.53811,858.07427)"
       cx="746.81195"
       cy="257.75104"
       fx="746.81195"
       fy="257.75104"
       r="249.79179" />
    <radialGradient
       inkscape:collect="always"
       xlink:href="#linearGradient4114"
       id="radialGradient7182"
       gradientUnits="userSpaceOnUse"
       gradientTransform="matrix(-0.7288851,0.03317422,-0.01202121,-0.2641234,909.68403,710.61137)"
       cx="1026.5966"
       cy="652.80103"
       fx="1026.5966"
       fy="652.80103"
       r="249.79179" />
    <radialGradient
       inkscape:collect="always"
       xlink:href="#linearGradient4146"
       id="radialGradient7184"
       gradientUnits="userSpaceOnUse"
       gradientTransform="matrix(0.4532314,-0.04609931,0.03328577,0.3272533,145.97823,270.06845)"
       cx="91.299866"
       cy="266.78873"
       fx="91.299866"
       fy="266.78873"
       r="249.79179" />
    <linearGradient
       inkscape:collect="always"
       xlink:href="#linearGradient6161"
       id="linearGradient7213"
       gradientUnits="userSpaceOnUse"
       x1="152.625"
       y1="559.72064"
       x2="362.36188"
       y2="559.72064"
       gradientTransform="translate(-93.930432,-247.94101)" />
    <linearGradient
       inkscape:collect="always"
       xlink:href="#linearGradient5180"
       id="linearGradient7216"
       gradientUnits="userSpaceOnUse"
       x1="322.5061"
       y1="596.06561"
       x2="363.5625"
       y2="605.40369"
       gradientTransform="translate(-93.930432,-247.94101)" />
    <linearGradient
       inkscape:collect="always"
       xlink:href="#linearGradient6161"
       id="linearGradient9166"
       x1="74.244423"
       y1="151.18668"
       x2="55.826202"
       y2="201.18668"
       gradientUnits="userSpaceOnUse"
       gradientTransform="translate(12.708218,-0.33277712)" />
    <radialGradient
       inkscape:collect="always"
       xlink:href="#linearGradient10147"
       id="radialGradient9170"
       gradientUnits="userSpaceOnUse"
       gradientTransform="matrix(0.4532314,-0.04609931,0.03328577,0.3272533,145.97823,270.06845)"
       cx="7.0530348"
       cy="611.98212"
       fx="7.0530348"
       fy="611.98212"
       r="249.79179" />
    <linearGradient
       inkscape:collect="always"
       xlink:href="#linearGradient12101"
       id="linearGradient10161"
       x1="104.23959"
       y1="7.7045135"
       x2="253.3033"
       y2="272.03915"
       gradientUnits="userSpaceOnUse"
       gradientTransform="translate(12.708218,-0.33277712)" />
    <linearGradient
       inkscape:collect="always"
       xlink:href="#linearGradient6161"
       id="linearGradient13086"
       x1="322.97101"
       y1="144.93362"
       x2="267.71936"
       y2="144.93362"
       gradientUnits="userSpaceOnUse"
       gradientTransform="translate(12.708218,-0.33277712)" />
    <linearGradient
       inkscape:collect="always"
       xlink:href="#linearGradient6161"
       id="linearGradient13098"
       x1="440.69827"
       y1="209.77686"
       x2="408.98047"
       y2="174.24997"
       gradientUnits="userSpaceOnUse"
       gradientTransform="translate(12.708218,-0.33277712)" />
    <linearGradient
       inkscape:collect="always"
       xlink:href="#linearGradient6161"
       id="linearGradient13108"
       x1="502.7529"
       y1="315.09189"
       x2="288.14603"
       y2="287.51471"
       gradientUnits="userSpaceOnUse"
       gradientTransform="translate(12.708218,-0.33277712)" />
    <linearGradient
       inkscape:collect="always"
       xlink:href="#linearGradient5180"
       id="linearGradient15056"
       x1="327.47882"
       y1="371.94208"
       x2="288.49957"
       y2="404.46899"
       gradientUnits="userSpaceOnUse"
       gradientTransform="translate(12.708218,-0.33277712)" />
    <linearGradient
       inkscape:collect="always"
       xlink:href="#linearGradient12101"
       id="linearGradient16035"
       x1="185.56729"
       y1="508.37265"
       x2="268.01138"
       y2="508.36008"
       gradientUnits="userSpaceOnUse"
       gradientTransform="translate(12.708218,-0.33277712)" />
  </defs>
  <sodipodi:namedview
     id="base"
     pagecolor="#ffffff"
     bordercolor="#666666"
     borderopacity="1.0"
     gridtolerance="10000"
     guidetolerance="10"
     objecttolerance="10"
     inkscape:pageopacity="0.0"
     inkscape:pageshadow="2"
     inkscape:zoom="0.5"
     inkscape:cx="88.4227"
     inkscape:cy="284.70443"
     inkscape:document-units="px"
     inkscape:current-layer="layer1"
     inkscape:window-width="1024"
     inkscape:window-height="712"
     inkscape:window-x="124"
     inkscape:window-y="255"
     showgrid="false"
     inkscape:window-maximized="0" />
  <metadata
     id="metadata7">
    <rdf:RDF>
      <cc:Work
         rdf:about="">
        <dc:format>image/svg+xml</dc:format>
        <dc:type
           rdf:resource="http://purl.org/dc/dcmitype/StillImage" />
        <dc:title></dc:title>
      </cc:Work>
    </rdf:RDF>
  </metadata>
  <g
     inkscape:groupmode="layer"
     id="layer2"
     inkscape:label="border"
     transform="translate(-148.81543,-238.58915)">
    <g
       id="g7150"
       transform="translate(54.005535,-8.6182344)">
      <path
         sodipodi:nodetypes="cccccccccccccccccc"
         id="path2170"
         d="m 314.40998,757.39764 c 17.87114,17.83256 50.80835,19.6923 73.99367,2.77792 4.04133,-27.82419 7.36577,-55.97925 5.3033,-86.62058 46.05551,23.60425 60.99719,29.15793 117.68278,21.2132 9.62095,-28.2609 11.48084,-58.59142 6.81853,-90.66119 38.02943,-5.92203 68.00543,-23.92421 88.89342,-55.55839 -16.80907,-48.94114 -26.91722,-59.77946 -57.83123,-94.95434 11.83567,-39.41804 15.60576,-57.80934 12.12183,-98.48987 -50.79928,-19.81958 -65.80616,-21.28515 -124.69585,-17.56364 -24.21436,-53.95153 -35.52881,-60.68521 -75.53571,-90 -57.30601,46.42512 -64.44464,43.5176 -100.00001,101.33929 -57.51166,-2.3022 -71.98562,-6.87036 -124.28571,17.76786 9.94075,46.5197 7.26956,53.61143 29.95801,103.58231 -32.81111,35.71881 -45.94503,39.76839 -59.3149,88.86186 31.11557,22.00914 44.71208,34.52395 90.56649,46.21448 -3.43589,23.39234 -7.21466,53.61988 18.96897,87.99313 49.97197,-1.02726 53.72946,3.8248 118.09611,-16.71425 -6.35374,27.77665 -13.44043,54.45387 -20.7397,80.81221 z"
         style="fill:#cc9900;fill-opacity:1;fill-rule:evenodd;stroke:none;stroke-width:1px;stroke-linecap:butt;stroke-linejoin:miter;stroke-opacity:1"
         inkscape:connector-curvature="0" />
      <path
         sodipodi:nodetypes="cccccccccccccccccc"
         id="path5156"
         d="m 314.40998,757.39703 c 17.87114,17.83256 50.80835,19.6923 73.99367,2.77792 4.04133,-27.82419 7.36577,-55.97925 5.3033,-86.62058 46.05551,23.60425 60.99719,29.15793 117.68278,21.2132 9.62095,-28.2609 11.48084,-58.59142 6.81853,-90.66119 38.02943,-5.92203 68.00543,-23.92421 88.89342,-55.55839 -16.80907,-48.94114 -26.91722,-59.77946 -57.83123,-94.95434 11.83567,-39.41804 15.60576,-57.80934 12.12183,-98.48987 -50.79928,-19.81958 -65.80616,-21.28515 -124.69585,-17.56364 -24.21436,-53.95153 -35.52881,-60.68521 -75.53571,-90 -57.30601,46.42512 -64.44464,43.5176 -100.00001,101.33929 -57.51166,-2.3022 -71.98562,-6.87036 -124.28571,17.76786 9.94075,46.5197 7.26956,53.61143 29.95801,103.58231 -32.81111,35.71881 -45.94503,39.76839 -59.3149,88.86186 31.11557,22.00914 44.71208,34.52395 90.56649,46.21448 -3.43589,23.39234 -7.21466,53.61988 18.96897,87.99313 49.97197,-1.02726 53.72946,3.8248 118.09611,-16.71425 -6.35374,27.77665 -13.44043,54.45387 -20.7397,80.81221 z"
         style="fill:url(#radialGradient7176);fill-opacity:1;fill-rule:evenodd;stroke:none;stroke-width:1px;stroke-linecap:butt;stroke-linejoin:miter;stroke-opacity:1"
         inkscape:connector-curvature="0" />
      <path
         style="fill:url(#radialGradient7178);fill-opacity:1;fill-rule:evenodd;stroke:none;stroke-width:1px;stroke-linecap:butt;stroke-linejoin:miter;stroke-opacity:1"
         d="m 314.40998,757.39764 c 17.87114,17.83256 50.80835,19.6923 73.99367,2.77792 4.04133,-27.82419 7.36577,-55.97925 5.3033,-86.62058 46.05551,23.60425 60.99719,29.15793 117.68278,21.2132 9.62095,-28.2609 11.48084,-58.59142 6.81853,-90.66119 38.02943,-5.92203 68.00543,-23.92421 88.89342,-55.55839 l -499.58357,10.54347 c 31.11557,22.00914 44.71208,34.52395 90.56649,46.21448 -3.43589,23.39234 -7.21466,53.61988 18.96897,87.99313 49.97197,-1.02726 53.72946,3.8248 118.09611,-16.71425 -6.35374,27.77665 -13.44043,54.45387 -20.7397,80.81221 z"
         id="path3143"
         sodipodi:nodetypes="ccccccccccc"
         inkscape:connector-curvature="0" />
      <path
         sodipodi:nodetypes="ccccc"
         id="path4126"
         d="m 314.40998,757.39764 c 17.87114,17.83256 50.80835,19.6923 73.99367,2.77792 4.04133,-27.82419 7.36577,-55.97925 5.3033,-86.62058 l -58.55727,3.03045 c -6.35374,27.77665 -13.44043,54.45387 -20.7397,80.81221 z"
         style="fill:url(#radialGradient7180);fill-opacity:1;fill-rule:evenodd;stroke:none;stroke-width:1px;stroke-linecap:butt;stroke-linejoin:miter;stroke-opacity:1"
         inkscape:connector-curvature="0" />
      <path
         sodipodi:nodetypes="ccccccccccc"
         id="path4130"
         d="m 314.40998,757.39764 c 17.87114,17.83256 50.80835,19.6923 73.99367,2.77792 4.04133,-27.82419 7.36577,-55.97925 5.3033,-86.62058 46.05551,23.60425 60.99719,29.15793 117.68278,21.2132 9.62095,-28.2609 11.48084,-58.59142 6.81853,-90.66119 38.02943,-5.92203 68.00543,-23.92421 88.89342,-55.55839 l -499.58357,10.54347 c 31.11557,22.00914 44.71208,34.52395 90.56649,46.21448 -3.43589,23.39234 -7.21466,53.61988 18.96897,87.99313 49.97197,-1.02726 53.72946,3.8248 118.09611,-16.71425 -6.35374,27.77665 -13.44043,54.45387 -20.7397,80.81221 z"
         style="fill:url(#radialGradient7182);fill-opacity:1;fill-rule:evenodd;stroke:none;stroke-width:1px;stroke-linecap:butt;stroke-linejoin:miter;stroke-opacity:1"
         inkscape:connector-curvature="0" />
      <path
         style="fill:url(#radialGradient7184);fill-opacity:1;fill-rule:evenodd;stroke:none;stroke-width:1px;stroke-linecap:butt;stroke-linejoin:miter;stroke-opacity:1"
         d="m 314.40998,757.39764 c 17.87114,17.83256 50.80835,19.6923 73.99367,2.77792 4.04133,-27.82419 7.36577,-55.97925 5.3033,-86.62058 46.05551,23.60425 60.99719,29.15793 117.68278,21.2132 9.62095,-28.2609 11.48084,-58.59142 6.81853,-90.66119 38.02943,-5.92203 68.00543,-23.92421 88.89342,-55.55839 -16.80907,-48.94114 -26.91722,-59.77946 -57.83123,-94.95434 11.83567,-39.41804 15.60576,-57.80934 12.12183,-98.48987 -50.79928,-19.81958 -65.80616,-21.28515 -124.69585,-17.56364 -24.21436,-53.95153 -35.52881,-60.68521 -75.53571,-90 -57.30601,46.42512 -64.44464,43.5176 -100.00001,101.33929 -57.51166,-2.3022 -71.98562,-6.87036 -124.28571,17.76786 9.94075,46.5197 7.26956,53.61143 29.95801,103.58231 -32.81111,35.71881 -45.94503,39.76839 -59.3149,88.86186 31.11557,22.00914 44.71208,34.52395 90.56649,46.21448 -3.43589,23.39234 -7.21466,53.61988 18.96897,87.99313 49.97197,-1.02726 53.72946,3.8248 118.09611,-16.71425 -6.35374,27.77665 -13.44043,54.45387 -20.7397,80.81221 z"
         id="path4136"
         sodipodi:nodetypes="cccccccccccccccccc"
         inkscape:connector-curvature="0" />
      <path
         sodipodi:nodetypes="cccccccccccccccccc"
         id="path9168"
         d="m 314.40998,757.39764 c 17.87114,17.83256 50.80835,19.6923 73.99367,2.77792 4.04133,-27.82419 7.36577,-55.97925 5.3033,-86.62058 46.05551,23.60425 60.99719,29.15793 117.68278,21.2132 9.62095,-28.2609 11.48084,-58.59142 6.81853,-90.66119 38.02943,-5.92203 68.00543,-23.92421 88.89342,-55.55839 -16.80907,-48.94114 -26.91722,-59.77946 -57.83123,-94.95434 11.83567,-39.41804 15.60576,-57.80934 12.12183,-98.48987 -50.79928,-19.81958 -65.80616,-21.28515 -124.69585,-17.56364 -24.21436,-53.95153 -35.52881,-60.68521 -75.53571,-90 -57.30601,46.42512 -64.44464,43.5176 -100.00001,101.33929 -57.51166,-2.3022 -71.98562,-6.87036 -124.28571,17.76786 9.94075,46.5197 7.26956,53.61143 29.95801,103.58231 -32.81111,35.71881 -45.94503,39.76839 -59.3149,88.86186 31.11557,22.00914 44.71208,34.52395 90.56649,46.21448 -3.43589,23.39234 -7.21466,53.61988 18.96897,87.99313 49.97197,-1.02726 53.72946,3.8248 118.09611,-16.71425 -6.35374,27.77665 -13.44043,54.45387 -20.7397,80.81221 z"
         style="fill:url(#radialGradient9170);fill-opacity:1;fill-rule:evenodd;stroke:none;stroke-width:1px;stroke-linecap:butt;stroke-linejoin:miter;stroke-opacity:1"
         inkscape:connector-curvature="0" />
    </g>
  </g>
  <g
     inkscape:label="Upper"
     inkscape:groupmode="layer"
     id="layer1"
     transform="translate(-148.81543,-238.58915)"
     style="display:inline">
    <path
       style="fill:url(#linearGradient5146);fill-opacity:1;fill-rule:evenodd;stroke:none;stroke-width:1px;stroke-linecap:butt;stroke-linejoin:miter;stroke-opacity:1"
       d="m 374.72247,747.32006 c 17.21868,14.88455 40.44077,16.64248 62.77963,2.67936 3.8938,-26.83709 5.357,-66.31187 3.3698,-95.86617 44.3741,22.76687 65.5245,35.37353 120.1405,27.71065 9.2697,-27.25831 9.0617,-60.26284 4.5696,-91.19491 36.6411,-5.71194 70.612,-20.78977 90.7374,-51.3017 -16.1954,-47.20491 -29.2738,-58.94445 -59.0592,-92.87147 11.4036,-38.01966 15.786,-56.50851 12.4293,-95.74586 C 560.7448,331.61349 544.5358,331.69991 487.7961,335.2894 464.4658,283.25184 453.5644,273.75705 415.01812,245.48222 359.8043,290.26037 353.17629,290.456 318.919,346.22643 c -55.41196,-2.22054 -71.3575,-8.62663 -121.74817,15.13753 9.57783,44.86936 9.00416,53.95951 30.86427,102.15764 -31.6132,34.45165 -46.39135,40.62534 -59.2731,87.97717 29.97958,21.22836 44.70342,30.03142 88.88373,41.30723 -3.31044,22.56248 -9.32625,53.96766 15.90144,87.1215 48.14755,-0.99082 62.15127,-0.56089 124.16796,-20.3713 -6.12177,26.79125 -15.95989,62.34061 -22.99266,87.76386 z"
       id="path4152"
       sodipodi:nodetypes="cccccccccccccccccc"
       inkscape:connector-curvature="0" />
  </g>
  <g
     inkscape:groupmode="layer"
     id="layer5"
     inkscape:label="Shadows"
     style="display:inline"
     transform="translate(0,0.66552734)">
    <path
       style="fill:url(#linearGradient7216);fill-opacity:1;fill-rule:evenodd;stroke:none;stroke-width:1px;stroke-linecap:butt;stroke-linejoin:miter;stroke-opacity:1"
       d="m 269.63207,290.48367 -19.8125,123.9375 c -53.92104,16.30884 -62.50752,21.3507 -120.71967,21.92678 12.17566,-49.98824 120.46873,-135.28412 140.53217,-145.86428 z"
       id="path5178"
       sodipodi:nodetypes="cccc"
       inkscape:connector-curvature="0" />
    <path
       style="fill:url(#linearGradient7213);fill-opacity:1;fill-rule:evenodd;stroke:none;stroke-width:1px;stroke-linecap:butt;stroke-linejoin:miter;stroke-opacity:1"
       d="M 23.194568,310.29617 C 107.33165,275.95173 137.28578,261.3302 267.93146,283.1067 188.22063,307.5437 185.37916,305.87309 113.16347,350.72379 79.985308,340.58137 49.064548,328.07895 23.194568,310.29617 Z"
       id="path5190"
       sodipodi:nodetypes="cccc"
       inkscape:connector-curvature="0" />
    <path
       style="fill:url(#linearGradient9166);fill-opacity:1;fill-rule:evenodd;stroke:none;stroke-width:1px;stroke-linecap:butt;stroke-linejoin:miter;stroke-opacity:1"
       d="M 82.181459,223.30453 C 60.901262,181.53213 61.865501,163.76549 51.952644,124.48636 145.86484,170.40063 160.16879,164.2329 269.03443,277.22143 162.86679,234.61534 174.2643,241.11997 82.181459,223.30453 Z"
       id="path7220"
       sodipodi:nodetypes="cccc"
       inkscape:connector-curvature="0" />
    <path
       style="fill:url(#linearGradient10161);fill-opacity:1;fill-rule:evenodd;stroke:none;stroke-width:1px;stroke-linecap:butt;stroke-linejoin:miter;stroke-opacity:1"
       d="M 270.22767,274.79075 C 234.13218,212.46734 198.9972,159.32297 167.95822,110.75169 l 5.625,0.125 c 39.56938,51.83449 60.70081,92.78191 96.64445,163.91406 z"
       id="path10153"
       sodipodi:nodetypes="cccc"
       inkscape:connector-curvature="0" />
    <path
       style="fill:url(#linearGradient13086);fill-opacity:1;fill-rule:evenodd;stroke:none;stroke-width:1px;stroke-linecap:butt;stroke-linejoin:miter;stroke-opacity:1"
       d="m 266.95822,11.626697 c 26.21537,18.072922 49.27587,38.314831 68.72102,86.254776 C 318.44789,157.77931 296.95295,217.67714 273.18868,277.57498 263.05591,188.11996 268.6965,100.24227 266.95822,11.626697 Z"
       id="path12109"
       sodipodi:nodetypes="cccc"
       inkscape:connector-curvature="0" />
    <path
       style="fill:url(#linearGradient13098);fill-opacity:1;fill-rule:evenodd;stroke:none;stroke-width:1px;stroke-linecap:butt;stroke-linejoin:miter;stroke-opacity:1"
       d="m 273.45822,279.50169 c 55.35511,-27.3649 82.14321,-37.57845 172.5,-76.375 10.21475,-29.375 11.51772,-58.75 12.5,-88.125 -63.08994,54.35891 -129.30623,107.6757 -185,164.5 z"
       id="path13088"
       sodipodi:nodetypes="cccc"
       inkscape:connector-curvature="0" />
    <path
       style="fill:url(#linearGradient13108);fill-opacity:1;fill-rule:evenodd;stroke:none;stroke-width:1px;stroke-linecap:butt;stroke-linejoin:miter;stroke-opacity:1"
       d="m 276.45905,282.87828 c 109.86934,-19.25962 98.17257,-3.46256 224.85995,16.97056 -17.71044,29.78938 -52.0377,42.37273 -86.62058,48.43682 -43.48403,-27.85922 -51.47935,-31.256 -138.23937,-65.40738 z"
       id="path13100"
       sodipodi:nodetypes="cccc"
       inkscape:connector-curvature="0" />
    <path
       style="fill:url(#linearGradient15056);fill-opacity:1;fill-rule:evenodd;stroke:none;stroke-width:1px;stroke-linecap:butt;stroke-linejoin:miter;stroke-opacity:1"
       d="m 406.5667,438.9721 c -42.61539,5.21206 -78.64635,-6.58563 -109.95511,-30.58237 -2.18995,-38.89087 -5.21329,-67.52869 -22.80419,-116.67261 62.76626,56.14816 92.62786,95.60907 132.7593,147.25498 z"
       id="path13110"
       sodipodi:nodetypes="cccc"
       inkscape:connector-curvature="0" />
    <path
       style="fill:url(#linearGradient16035);fill-opacity:1;fill-rule:evenodd;stroke:none;stroke-width:1px;stroke-linecap:butt;stroke-linejoin:miter;stroke-opacity:1"
       d="m 225.92788,507.9133 c 9.63226,-14.9864 67.95607,-9.47424 62.78034,2.92938 -17.79731,13.16461 -48.94376,13.07201 -62.78034,-2.92938 z"
       id="path15058"
       sodipodi:nodetypes="ccc"
       inkscape:connector-curvature="0" />
  </g>
</svg>
