<?xml version="1.0" encoding="UTF-8" standalone="no"?>
<svg
   id="fantasyMap"
   width="161.15085"
   height="168.02077"
   version="1.1"
   background-color="#000000"
   xmlns="http://www.w3.org/2000/svg"
   xmlns:svg="http://www.w3.org/2000/svg">
  <defs
     id="defs1393" />
  <g
     id="land_1708772912.5046163"
     style="display:inline"
     transform="translate(-1475.323,-662.72423)">
    <path
       id="state-border10"
       d="m 1501.823,664.245 12,-1 7,9 14,-4 3,11 14,4 -9,18 5,5 5,2 14,-5 3,-4 -1,-14 7,-1 19,12 5,-4 h 7 l 9,10 -4,10 13,9 -3,8 2,5 -1,7 1,3 -6,8 3,11 1,1 -2,11 -2,1 -12,-3 -5,5 h -1 l -5,8 -7,2 -5,11 -1,1 -1,7 -2,3 -15,1 -1,7 -6,4 -2,6 -3,2 h -3 l -11,-10 v -4 l -5,-11 v -1 l -2,-2 2,-12 -6,-8 1,-9 -13,-10 7,-13 -8,-12 -13,2 -4,-12 2,-4 -6,-20 -2,1 -15,-13 v -4 l 22,-6 -2,-11 6,-7 m 121,135 5,4 4,-1 4,-11 -10,-3 -3,4 v 7"
       clip-path="url(#state-clip10)"
       
       style="fill:#ffffff;stroke:#000000" />
  </g>
</svg>
