<?xml version="1.0" encoding="UTF-8" standalone="no"?>
<svg
   id="fantasyMap"
   width="245.28804"
   height="240.06995"
   version="1.1"
   background-color="#000000"
   xmlns="http://www.w3.org/2000/svg"
   xmlns:svg="http://www.w3.org/2000/svg">
  <defs
     id="defs1393" />
  <g
     id="land_1708772912.505655"
     style="display:inline"
     transform="translate(-1304.2257,-609.7151)">
    <path
       id="state-border24"
       d="m 1355.823,614.245 v 2 l -12,13 -4,10 v 4 l -6,4 6,21 13,-3 1,19 2,1 4,13 3,1 8,19 h 2 l 4,12 -17,10 -2,12 -1,2 -3,15 v 0 l -15,1 -5,6 -14,6 v 0 5 l -2,2 -9,4 -4,8 7,8 6,-1 3,5 -3,9 3,5 -1,5 5,4 1,3 7,5 6,1 4,2 9,-2 3,-3 7,-3 2,-1 3,-2 11,1 6,4 1,2 1,1 9,1 5,4 9,-2 1,-5 -3,-7 8,-9 h 2 v -1 l 14,-5 v -1 l 12,-3 4,-3 5,-2 2,-7 6,-4 -2,-11 12,2 v 10 l 1,2 -1,9 -3,3 1,8 6,4 7,-7 9,7 2,-5 h 11 l 2,2 11,-4 3,1 3,5 10,1 3,10 9,-1 5,-6 -11,-10 v -4 l -5,-11 v -1 l -2,-2 2,-12 -6,-8 1,-9 -13,-10 7,-13 -8,-12 -13,2 -4,-12 2,-4 -6,-20 -2,1 -15,-13 v -4 l -6,-8 -5,-3 -1,-13 v 0 l -2,-13 -16,-3 -2,-15 h -1 -10 l -8,-8 -11,6 -8,-5 -10,-1 -4,-13 -12,-2 -5,4 h -19"
       clip-path="url(#state-clip24)"
       
       style="fill:none;stroke:#808080;stroke-width:10;stroke-dasharray:none" />
  </g>
</svg>
