<?xml version="1.0" encoding="UTF-8" standalone="no"?>
<svg
   id="fantasyMap"
   width="380.19049"
   height="321.09561"
   version="1.1"
   background-color="#000000"
   xmlns="http://www.w3.org/2000/svg"
   xmlns:svg="http://www.w3.org/2000/svg">
  <defs
     id="defs1393" />
  <g
     id="land_1708772912.5048244"
     style="display:inline"
     transform="translate(-1029.1325,-274.745)">
    <path
       id="state-border13"
       d="m 1218.823,286.245 -3,-6 5,-2 18,3 3,-6 h 3 l 8,13 7,-3 10,2 v 0 l -1,5 2,11 6,4 10,-1 2,-4 v -8 l 14,-9 6,11 8,3 2,6 19,-1 1,1 h 3 l 6,7 4,17 -9,4 3,18 11,8 -10,12 5,11 v 2 l 9,15 -2,3 -2,10 11,8 1,13 2,1 15,-4 7,8 1,4 -2,2 v 21 l -6,4 18,21 v 1 l 5,3 v 19 l -22,-3 -3,14 -9,4 h -1 l -12,-1 -8,-8 -15,4 -6,-15 -12,-1 -5,-2 h -5 l -7,11 v 7 l -19,5 3,15 -3,10 v 1 l -1,7 -16,6 v 6 l -20,6 -2,-1 h -1 l -7,6 -15,-3 -4,-7 -18,1 v -19 l -5,-6 h -1 l -11,-6 -4,-6 5,-11 -6,-4 -17,-5 2,-4 -5,-21 -7,1 -2,1 -22,-3 -1,8 13,11 -3,8 -5,4 -4,7 -1,1 -3,14 -14,2 -1,-1 -12,3 -8,-9 h -11 l 1,19 -16,3 v 9 l -10,3 6,17 -13,4 -4,-7 v -8 l 3,-7 -3,-9 1,-3 13,-10 v 0 l -9,-14 15,-12 -4,-10 2,-4 -5,-21 -14,4 -8,-7 7,-16 -9,-6 3,-10 -4,-6 22,-15 v 0 l 3,-14 16,-7 -1,-9 3,-6 -9,-14 v -1 l 15,-5 -1,-10 8,-5 v -12 l 9,-6 -3,-16 20,-7 3,-11 7,-1 7,-14 h 9 l 3,-5 12,5 6,-4 6,2 4,10 v 2 l 3,6 8,1 7,-9 4,2 3,9 2,1 2,9 6,1 5,-10 -2,-4 v -2 l -4,-6 6,-8 7,2 2,-2 1,-10"
       clip-path="url(#state-clip13)"
       
       style="fill:#ffffff;stroke:#000000" />
  </g>
</svg>
