<?xml version="1.0" encoding="UTF-8" standalone="no"?>
<svg
   id="fantasyMap"
   width="238.11316"
   height="197.09253"
   version="1.1"
   background-color="#000000"
   xmlns="http://www.w3.org/2000/svg"
   xmlns:svg="http://www.w3.org/2000/svg">
  <defs
     id="defs1393" />
  <g
     id="land_1708772912.5053842"
     style="display:inline"
     transform="translate(-1637.2965,-80.7168)">
    <path
       id="state-border20"
       d="m 1764.823,90.245 5,-8 h 1 l 5,-1 10,6 3,9 4,3 1,4 -1,2 v 9 l 6,4 -4,7 2,4 -2,6 v 0 l -1,8 4,6 h 3 1 l 12,3 1,8 5,5 2,6 v 1 h 7 l 8,6 v 9 l -1,1 -1,10 1,2 11,3 3,-2 13,4 v 2 l 7,20 -3,2 -2,8 4,5 4,2 2,5 -14,14 -5,-3 -6,1 -12,-2 -8,16 -16,-3 -2,1 -18,-1 -1,1 -11,4 -9,-7 1,-12 -13,-6 h -2 l 2,-9 -21,-5 -2,3 -9,3 -4,-3 -17,-2 v -1 l -14,6 -5,7 -13,-6 -5,-8 6,-13 -25,-3 -1,-1 10,-13 -19,-2 -1,-2 -2,-9 -1,-1 2,-16 3,-4 -4,-20 2,-2 h 15 l 8,-12 2,-2 10,1 2,8 8,9 7,-4 10,1 4,5 17,-11 5,4 10,-5 h 3 l 5,-13 -11,-12 7,-5 h 13 v -20 l 3,-3 6,-2"
       clip-path="url(#state-clip20)"
       
       style="fill:#ffffff;stroke:#000000" />
  </g>
</svg>
