<?xml version="1.0" encoding="UTF-8" standalone="no"?>
<svg
   id="fantasyMap"
   width="684.13647"
   height="459.21884"
   version="1.1"
   background-color="#000000"
   xmlns="http://www.w3.org/2000/svg"
   xmlns:svg="http://www.w3.org/2000/svg">
  <defs
     id="defs1393" />
  <g
     id="land_1708772912.5050247"
     style="display:inline"
     transform="translate(-378.28854,-349.56644)">
    <path
       id="state-border15"
       d="m 889.823,364.245 20,-14 4,5 16,-4 7,8 10,1 5,9 5,-1 22,16 3,-1 8,3 h 4 l 4,2 8,13 12,-1 4,15 13,-1 5,16 12,4 -22,15 4,6 -3,10 9,6 -7,16 8,7 14,-4 5,21 -2,4 4,10 -15,12 9,14 v 0 l -13,10 -1,3 3,9 -3,7 v 8 l -21,3 -1,2 -19,9 -3,-7 -11,-8 -3,21 -12,-6 -5,5 -16,-1 v -1 l -17,-11 -6,14 -13,1 -2,-1 h -8 l -9,8 2,9 -19,8 -1,2 -15,-5 -1,21 -1,2 -16,-2 -3,-5 1,-9 -20,-6 v 0 l -9,4 -11,-6 -6,7 -6,1 -5,-5 -4,-2 -6,2 -7,10 v 1 l -8,13 h -1 l -6,15 v 2 l -1,2 2,14 v 0 1 l -1,1 2,16 -8,1 -3,5 -6,3 v 7 l -3,6 1,3 -3,9 v 0 l -4,14 h -2 l -5,12 v 1 l -2,9 -1,1 -1,1 -5,5 h -6 l -8,-11 5,-3 3,-8 4,-1 1,-9 6,-2 -1,-12 -2,-2 2,-10 -2,-4 -8,-5 -2,1 -4,5 -2,11 -7,3 -9,-3 -1,-10 -2,-3 h -7 l -9,9 -6,-2 -9,6 -5,-1 -6,4 -9,-5 h -11 l -1,1 -2,2 -1,11 v 3 0 l 10,5 h 10 l 3,2 8,1 3,9 -1,4 5,12 -10,5 -3,-1 -3,-5 -3,-3 -8,-1 -9,8 -6,-1 -2,2 -4,9 h -1 l -8,8 -11,-5 v 0 h -5 l -2,1 -4,8 -12,1 v 0 l -1,-14 7,-4 v -7 l 2,-4 -2,-10 -6,-3 -11,3 -2,3 v 3 l -6,5 -2,6 -6,3 -11,-5 v -4 l -10,-11 h -2 l -4,-3 v -1 l -7,-9 -5,-1 -7,12 -4,-1 -9,4 -1,5 -2,2 -4,8 -10,3 -4,-1 -2,-5 -2,-1 -6,-6 -2,-8 -4,-1 -5,-10 5,-5 v -7 l 1,-2 -4,-9 -12,5 -2,-3 2,-10 2,-2 1,-1 h 9 l 1,-5 8,-8 -1,-6 10,-8 -1,-2 5,-9 -3,-8 1,-1 -1,-10 -2,-2 1,-5 -2,-6 1,-3 -7,-11 1,-1 -7,-12 3,-5 5,-2 2,1 10,-6 -2,-7 7,-7 3,1 5,-4 1,-4 -3,-8 3,-8 7,-3 9,2 4,3 h 1 7 l 8,-10 v -6 l 7,-4 12,8 v -1 l 11,-2 7,7 v 0 l 8,-13 -1,-3 4,-8 v -3 l 2,-7 -8,-7 -8,3 -3,3 -4,2 -10,-6 -2,1 -11,-5 -1,1 -14,-5 2,-4 -8,-5 v -7 l -5,-5 10,-9 -6,-13 1,-1 -3,-15 3,-4 -14,-15 v -6 l 27,10 2,-4 -4,-14 7,-15 1,-1 -3,-7 15,-17 h 1 l 4,-3 9,-3 v -17 l 6,-6 v 0 l 13,12 7,1 2,7 12,3 2,13 4,2 8,-1 3,3 14,-1 5,20 10,1 3,-3 13,4 3,10 10,5 -2,5 2,7 8,8 v 0 l 4,3 5,1 5,4 h 1 l 8,-8 -3,-4 7,-5 v -11 l -4,-2 h -6 l -6,-2 5,-16 11,5 3,-3 -1,-16 21,12 4,-5 2,-7 4,-4 1,-14 14,1 3,-3 17,3 4,-4 12,1 5,11 13,1 7,10 h 14 l 5,-7 9,-1 4,-3 10,2 13,-12 2,1 12,-9 -3,-14 16,-2 2,-1 9,4 m -491,347 v 0 l -1,-9 -7,-5 -9,2 -3,7 2,6 2,3 5,1 11,-5"
       clip-path="url(#state-clip15)"
       
       style="fill:none;stroke:#808080;stroke-width:10;stroke-dasharray:none" />
  </g>
</svg>
