<?xml version="1.0" encoding="UTF-8" standalone="no"?>
<svg
   id="fantasyMap"
   width="404.32629"
   height="498.25827"
   version="1.1"
   background-color="#000000"
   xmlns="http://www.w3.org/2000/svg"
   xmlns:svg="http://www.w3.org/2000/svg">
  <defs
     id="defs1393" />
  <g
     id="land_1708772912.5046854"
     style="display:inline"
     transform="translate(-1666.043,-237.48673)">
    <path
       id="state-border11"
       d="m 1672.823,258.245 3,-13 13,6 5,-7 14,-6 v 1 l 17,2 4,3 9,-3 2,-3 21,5 -2,9 h 2 l 13,6 -1,12 9,7 11,-4 1,-1 18,1 2,-1 16,3 8,-16 12,2 -2,24 -17,-5 -3,8 7,15 -1,8 h 1 17 l 7,4 10,-2 3,4 h 13 l 3,12 h 3 l 3,12 -6,4 5,10 15,-15 5,4 3,1 5,-3 12,1 8,6 v 1 4 l -2,2 -1,14 -3,2 2,14 h 10 l 1,2 13,3 -4,14 v 0 l -6,8 v 3 l 8,5 2,6 -3,4 -5,2 -2,10 7,8 h 8 l 4,-4 3,-2 3,-4 9,-3 9,3 4,-3 10,3 5,-3 7,3 5,-2 6,-6 v -5 l -2,-5 1,-6 -2,-6 v -3 l 10,-7 8,1 3,13 v 0 l 2,9 1,1 1,9 4,5 v 1 l 5,10 v 0 1 l 4,11 -2,5 3,10 3,2 -1,6 -3,6 -11,-1 h -1 l -10,-3 -5,5 1,3 -5,10 h -5 l -4,2 -5,-1 -4,1 -9,-4 -2,-2 -10,1 -5,-7 -12,-3 v 0 l -6,-2 -3,-7 -3,-3 1,-7 -4,-6 -9,1 v 10 l 1,2 -4,10 2,6 -3,3 -1,1 -5,6 -6,2 -1,5 7,8 h 3 l 8,12 v 0 1 l -10,5 -1,1 -2,1 -10,-2 v 0 l -11,-1 -5,5 3,10 -2,5 h -3 l -11,-3 -7,2 -5,-1 -3,1 h -2 l -8,4 h -7 l -3,3 h -10 l -3,-2 -1,-3 -10,-6 h -3 l -6,4 h -2 l -8,3 v 1 l -9,7 -5,1 -9,-13 11,-13 v 0 l -17,-10 7,-13 -7,-10 8,-10 v -10 l -10,-6 2,-10 22,-5 -4,-12 -17,1 1,-17 -16,-3 v -14 l -6,-3 4,-21 -1,-1 -10,-2 -8,-10 -15,11 -15,-17 -4,-1 1,-15 -4,-6 -21,4 -1,-11 -10,-5 -2,-4 2,-7 -7,-6 1,-16 1,-2 -2,-10 -9,-3 -4,-10 1,-4 13,-9 -20,-11 6,-7 m 267,454 1,2 -1,1 3,9 4,2 -2,9 h 13 l 1,-2 -3,-7 1,-3 -2,-10 1,-1 -1,-10 -2,-1 h -11 l -1,1 -1,10"
       clip-path="url(#state-clip11)"
       
       style="fill:#ffffff;stroke:#000000" />
  </g>
</svg>
