<?xml version="1.0" encoding="UTF-8" standalone="no"?>
<svg
   id="fantasyMap"
   width="444.32819"
   height="228.06439"
   version="1.1"
   background-color="#000000"
   xmlns="http://www.w3.org/2000/svg"
   xmlns:svg="http://www.w3.org/2000/svg">
  <defs
     id="defs1393" />
  <g
     id="land_1708772912.5041049"
     style="display:inline"
     transform="translate(-1129.2759,-77.699922)">
    <path
       id="state-border3"
       d="m 1365.823,87.245 4,-9 15,2 v -1 l 9,-1 7,4 h 1 l 10,6 -2,8 17,1 v -1 l 5,-3 5,-11 h 15 1 l 11,2 h 1 l 6,3 9,-5 5,2 4,-4 10,3 2,5 9,3 1,2 3,2 11,-2 2,-2 12,-2 2,1 1,2 3,3 7,2 2,5 h 11 l 1,2 -3,8 7,7 -11,15 v 1 l -1,1 3,11 12,6 -13,16 -5,-1 -1,18 3,7 -16,11 h -1 l -13,10 1,11 v 1 l -3,18 -4,1 -7,-4 -6,1 -4,-4 -10,2 -3,-1 -6,2 -5,-2 -8,1 -1,-1 -5,-1 -7,-6 v 0 l -9,-7 -3,1 -3,-2 -7,3 -5,-3 -6,4 -10,-4 v 0 l -4,6 1,7 -6,6 -8,-2 -6,5 -6,-8 -8,6 v 5 l -5,3 -1,2 2,7 -3,4 3,11 h 3 l 7,8 v 6 l -1,1 -11,1 -1,1 -15,6 -1,-1 -2,-9 -4,-2 -4,-11 -4,-2 -5,3 -4,10 3,7 v 0 l 2,10 -19,1 -2,-6 -8,-3 -6,-11 -14,9 -7,-4 10,-13 -19,2 -2,3 -1,5 -10,-2 -7,3 -8,-13 h -3 l -3,6 -18,-3 -5,2 -9,-3 -5,3 h -1 l -2,1 -7,-1 -8,-5 -3,-7 -3,-1 -4,-8 -9,6 v 5 l -7,7 -6,-5 -3,-12 -5,-2 v 0 l -10,-2 -3,-2 v -5 l 5,-7 h 9 l 1,-5 v -2 l 8,-11 4,1 4,-14 -1,-1 -2,-13 1,-2 -1,-6 7,-5 -3,-13 7,-3 5,4 1,5 9,5 4,-1 7,5 h 6 l 4,2 11,-11 -1,-9 -1,-1 h -9 l -5,-10 1,-2 5,-2 3,-5 4,-2 3,-5 5,-2 8,3 v 12 1 l 8,1 8,-9 -1,-6 4,-4 v -4 l 10,-8 -1,-4 9,-7 7,6 -1,4 10,8 -2,6 8,6 -1,12 -5,2 -4,10 -12,2 -2,8 -2,2 -3,10 -2,2 -2,8 6,6 2,1 6,-2 2,-10 4,-2 2,-10 8,-4 h 1 l 8,-6 2,-5 4,-2 4,-2 1,-9 -2,-5 1,-4 4,-3 h 8 l 4,-3 h 6 l 6,-3 4,-1 6,-2 6,2 3,-1 12,3 5,-6 10,6 h 3 l 6,-9 -2,-7 -4,-2 -3,-12 -2,-2 -6,-10 1,-2 -6,-7 m -233,118 2,2 h 9 l 5,-8 -5,-8 -12,3 -2,6 3,5"
       clip-path="url(#state-clip3)"
       
       style="fill:none;stroke:#808080;stroke-width:10;stroke-dasharray:none" />
  </g>
</svg>
