<?xml version="1.0" encoding="UTF-8" standalone="no"?>
<svg
   id="fantasyMap"
   width="310.12668"
   height="316.46979"
   version="1.1"
   background-color="#000000"
   xmlns="http://www.w3.org/2000/svg"
   xmlns:svg="http://www.w3.org/2000/svg">
  <defs
     id="defs1393" />
  <g
     id="land_1708772912.505248"
     style="display:inline"
     transform="translate(-756.23631,-586.35218)">
    <path
       id="state-border18"
       d="m 950.823,606.245 16,1 5,-5 12,6 3,-21 11,8 3,7 19,-9 1,-2 21,-3 4,7 v 1 l 11,19 h 1 v 9 l -12,9 4,7 11,11 -7,12 -6,3 13,25 -3,3 h -4 l -17,11 v 5 l 6,6 1,16 21,-9 1,4 -9,13 6,7 -7,5 h -17 v 14 l -6,6 h -1 l -10,9 11,17 -2,3 5,15 -16,8 v 0 l 2,8 v 3 l 7,7 1,8 13,8 -1,8 -3,4 -1,5 -9,6 -10,-5 -3,-7 -5,-2 -4,2 -2,6 -10,6 12,6 2,12 -6,3 -12,-8 -4,-9 1,-4 -1,-3 v 0 l -3,-11 -4,-4 -10,-2 v 0 l -9,-5 -9,8 -5,-1 -4,-10 -7,-2 -1,-3 -12,-4 -5,5 h -4 l -3,-1 -1,-2 -1,-8 -3,-2 v -8 l -3,-3 -11,1 -3,3 -6,-1 -5,-4 -5,-1 -5,-3 -4,-10 h -1 l -4,-1 -8,-6 -7,1 -2,13 v 0 l -2,8 -14,3 v -1 l -2,-12 v 0 l -4,-12 -5,-3 -2,-7 -9,-2 -3,-6 -7,-1 -8,5 -1,4 -5,2 -9,-4 v -8 l 4,-6 h 3 l 9,-6 v -1 -4 l 9,-8 -8,-9 -6,7 -8,-4 -5,4 -8,-3 -4,-10 1,-1 -1,-6 2,-8 -1,-1 v -8 l 7,-8 2,-1 3,-5 2,-1 h 5 l 5,-3 h 4 l 8,-7 1,-5 -5,-4 -8,1 -3,-2 -7,1 -2,-1 -2,-10 -5,-3 3,-11 h 3 l 7,8 8,-10 v -1 l 3,-10 1,-1 3,-9 6,-1 6,-7 11,6 9,-4 v 0 l 20,6 -1,9 3,5 16,2 1,-2 1,-21 15,5 1,-2 19,-8 -2,-9 9,-8 h 8 l 2,1 13,-1 6,-14 17,11 v 1 m -148,231 -7,-8 -8,-1 -8,5 -1,7 3,6 7,5 h 3 2 l 5,-4 4,-10"
       clip-path="url(#state-clip18)"
       
       style="fill:#ffffff;stroke:#000000" />
  </g>
</svg>
