<?xml version="1.0" encoding="UTF-8" standalone="no"?>
<svg
   id="fantasyMap"
   width="153.38939"
   height="273.09747"
   version="1.1"
   background-color="#000000"
   xmlns="http://www.w3.org/2000/svg"
   xmlns:svg="http://www.w3.org/2000/svg">
  <defs
     id="defs1393" />
  <g
     id="land_1708772912.5041826"
     style="display:inline"
     transform="translate(-1666.0824,-358.6918)">
    <path
       id="state-border4"
       d="m 1694.823,368.245 v 13 l 4,6 v 0 l 19,17 -7,7 v 5 l 4,6 -11,13 -14,2 2,13 v 1 l -17,3 -2,15 -2,2 -1,12 h -1 l -1,18 8,5 -9,17 16,4 -4,16 11,4 4,12 v 1 l 3,20 h 14 l 2,10 5,4 -1,19 3,2 v 0 l 12,5 4,7 6,4 7,-2 2,-6 7,-6 7,-2 h 4 l 8,-1 v 0 l 7,-2 v -1 l 3,-1 9,-7 1,-12 v 0 -7 l 9,-8 v -1 l 6,-6 -9,-13 11,-13 v 0 l -17,-10 7,-13 -7,-10 8,-10 v -10 l -10,-6 2,-10 22,-5 -4,-12 -17,1 1,-17 -16,-3 v -14 l -6,-3 4,-21 -1,-1 -10,-2 -8,-10 -15,11 -15,-17 -4,-1 1,-15 -4,-6 -21,4 v 0 l -9,5"
       clip-path="url(#state-clip4)"
       
       style="fill:none;stroke:#808080;stroke-width:10;stroke-dasharray:none" />
  </g>
</svg>
