<?xml version="1.0" encoding="UTF-8" standalone="no"?>
<svg
   id="fantasyMap"
   width="436.22812"
   height="358.1163"
   version="1.1"
   background-color="#000000"
   xmlns="http://www.w3.org/2000/svg"
   xmlns:svg="http://www.w3.org/2000/svg">
  <defs
     id="defs1393" />
  <g
     id="land_1708772912.5051057"
     style="display:inline"
     transform="translate(-503.24629,-80.714093)">
    <path
       id="state-border16"
       d="m 719.823,91.245 2,3 1,9 v 0 l -1,12 -8,7 v 0 l -11,4 -2,5 -1,1 -13,-3 -3,-5 v -1 l -5,-8 -4,-1 -5,-11 1,-3 4,-3 6,2 5,4 h 3 l 4,-9 5,-2 2,-7 6,-4 10,2 3,7 1,1 m 81,50 -9,-2 -3,-11 2,-4 10,2 10,-7 1,-3 5,-3 8,4 8,-1 3,3 1,4 6,5 v 3 l 7,9 v 0 l -2,4 v 6 l 10,2 1,10 4,2 1,2 -3,10 2,2 -2,11 -7,1 -2,6 -7,2 -2,4 -7,2 -7,11 v 3 l 1,2 6,4 h 5 l 6,-2 3,-9 8,-4 11,4 h 1 1 l 9,6 v 8 l 1,2 3,3 2,7 1,2 8,2 3,-1 7,-1 3,-5 4,-3 2,-6 6,-2 7,7 1,4 v 0 l 11,1 v 0 l -5,17 1,1 -7,16 7,3 -4,21 h -2 l -5,15 -2,2 -2,16 2,3 -12,18 v 1 l -20,14 -9,-4 -2,1 -16,2 3,14 -12,9 -2,-1 -13,12 -10,-2 -4,3 -9,1 -5,7 h -14 l -7,-10 -13,-1 -5,-11 -12,-1 -4,4 -17,-3 -3,3 -14,-1 -1,14 -4,4 -2,7 -4,5 -21,-12 1,16 -3,3 -11,-5 -5,16 h -3 -3 l -9,1 -4,3 -10,-5 -3,-10 -13,-4 -3,3 -10,-1 -5,-20 -14,1 -3,-3 -8,1 -4,-2 -2,-13 -12,-3 -2,-7 -7,-1 -13,-12 v 0 l -20,-17 2,-5 5,-4 1,-16 -12,-6 6,-13 -16,-8 v -10 l -6,-7 6,-15 3,-2 7,2 16,-19 2,1 9,-6 9,1 9,-15 9,3 6,-8 -2,-12 6,-2 8,-12 5,2 2,12 7,2 5,-10 v -3 l 5,-7 1,-3 -1,-4 3,-4 7,-2 12,10 v 0 l 9,3 1,1 h 6 l 7,-9 v 0 l 5,-9 5,-2 9,7 1,1 5,6 6,1 6,-3 4,-11 2,-1 1,-2 12,-7 9,5 1,1 9,2 5,10 v 1 l 7,9 -1,4 7,5 1,8 6,5 h 6 l 3,-3 14,-1 h 1 v 0 l 3,11 -1,3 2,5 5,3 13,-2 1,-3 v -9 0 -7 l -1,-4 v -6 l -2,-5 -7,-3 -2,-2 v -10 l -2,-2 -1,-10 2,-3 -6,-7 4,-5 7,2 3,-7 -2,-4 m -20,38 4,8 -5,6 -8,-4 -1,-3 3,-5 7,-2"
       clip-path="url(#state-clip16)"
       
       style="fill:none;stroke:#808080;stroke-width:10;stroke-dasharray:none" />
  </g>
</svg>
