<?xml version="1.0" encoding="UTF-8" standalone="no"?>
<svg
   id="fantasyMap"
   width="197.13991"
   height="179.11226"
   version="1.1"
   background-color="#000000"
   xmlns="http://www.w3.org/2000/svg"
   xmlns:svg="http://www.w3.org/2000/svg">
  <defs
     id="defs1393" />
  <g
     id="land_1708772912.504757"
     style="display:inline"
     transform="translate(-395.22738,-116.63275)">
    <path
       id="state-border12"
       d="m 474.823,124.245 10,7 v 1 l 3,3 h 10 l 4,3 h 12 v 0 l 8,1 4,2 h 4 l 5,5 h 9 l 2,8 4,2 5,8 v 1 l 5,8 1,1 h 3 l 10,4 4,5 11,1 1,1 2,7 -8,12 -6,2 2,12 -6,8 -9,-3 -9,15 -9,-1 -9,6 -2,-1 -16,19 -7,-2 -3,2 -6,15 h -9 l -6,-1 -12,5 -5,12 -3,-1 -17,4 h -6 l -4,-18 -1,-1 -4,-16 -18,4 1,-19 h -11 l -3,-4 v -8 l -2,-4 4,-23 -6,-2 -6,-19 5,-3 v -11 l -1,-2 11,-13 v 0 l 5,-3 h 9 l 3,-2 h 6 l 8,-7 v -4 l 8,-3 1,-6 10,-5 -1,-3 8,-6 6,4 1,3"
       clip-path="url(#state-clip12)"
       
       style="fill:none;stroke:#808080;stroke-width:10;stroke-dasharray:none" />
  </g>
</svg>
