<?xml version="1.0" encoding="UTF-8" standalone="no"?>
<svg
   id="fantasyMap"
   width="341.10229"
   height="308.04117"
   version="1.1"
   background-color="#000000"
   xmlns="http://www.w3.org/2000/svg"
   xmlns:svg="http://www.w3.org/2000/svg">
  <defs
     id="defs1393" />
  <g
     id="land_1708772912.5055208"
     style="display:inline"
     transform="translate(-1036.323,-539.745)">
    <path
       id="state-border22"
       d="m 1096.823,549.245 12,-3 1,1 14,-2 4,12 h 7 l 11,9 16,-5 1,1 h 8 l 13,-18 11,6 h 1 l 5,6 v 19 l 18,-1 4,7 15,3 7,-6 h 1 l 2,1 13,12 1,2 20,-3 5,6 14,-9 8,7 11,-2 5,9 v 12 h 3 l 25,-3 3,4 v 2 l -12,13 -4,10 v 4 l -6,4 6,21 13,-3 1,19 2,1 4,13 3,1 8,19 h 2 l 4,12 -17,10 -2,12 -1,2 -3,15 v 0 l -15,1 -5,6 -14,6 v 0 5 l -2,2 -9,4 -4,8 7,8 -6,8 v 1 l -3,3 1,7 -4,7 2,5 -1,3 -10,4 -7,-3 -1,-1 -5,-1 -2,-2 -7,1 -2,1 -12,1 -2,-1 -7,2 -4,-1 v -18 l -7,-6 -1,-2 12,-15 -2,-2 -25,-7 -5,5 -17,-8 4,-17 -1,-2 -22,-3 -2,-1 -14,4 -2,3 h -16 l -3,-16 -9,-3 -6,-5 2,-11 -1,-1 -17,-4 -3,-11 v 0 h -17 l -3,-6 -5,-2 -15,4 -6,-6 -18,3 -6,-6 v -5 l 17,-11 h 4 l 3,-3 -13,-25 6,-3 7,-12 -11,-11 -4,-7 12,-9 v -9 h -1 l -11,-19 v -1 l 13,-4 -6,-17 10,-3 v -9 l 16,-3 -1,-19 h 11 l 8,9"
       clip-path="url(#state-clip22)"
       
       style="fill:none;stroke:#808080;stroke-width:10;stroke-dasharray:none" />
  </g>
</svg>
