<?xml version="1.0" encoding="UTF-8" standalone="no"?>
<svg
   id="fantasyMap"
   width="140.04916"
   height="118.2339"
   version="1.1"
   background-color="#000000"
   xmlns="http://www.w3.org/2000/svg"
   xmlns:svg="http://www.w3.org/2000/svg">
  <defs
     id="defs1393" />
  <g
     id="land_1708772912.5042574"
     style="display:inline"
     transform="translate(-1616.2738,-39.676515)">
    <path
       id="state-border5"
       d="m 1688.823,50.245 7,-10 4,1 6,12 h 2 l 5,9 v 4 1 l 13,1 -1,11 3,3 v 2 l 4,5 5,2 5,8 14,-4 v 20 h -13 l -7,5 11,12 -5,13 h -3 l -10,5 -5,-4 -17,11 -4,-5 -10,-1 -7,4 -8,-9 -2,-8 -10,-1 -2,2 -23,-7 v 1 h -22 l 5,-14 -5,-3 -2,-12 10,-6 v 0 l 4,-1 12,4 v 0 l 8,2 9,-5 2,-2 -7,-6 1,-10 1,-2 6,-1 3,-5 10,1 9,6 8,-1 1,-1 v -2 l -2,-15 1,-1 -4,-9"
       clip-path="url(#state-clip5)"
       
       style="fill:#ffffff;stroke:#000000" />
  </g>
</svg>
