<?xml version="1.0" encoding="UTF-8" standalone="no"?>
<svg
   id="fantasyMap"
   width="194.28413"
   height="394.30264"
   version="1.1"
   background-color="#000000"
   xmlns="http://www.w3.org/2000/svg"
   xmlns:svg="http://www.w3.org/2000/svg">
  <defs
     id="defs1393" />
  <g
     id="land_1708772912.503907"
     style="display:inline"
     transform="translate(-1524.2662,-102.68598)">
    <path
       id="state-border1"
       d="m 1569.823,119.245 -7,-7 3,-8 10,-1 3,5 h 11 l 4,4 9,1 4,-6 8,-4 2,1 2,12 5,3 -5,14 h 22 v -1 l 23,7 -8,12 h -15 l -2,2 4,20 -3,4 -2,16 1,1 2,9 1,2 19,2 -10,13 1,1 25,3 -6,13 5,8 -3,13 -6,7 20,11 -13,9 -1,4 4,10 9,3 2,10 -1,2 -1,16 7,6 -2,7 2,4 10,5 1,11 v 0 l -9,5 v 13 l 4,6 v 0 l 19,17 -7,7 v 5 l 4,6 -11,13 -14,2 2,13 v 1 l -17,3 -2,15 -2,2 -16,-11 -3,8 -13,12 -8,-9 -7,-1 -7,5 h -3 l -9,9 -11,3 h -1 v 0 l -19,4 -2,5 -19,-12 2,-8 h -16 l -5,-8 9,-9 v -5 l 11,-5 -10,-16 -11,-1 -2,-10 -1,-1 1,-19 4,-3 v -2 l 9,-21 -2,-5 13,-7 -3,-10 -13,-6 -2,-10 v -1 l 2,-2 -3,-16 2,-2 5,-13 7,-5 4,3 17,-8 v -1 l 7,-9 3,-1 5,12 9,-1 1,-1 v -2 l -6,-9 -5,-1 -1,-9 -10,-5 v -1 l -6,-4 -5,-1 -9,-7 v -1 l -6,-7 -9,-1 -5,3 -9,-4 3,-18 v -1 l -1,-11 13,-10 h 1 l 16,-11 -3,-7 1,-18 5,1 13,-16 -12,-6 -3,-11 1,-1 v -1 l 11,-15"
       clip-path="url(#state-clip1)"
       
       style="fill:none;stroke:#808080;stroke-width:10;stroke-dasharray:none" />
  </g>
</svg>
