<?xml version="1.0" encoding="UTF-8" standalone="no"?>
<svg
   id="fantasyMap"
   width="326.05801"
   height="264.27426"
   version="1.1"
   background-color="#000000"
   xmlns="http://www.w3.org/2000/svg"
   xmlns:svg="http://www.w3.org/2000/svg">
  <defs
     id="defs1393" />
  <g
     id="land_1708772912.5045445"
     style="display:inline"
     transform="translate(-1392.2778,-459.47073)">
    <path
       id="state-border9"
       d="m 1613.823,475.245 h 3 l 7,-5 7,1 8,9 13,-12 3,-8 16,11 -1,12 h -1 l -1,18 8,5 -9,17 16,4 -4,16 11,4 4,12 v 1 l 3,20 h 14 l 2,10 5,4 -1,19 h -14 l -2,-2 h -5 l -9,5 -2,12 v 0 l -7,9 v 4 l -3,6 1,3 -2,6 -10,5 h -2 l -2,1 -9,1 -2,-2 -10,5 v 1 l 1,10 2,2 h 1 l 7,8 1,1 1,1 2,12 -3,5 4,6 -5,11 h -1 l -8,-3 -3,1 -10,-2 -3,2 -13,-9 4,-10 -9,-10 h -7 l -5,4 -19,-12 -7,1 1,14 -3,4 -14,5 -5,-2 -5,-5 9,-18 -14,-4 -3,-11 -14,4 -7,-9 -12,1 -6,7 2,11 -22,6 -6,-8 -5,-3 -1,-13 v 0 l -2,-13 -16,-3 -2,-15 h -1 -10 l -8,-8 2,-8 -14,-8 -3,-5 -15,5 -2,-18 12,-3 2,-14 v 0 l 3,-14 7,-6 6,-1 8,8 6,1 9,-12 13,7 4,-19 12,-1 5,-12 5,-3 8,2 10,-4 8,1 6,-11 -2,-7 12,-13 4,1 v 0 l 20,-3 2,-4 19,12 2,-5 19,-4 v 0 h 1 l 11,-3 9,-9"
       clip-path="url(#state-clip9)"
       
       style="fill:#ffffff;stroke:#000000" />
  </g>
</svg>
