<?xml version="1.0" encoding="UTF-8" standalone="no"?>
<!-- Created with Inkscape (http://www.inkscape.org/) -->

<svg
   xmlns:dc="http://purl.org/dc/elements/1.1/"
   xmlns:cc="http://creativecommons.org/ns#"
   xmlns:rdf="http://www.w3.org/1999/02/22-rdf-syntax-ns#"
   xmlns:svg="http://www.w3.org/2000/svg"
   xmlns="http://www.w3.org/2000/svg"
   xmlns:sodipodi="http://sodipodi.sourceforge.net/DTD/sodipodi-0.dtd"
   xmlns:inkscape="http://www.inkscape.org/namespaces/inkscape"
   version="1.0"
   width="176"
   height="176"
   id="svg8071"
   inkscape:version="0.91 r13725"
   sodipodi:docname="07.svg">
  <sodipodi:namedview
     pagecolor="#ffffff"
     bordercolor="#666666"
     borderopacity="1"
     objecttolerance="10"
     gridtolerance="10"
     guidetolerance="10"
     inkscape:pageopacity="0"
     inkscape:pageshadow="2"
     inkscape:window-width="663"
     inkscape:window-height="480"
     id="namedview13"
     showgrid="false"
     fit-margin-top="0"
     fit-margin-left="0"
     fit-margin-right="0"
     fit-margin-bottom="0"
     inkscape:zoom="1.3111111"
     inkscape:cx="33.433542"
     inkscape:cy="87.606312"
     inkscape:window-x="39"
     inkscape:window-y="0"
     inkscape:window-maximized="0"
     inkscape:current-layer="svg8071" />
  <defs
     id="defs8073" />
  <metadata
     id="metadata8076">
    <rdf:RDF>
      <cc:Work
         rdf:about="">
        <dc:format>image/svg+xml</dc:format>
        <dc:type
           rdf:resource="http://purl.org/dc/dcmitype/StillImage" />
        <dc:title></dc:title>
      </cc:Work>
    </rdf:RDF>
  </metadata>
  <g
     transform="translate(-290.28085,-446.79999)"
     id="layer1">
    <path
       d="m 378.2808,447.23746 c -9.1552,25.42539 -25.5561,47.38993 -46.7187,63.40625 l 0,97.6875 c 13.3426,8.85651 29.328,14.03125 46.5313,14.03125 0.062,0 0.1252,1.4e-4 0.1874,0 0.062,1.4e-4 0.1252,0 0.1875,0 17.2033,0 33.1887,-5.17474 46.5313,-14.03125 l 0,-97.6875 C 403.837,494.62739 387.4362,472.66285 378.2808,447.23746 Z"
       id="path7748"
       style="fill:#1a374f;fill-opacity:1;stroke:#000000;stroke-width:0pt;stroke-miterlimit:4;stroke-dasharray:none;stroke-opacity:1"
       inkscape:connector-curvature="0" />
    <path
       d="m 336.8746,552.67496 0,13.59375 c 9.0295,13.00905 24.0681,21.53126 41.0937,21.53125 17.4184,0 32.7577,-8.91891 41.7188,-22.4375 l 0,-12.6875 -4.2813,0 c -5.9281,14.8656 -20.4647,25.375 -37.4375,25.375 -16.9727,-1e-5 -31.5093,-10.5094 -37.4375,-25.375 l -3.6562,0 z"
       id="path7750"
       style="fill:#f3c463;fill-opacity:1;stroke:#000000;stroke-width:0pt;stroke-miterlimit:4;stroke-dasharray:none;stroke-opacity:1"
       inkscape:connector-curvature="0" />
    <path
       d="m 419.6871,573.04996 c -10.0353,11.83628 -24.9959,19.375 -41.7188,19.375 -16.3736,0 -31.0755,-7.21385 -41.0937,-18.625 l 0,13.53125 c 11.1503,9.267 25.4695,14.84375 41.0937,14.84375 15.9124,0 30.4759,-5.79912 41.7188,-15.375 l 0,-13.75 z"
       id="path7752"
       style="fill:#f3c463;fill-opacity:1;stroke:#000000;stroke-width:0pt;stroke-miterlimit:4;stroke-dasharray:none;stroke-opacity:1"
       inkscape:connector-curvature="0" />
    <path
       d="m 419.6871,592.29996 c -11.5697,8.86625 -26.0297,14.15625 -41.7188,14.15625 -15.4169,10e-6 -29.6325,-5.09799 -41.0937,-13.6875 l 0,11.875 c 11.9572,7.36665 26.0237,11.62499 41.0937,11.625 15.3217,0 29.6293,-4.40483 41.7188,-12 l 0,-11.96875 z"
       id="path7754"
       style="fill:#f3c463;fill-opacity:1;stroke:#000000;stroke-width:0pt;stroke-miterlimit:4;stroke-dasharray:none;stroke-opacity:1"
       inkscape:connector-curvature="0" />
    <path
       d="m 378.2808,463.67496 c -9.802,19.78862 -24.029,37.02277 -41.3749,50.375 l 0,12.8125 c 16.3631,-11.3349 30.4422,-25.74882 41.3749,-42.40625 10.9328,16.65743 25.0119,31.07135 41.375,42.40625 l 0,-12.8125 c -17.3459,-13.35223 -31.5729,-30.58638 -41.375,-50.375 z"
       id="path7756"
       style="fill:#f3c463;fill-opacity:1;stroke:#000000;stroke-width:0pt;stroke-miterlimit:4;stroke-dasharray:none;stroke-opacity:1"
       inkscape:connector-curvature="0" />
    <path
       d="m 378.2808,493.36246 c -11.2839,15.5519 -25.3203,28.98516 -41.3749,39.59375 l 0,11.59375 c 15.6377,-9.50463 29.5999,-21.48184 41.3749,-35.375 11.7751,13.89316 25.7374,25.87037 41.375,35.375 l 0,-11.59375 c -16.0546,-10.60859 -30.091,-24.04185 -41.375,-39.59375 z"
       id="path7758"
       style="fill:#f3c463;fill-opacity:1;stroke:#000000;stroke-width:0pt;stroke-miterlimit:4;stroke-dasharray:none;stroke-opacity:1"
       inkscape:connector-curvature="0" />
    <path
       d="m 378.2808,517.23746 c -11.9686,13.16411 -25.9124,24.48212 -41.3749,33.5 l 0,11.25 c 15.2218,-8.25758 29.1191,-18.61752 41.3749,-30.65625 12.2559,12.03873 26.1533,22.39867 41.375,30.65625 l 0,-11.25 c -15.4625,-9.01788 -29.4063,-20.33589 -41.375,-33.5 z"
       id="path7760"
       style="fill:#f3c463;fill-opacity:1;stroke:#000000;stroke-width:0pt;stroke-miterlimit:4;stroke-dasharray:none;stroke-opacity:1"
       inkscape:connector-curvature="0" />
  </g>
</svg>
