<?xml version="1.0" encoding="UTF-8" standalone="no"?>
<svg
   id="fantasyMap"
   width="571.0509"
   height="459.54672"
   version="1.1"
   background-color="#000000"
   viewBox="0 0 571.0509 459.54672"
   xmlns="http://www.w3.org/2000/svg"
   xmlns:svg="http://www.w3.org/2000/svg">
  <defs
     id="defs4389" />
  <g
     id="land_1708199572.7541306"
     style="display:inline"
     transform="translate(-1388.3217,-378.24127)">
    <path
       id="state-border2"
       d="m 1779.8217,399.245 3,-20 12,11 v 10 l 1,1 v 17 l 4,2 5,17 13,3 -2,15 h 16 l 2,3 4,9 10,-3 8,12 1,13 -6,3 -4,13 2,2 4,13 3,3 -12,13 h -6 l 4,17 -6,4 h -2 l -8,3 v 1 l -9,7 -5,1 -6,6 v 1 l -9,8 v 7 0 l -1,12 -9,7 -3,1 v 1 l -7,2 v 0 l -8,1 h -4 l -7,2 -7,6 -2,6 -7,2 -6,-4 -4,-7 -12,-5 v 0 l -3,-2 h -14 l -2,-2 h -5 l -9,5 -2,12 v 0 l -7,9 v 4 l -3,6 1,3 -2,6 -10,5 h -2 l -2,1 -9,1 -2,-2 -10,5 v 1 l 1,10 2,2 h 1 l 7,8 1,1 1,1 2,12 -3,5 4,6 -5,11 h -1 l -8,-3 -3,1 -10,-2 -3,2 -3,8 2,5 -1,7 1,3 -6,8 3,11 1,1 -2,11 -2,1 -12,-3 -5,5 h -1 l -5,8 -7,2 -5,11 -1,1 -1,7 -2,3 -15,1 -1,7 -6,4 -2,6 -3,2 h -3 l -5,6 -9,1 -3,-10 -10,-1 -3,-5 14,-16 v -1 l -2,-2 2,-12 -6,-8 1,-9 -13,-10 7,-13 -8,-12 -13,2 -4,-12 2,-4 -6,-20 -2,1 -15,-13 v -4 l -6,-8 -5,-3 -1,-13 v 0 l -23,2 -3,-1 7,-17 -16,-3 -4,3 -12,-4 -7,5 -8,-2 -9,-9 v -2 l 7,-11 -4,-13 3,-3 -2,-18 12,-3 2,-14 v 0 l 15,1 3,-2 6,-12 6,1 10,12 10,-3 9,13 13,-13 -1,-3 19,-14 -1,-4 5,-10 -8,-16 10,-4 8,1 6,-11 18,5 4,-7 17,-4 -5,-16 2,-4 19,12 2,-5 19,-4 v 0 h 1 l 11,-3 16,17 4,-9 14,-8 v -4 l 13,-12 3,-8 -2,-4 4,-4 7,-4 9,-13 2,-1 -5,-18 4,-10 13,11 3,9 -2,8 2,3 14,-2 10,5 7,-13 11,3 5,5 h 1 l 9,-5 3,-20 13,2 7,-15 10,2 m 160,313 1,2 -1,1 3,9 4,2 -2,9 h 13 l 1,-2 -3,-7 1,-3 -2,-10 1,-1 -1,-10 -2,-1 h -11 l -1,1 -1,10 m -317,87 5,4 4,-1 4,-11 -10,-3 -3,4 v 7"
       clip-path="url(#state-clip2)"
       
       style="fill:#ffffff;stroke:#000000" />
  </g>
</svg>
