<?xml version="1.0" encoding="UTF-8" standalone="no"?>
<svg
   id="fantasyMap"
   width="277.13364"
   height="289.23419"
   version="1.1"
   background-color="#000000"
   viewBox="0 0 277.13364 289.23419"
   xmlns="http://www.w3.org/2000/svg"
   xmlns:svg="http://www.w3.org/2000/svg">
  <defs
     id="defs4389" />
  <g
     id="land_1708199572.7549808"
     style="display:inline"
     transform="translate(-1508.2978,-151.67497)">
    <path
       id="state-border11"
       d="m 1559.8217,169.245 13,-16 8,-1 -1,20 10,3 9,-8 12,4 7,-3 7,7 15,2 -2,16 1,1 14,-2 8,15 h 12 l 4,17 7,1 10,19 14,-6 v 1 l 17,2 4,3 -5,17 21,5 2,4 2,2 v 16 l -2,2 1,19 v 0 l 6,22 6,2 2,4 6,4 -5,19 13,-1 9,11 -3,5 1,4 -3,20 -10,-2 -7,15 -13,-2 -3,20 -9,5 h -1 l -5,-5 -11,-3 -7,13 -10,-5 -14,2 -2,-3 2,-8 -3,-9 -13,-11 -1,-2 -20,5 -5,-13 7,-10 -15,-13 v -2 l 2,-6 -7,-12 -15,2 -6,-10 17,-14 -10,-10 1,-6 -8,-11 h -3 l -2,-7 -13,-4 v -2 l -6,-9 -5,-1 -1,-9 -10,-5 v -1 l -6,-4 -5,-1 -9,-7 v -1 l -6,-7 -9,-1 -5,3 -9,-4 -4,1 -7,-4 2,-11 -7,-5 1,-11 9,-3 8,3 13,-10 h 1 l 16,-11 -3,-7 1,-18 5,1"
       clip-path="url(#state-clip11)"
       
       style="fill:none;stroke:#808080;stroke-width:10;stroke-dasharray:none" />
  </g>
</svg>
