<?xml version="1.0" encoding="UTF-8" standalone="no"?>
<svg
   id="fantasyMap"
   width="491.0502"
   height="340.09399"
   version="1.1"
   background-color="#000000"
   xmlns="http://www.w3.org/2000/svg"
   xmlns:svg="http://www.w3.org/2000/svg">
  <defs
     id="defs7517" />
  <g
     id="land_1706637220.596828"
     style="display:inline"
     transform="translate(-1048.2994,-258.69571)">
    <path
       id="state-border10"
       d="m 1103.823,278.245 -1,-1 -4,-14 5,-4 11,3 2,8 5,3 3,-1 10,2 3,4 2,9 v 0 l 1,4 12,5 6,-4 6,2 4,10 v 2 l 3,6 8,1 7,-9 4,2 3,9 2,1 2,9 6,1 5,-10 -2,-4 v -2 l -4,-6 6,-8 7,2 2,-2 1,-10 -3,-6 5,-2 18,3 v 12 l 5,2 5,6 20,-9 2,11 6,4 10,-1 2,-4 h 15 l -1,9 2,3 14,-4 v -5 l 19,-1 1,1 h 3 l 6,7 13,-4 3,3 9,-1 5,2 h 2 l 5,-2 h 8 0.5 l 6.25,-3.5 6.25,-3.5 4,6 12,-2 2,-8 1,-5 1,-5 5,-2 1,-4 15,-8 2.5,4.5 2.5,4.5 3,7 3,7 8,1 1,1 12,2 1,7 7,3 5,9 8,2 v 2 l 16,10 2,8 19,-5 2,10 -9,16 1,2 -8,13 12,18 v 2 l -4,3 -1,19 -20,-1 -4,7 11,13 -6,8 10,11 1,8 -20,3 -4,-2 -15,8 -8,-4 -10,3 -1,21 -1,2 -20,-6 -1,4 -10,15 v 0 l -22,4 v 4 l -4,4 -16,3 7,19 -3,3 -17,-4 -4,5 -3,1 -12,7 -2,7 -22,1 1,14 -14,7 -1,6 -11,2 -8,-7 v -11 l -12,-4 -5,-11 -16,6 -14,-8 -8,19 h -1 l -7,6 -15,-3 -9,17 -7,-1 -11,-18 -2,1 -6,-2 -7,-12 14,-16 h 1 l 8,-11 -9,-17 1,-1 -2,-12 2,-3 2,-14 -4,-6 7,-12 -3,-8 3,-7 -3,-5 h -22 l -1,9 -5,3 -5,12 -22,-8 9,24 -2,1 -22,-3 -1,8 -4,5 -9,6 -5,-2 -16,5 -4,-2 -13,15 -5,-17 -3,-1 9,-19 -21,-1 -1,-11 -6,-7 2,-16 6,-6 -3,-13 -2,-2 3,-14 -4,-5 v -13 -1 l 13,-17 v -1 l 15,-5 -1,-10 8,-5 v -12 l 9,-6 -3,-16 -3,-2 1,-22 -19,2 -2,-14 3,-9 20,17 4,-10 7,-6 1,-7"
       clip-path="url(#state-clip10)"
       
       style="fill:#ffffff;stroke:#000000" />
  </g>
</svg>
