<?xml version="1.0" encoding="UTF-8" standalone="no"?>
<svg
   id="fantasyMap"
   width="292.36844"
   height="366.63287"
   version="1.1"
   background-color="#000000"
   xmlns="http://www.w3.org/2000/svg"
   xmlns:svg="http://www.w3.org/2000/svg">
  <defs
     id="defs115" />
  <g
     id="States_1705768885.6961231"
     style="display:inline"
     transform="translate(-996.13156,-246.47265)">
    <path
       id="state-border8"
       d="m 1082,253 1,-1 6,-1 v 0 l 11,-2 v -1 l 9,-1 4,5 v 10 l 8,2 4,-3 h 10 l 1,8 7,6 7,-8 h 10 l 1,-1 6,-2 4,2 4,12 v 1 l -7,3 -2,11 2,2 -1,9 1,2 2,1 2,9 4,1 6,-8 -1,-3 1,-2 -2,-10 1,-3 -2,-6 14,-6 4,10 v 1 l 3,11 v 2 l 1,1 7,8 3,1 5,13 1,1 3,5 5,2 4,8 8,3 v 5 l -5,9 -5,-1 -5,3 -1,4 6,8 -2,8 4,4 1,5 -6,7 1,7 -8,6 h -1 l -11,8 h -3 l -7,3 -2,11 v 0 l 6,6 8,1 6,-8 6,-1 5,-9 h 8 l 4,-5 7,-1 4,-4 5,-1 8,3 1,4 -6,11 v 1 l -6,6 v 2 l 5,8 h 7 l 4,14 1,1 -1,7 -7,6 -4,10 -20,-17 -3,9 2,14 19,-2 -1,22 3,2 3,16 -9,6 v 12 l -8,5 1,10 -15,5 v 1 l -13,17 -8,-4 -5,3 -18,-3 -2,3 -12,1 -9,9 h -1 l -15,20 -2,-7 -14,-7 v -9 l -17,-3 -4,16 -13,2 -4,-2 -8,-2 h -1 l -18,2 -2,-13 6,-7 -9,-19 3,-4 -8,-13 -9,-4 -2,1 -16,2 -6,-2 1,-11 -14,-8 8,-11 -1,-2 1,-16 -17,-2 10,-15 -7,-6 3,-8 12,-4 v -2 l -12,-13 6,-5 v -12 l 8,-2 -4,-20 11,1 2,-3 16,5 1,2 3,3 2,7 1,2 8,2 3,-1 7,-1 3,-5 4,-3 2,-6 6,-2 7,7 1,4 v 0 l 11,1 v 0 l 7,4 10,-3 2,3 12,-1 v 0 l 9,2 3,-2 11,3 3,-3 h 5 l 5,-7 8,-1 2,-6 -5,-6 -9,3 -3,-2 -8,1 -2,2 -3,2 -13,-7 -7,8 -6,-1 -2,-2 -14,-2 -1,-2 -5,-3 -2,-10 7,-7 v 0 l 9,-6 v -8 l 11,-3 v 0 l 8,-2 2,-3 -3,-10 -6,-2 v -6 l -7,-5 -6,5 1,10 -7,4 h -1 l -8,-9 v -1 l -9,-8 v 0 l -5,2 -7,-3 -8,3 -4,-5 -11,3 1,-10 -2,-2 v -10 l -9,1 -6,-6 -4,-1 -6,-6 -3,-1 1,-19 10,1 3,-4 v -9 l -3,-5 v 0 l 9,-6 6,7 8,-7 5,2 1,-1 5,-8 12,-1 m 192,85 -3,-6 v -9 l 2,-5 h 1 l 10,1 4,2 v 9 l -5,6 -9,2"
       clip-path="url(#state-clip8)"
       
       style="fill:none;stroke:#808080;stroke-width:10;stroke-dasharray:none" />
  </g>
</svg>
