<?xml version="1.0" encoding="UTF-8" standalone="no"?>
<svg
   id="fantasyMap"
   width="621.23132"
   height="399.27362"
   version="1.1"
   background-color="#000000"
   xmlns="http://www.w3.org/2000/svg"
   xmlns:svg="http://www.w3.org/2000/svg">
  <defs
     id="defs115" />
  <g
     id="States_1705768885.6960583"
     style="display:inline"
     transform="translate(-918.41331,-685.30335)">
    <path
       id="state-border7"
       d="m 1356,691 2,12 -1,1 9,17 -8,11 h -1 l -14,16 7,12 6,2 2,-1 11,18 7,1 9,-17 15,3 7,-6 h 1 l 8,-19 14,8 16,-6 5,11 12,4 v 11 l 8,7 11,-2 5,9 v 12 h 3 l 16,16 -4,10 v 4 l -6,4 6,21 -1,1 -2,8 4,7 -7,14 22,3 -7,14 5,6 -2,9 8,10 -2,12 -1,2 -3,15 20,6 1,2 2,4 -21,14 1,5 -6,11 9,9 -2,7 6,11 -2,1 -7,3 -3,3 -9,2 -4,-2 -6,-1 -7,-5 -1,-3 -5,-4 1,-5 -3,-5 3,-9 -3,-5 -6,1 -6,8 v 1 l -3,3 1,7 -4,7 2,5 -1,3 -10,4 -7,-3 -1,-1 -5,-1 -2,-2 -7,1 -2,1 -12,1 -2,-1 -7,2 -4,-1 -5,1 -10,-2 -2,-4 -4,-1 -7,-8 -4,-1 h -5 l -4,3 -2,7 -11,4 -8,-3 -4,2 -6,1 -2,1 h -7 l -5,4 -7,-1 -11,9 h -1 l -4,4 -8,1 v 1 h -2 l -12,-3 -3,-9 h -14 v 1 l -2,6 -7,5 v 0 l -10,-3 -2,-10 -8,-5 -7,3 -2,6 -11,3 -2,3 -1,8 -3,4 -1,5 -9,6 -10,-5 -3,-7 -5,-2 -4,2 -2,6 -10,6 12,6 2,12 -6,3 -12,-8 -4,-9 1,-4 -1,-3 v 0 l -3,-11 -4,-4 -10,-2 v 0 l -9,-5 -9,8 -5,-1 -4,-10 -7,-2 -1,-3 -12,-4 -5,5 h -4 l -3,-1 -1,-2 -1,-8 -3,-2 v -8 l -3,-3 -11,1 -3,3 -6,-1 -5,-4 -5,-1 -5,-3 -4,-10 h -1 l -4,-1 -8,-6 -7,1 -2,13 v 0 l -2,8 -14,3 v -1 l -2,-12 v 0 l -4,-12 -5,-3 -2,-7 -9,-2 -3,-6 -7,-1 -8,5 -1,4 -5,2 -9,-4 v -8 l 4,-6 h 3 l 9,-6 v -1 -4 l 9,-8 -8,-9 -6,7 -8,-4 -5,4 -8,-3 -4,-10 1,-1 -1,-6 2,-8 -1,-1 v -8 l 7,-8 2,-1 3,-5 2,-1 h 5 l 5,-3 h 4 l 9,9 6,-9 12,-2 v 0 l 10,-3 9,3 h 10 l 2,-5 14,-1 5,9 15,3 3,-4 11,-2 5,-4 h 11 l 4,7 21,1 v 0 l 14,5 5,-3 v -21 h 12 l 7,-5 8,3 15,-12 2,-1 6,-16 8,-2 4,1 9,-8 13,9 5,-20 h 5 l 12,-9 v -9 l 11,-6 1,-1 -3,-17 1,-1 20,-1 3,-14 3,-2 6,-8 12,-1 1,-1 -3,-16 14,-2 3,-14 1,-1 10,6 6,10 15,2 4,-9 17,-1 5,-11 -6,-4 1,-19 14,5 m -391,328 -7,-8 -8,-1 -8,5 -1,7 3,6 7,5 h 3 2 l 5,-4 4,-10"
       clip-path="url(#state-clip7)"
       
       style="fill:#ffffff" />
  </g>
</svg>
