<?xml version="1.0" encoding="UTF-8" standalone="no"?>
<svg
   id="fantasyMap"
   width="478.02191"
   height="574.09174"
   version="1.1"
   background-color="#000000"
   xmlns="http://www.w3.org/2000/svg"
   xmlns:svg="http://www.w3.org/2000/svg">
  <defs
     id="defs115" />
  <g
     id="States_1705768885.6964557"
     style="display:inline"
     transform="translate(-1481.4781,-457.44833)">
    <path
       id="state-border13"
       d="m 1694,465.5 4,-5.5 6,-2 3,2 5,12 -1,4 1,5 4,3 2,3 8,5 5,11 h -1 l 15,14 -1,8 2,2 19,-2 2,-1 9,3 6,10 15,-2 7,12 -2,6 v 2 l 15,13 4,-1 11,3 5,10 20,-4 4,-7 v 0 l 19,17 -7,7 v 5 l 4,6 -11,13 10,5 2,12 3,1 6,6 -5,18 8,5 2,6 18,3 -2,16 10,5 3,7 h 17 l -4,21 -4,1 -7,15 3,6 h 10 l 10,15 v 0 l 13,7 v 7 0 l -1,12 -9,7 -3,1 v 1 l -7,2 v 0 l -8,1 h -4 l -7,2 -7,6 -2,6 -7,2 -6,-4 -4,-7 -12,-5 v 0 l -3,-2 h -14 l -2,-2 h -5 l -9,5 -2,12 v 0 l -7,9 v 4 l -3,6 1,3 -2,6 -10,5 h -2 l -2,1 -9,1 -2,-2 -10,5 v 1 l 1,10 2,2 h 1 l 7,8 1,1 1,1 2,12 -3,5 4,6 -5,11 h -1 l -8,-3 -3,1 -10,-2 -3,2 -3,8 2,5 -1,7 1,3 -6,8 3,11 1,1 -2,11 -2,1 -12,-3 -5,5 h -1 l -5,8 -7,2 -5,11 -1,1 -1,7 -2,3 -15,1 -1,7 -6,4 -2,6 -3,2 h -3 l -5,6 -9,1 -3,-10 -10,-1 -3,-5 -3,-1 -11,4 -2,-2 h -11 l -2,5 -9,-7 -7,7 -6,-4 -1,-8 3,-3 1,-9 -1,-2 v -10 l -12,-2 2,11 -6,4 -2,7 -5,2 -4,3 -12,3 v 1 l -14,5 v 1 h -2 l -8,9 3,7 -1,5 -9,2 -5,-4 -9,-1 -1,-1 -1,-2 -6,-4 -11,-1 -3,2 -6,-11 2,-7 -9,-9 6,-11 -1,-5 21,-14 -2,-4 -1,-2 -20,-6 3,-15 1,-2 2,-12 -8,-10 2,-9 -5,-6 7,-14 -22,-3 7,-14 -4,-7 2,-8 1,-1 -6,-21 6,-4 v -4 l 4,-10 -16,-16 h -3 v -12 l -5,-9 1,-6 14,-7 5,4 12,3 6,-19 20,6 2,3 h 1 l 5,12 7,3 2,18 15,-5 3,5 14,8 -2,8 8,8 -4,12 16,3 h 1 l 16,3 2,13 v 0 l 17,-1 4,-18 14,4 v -1 l 18,-4 8,4 h 4 l 4,2 18,-7 2,-1 9,7 10,-5 v -14 l 7,-3 1,-10 13,-4 6,3 7,-5 11,6 10,-9 -2,-10 15,-8 -2,-8 -7,-9 11,-12 -5,-5 -1,-14 4,-3 4,-14 4,-2 -3,-19 2,-3 13,-1 -6,-15 2,-2 -4,-15 -13,12 -8,-9 -7,-1 -2,-13 -11,-5 h -6 l 1,-12 -3,-7 -21,1 5,-13 -15,-9 -8,9 h -4 l -4,-6 -4,-14 -1,-1 -16,-1 v -2 l -12,-18 8,-13 -1,-2 9,-16 -2,-10 -19,5 -2,-8 -16,-10 v -2 l -8,-2 -5,-9 6,-12 h 2 l 2,-4 7,-2 7,5 9,-1 1,-4 7,-5 4,-5.5 m 91,515.5 5,4 4,-1 4,-11 -10,-3 -3,4 v 7"
       clip-path="url(#state-clip13)"
       
       style="fill:none;stroke:#808080;stroke-width:10;stroke-dasharray:none" />
  </g>
</svg>
