<?xml version="1.0" encoding="UTF-8" standalone="no"?>
<svg
   id="fantasyMap"
   width="327.25232"
   height="266.0249"
   version="1.1"
   background-color="#000000"
   xmlns="http://www.w3.org/2000/svg"
   xmlns:svg="http://www.w3.org/2000/svg">
  <defs
     id="defs7517" />
  <g
     id="land_1706637220.596469"
     style="display:inline"
     transform="translate(-1333.2877,-398.74597)">
    <path
       id="state-border6"
       d="m 1534.823,399.245 16,1 1,1 4,14 4,6 h 4 l 8,-9 15,9 -5,13 21,-1 3,7 -1,12 h 6 l 11,5 2,13 7,1 8,9 13,-12 4,15 -2,2 6,15 -13,1 -2,3 3,19 -4,2 -4,14 -4,3 1,14 5,5 -11,12 7,9 2,8 -15,8 2,10 -10,9 -11,-6 -7,5 -6,-3 -13,4 -1,10 -7,3 v 14 l -10,5 -9,-7 -2,1 -18,7 -4,-2 h -4 l -8,-4 -18,4 v 1 l -14,-4 -4,18 -17,1 v 0 l -2,-13 -16,-3 h -1 l -16,-3 4,-12 -8,-8 2,-8 -14,-8 -3,-5 -15,5 -2,-18 -7,-3 -5,-12 h -1 l -2,-3 -20,-6 -6,19 -12,-3 -5,-4 -1,-14 22,-1 2,-7 12,-7 3,-1 4,-5 17,4 3,-3 -7,-19 16,-3 4,-4 v -4 l 22,-4 v 0 l 10,-15 1,-4 20,6 1,-2 1,-21 10,-3 8,4 15,-8 4,2 20,-3 -1,-8 -10,-11 6,-8 -11,-13 4,-7 20,1 1,-19 4,-3"
       clip-path="url(#state-clip6)"
       
       style="fill:#ffffff;stroke:#000000" />
  </g>
</svg>
