<?xml version="1.0" encoding="UTF-8" standalone="no"?>
<svg
   id="fantasyMap"
   width="444.32819"
   height="180.21962"
   version="1.1"
   background-color="#000000"
   xmlns="http://www.w3.org/2000/svg"
   xmlns:svg="http://www.w3.org/2000/svg">
  <defs
     id="defs115" />
  <g
     id="States_1705768885.6957178"
     style="display:inline"
     transform="translate(-1291.4529,-259.45492)">
    <path
       id="state-border2"
       d="m 1528,269 4,-9 15,2 v -1 l 9,-1 7,4 h 1 l 10,6 -2,8 17,1 v -1 l 5,-3 5,-11 h 15 1 l 11,2 h 1 l 6,3 9,-5 5,2 4,-4 10,3 2,5 9,3 1,2 3,2 11,-2 2,-2 12,-2 2,1 1,2 3,3 -4,20 -5,1 -3,16 19,6 6,-2 3,11 12,6 -13,16 11,6 v 16 l -5,5 1,12 4,4 -5,17 1,2 v 1 l 5,9 -21,9 -3,-4 -9,-1 -5,3 -9,-4 -4,1 -7,-4 -6,1 -4,-4 -10,2 -3,-1 -6,2 -5,-2 -8,1 -1,-1 -5,-1 -7,-6 -4.5,-3.5 -4.5,-3.5 -3,1 -3,-2 -7,3 -5,-3 -6,4 -10,-4 -2,3 -2,3 1,7 -6,6 -8,-2 -6,5 -6,-8 -8,6 v 5 l -5,3 -1,2 -10,2 -7,-8 -3,-8 -12,1 -5,4 -7,-2 -17,14 v 0 l -3,-3 h -23 l -1,-6 -13,-6 -10,8 -9,-2 -8,-11 -4,-1 -4,-15 -18,7 -6,-10 -17,9 -2,-2 -16,1 -5,-5 -10,8 -5,-4 4,-14 -1,-1 -2,-13 1,-2 -1,-6 7,-5 -3,-13 7,-3 5,4 1,5 9,5 4,-1 7,5 h 6 l 4,2 11,-11 -1,-9 -1,-1 h -9 l -5,-10 1,-2 5,-2 3,-5 4,-2 3,-5 5,-2 8,3 v 12 1 l 8,1 8,-9 -1,-6 4,-4 v -4 l 10,-8 -1,-4 9,-7 7,6 -1,4 10,8 -2,6 8,6 -1,12 -5,2 -4,10 -12,2 -2,8 -2,2 -3,10 -2,2 -2,8 6,6 2,1 6,-2 2,-10 4,-2 2,-10 8,-4 h 1 l 8,-6 2,-5 4,-2 4,-2 1,-9 -2,-5 1,-4 4,-3 h 8 l 4,-3 h 6 l 6,-3 4,-1 6,-2 6,2 3,-1 12,3 5,-6 10,6 h 3 l 6,-9 -2,-7 -4,-2 -3,-12 -2,-2 -6,-10 1,-2 -6,-7 m -233,118 2,2 h 9 l 5,-8 -5,-8 -12,3 -2,6 3,5"
       clip-path="url(#state-clip2)"
       
       style="fill:#ffffff" />
  </g>
</svg>
