<?xml version="1.0" encoding="UTF-8" standalone="no"?>
<svg
   id="fantasyMap"
   width="356.07309"
   height="264.36816"
   version="1.1"
   background-color="#000000"
   xmlns="http://www.w3.org/2000/svg"
   xmlns:svg="http://www.w3.org/2000/svg">
  <defs
     id="defs7517" />
  <g
     id="land_1706637220.5969772"
     style="display:inline"
     transform="translate(-1532.2499,-39.676515)">
    <path
       id="state-border11"
       d="m 1688.823,50.245 7,-10 4,1 6,12 h 2 l 5,9 v 4 1 l 13,1 -1,11 3,3 v 2 l 4,5 5,2 5,8 14,-4 3,-3 6,-2 5,-8 h 1 l 5,-1 10,6 3,9 4,3 1,4 -1,2 v 9 l 6,4 -4,7 2,4 -2,6 v 0 l -1,8 4,6 h 3 1 l 12,3 1,8 5,5 2,6 v 1 h 7 l 8,6 v 9 l -1,1 -1,10 1,2 11,3 3,-2 13,4 v 2 l 7,20 -3,2 -2,8 4,5 4,2 2,5 7,5 1,3 1,2 -2,14 h 1 v 4 l 5,7 v 3 l -17,12 -2,-2 -15,-8 -1,-1 -18,15 -7,-15 3,-8 -1,-5 -16,-3 -2,1 -18,-1 -1,1 -11,4 -9,-7 1,-12 -13,-6 h -2 l -11,4 -3,10 -21,-5 v 1 l -16,-3 -1,1 -13,1 -3,3 -18,-6 -6,7 -7,2 -8,-8 -3,-1 -14,17 -10,-4 -12,9 -4,-2 -13,13 -6,-9 -5,-1 -1,-9 -10,-5 -3,-2.5 -3,-2.5 -5,-1 -9,-7 -3,-4 21,-9 -5,-9 v -1 l -1,-2 5,-17 -4,-4 -1,-12 5,-5 v -16 l -11,-6 13,-16 -12,-6 -3,-11 -6,2 -19,-6 3,-16 5,-1 4,-20 7,2 2,5 h 11 l 1,2 10,-1 3,5 h 11 l 4,4 9,1 4,-6 8,-4 2,1 10,-6 v 0 l 4,-1 12,4 v 0 l 8,2 9,-5 2,-2 -7,-6 1,-10 1,-2 6,-1 3,-5 10,1 9,6 8,-1 1,-1 v -2 l -2,-15 1,-1 -4,-9"
       clip-path="url(#state-clip11)"
       
       style="fill:#ffffff;stroke:#000000" />
  </g>
</svg>
