<?xml version="1.0" encoding="UTF-8" standalone="no"?>
<svg
   id="fantasyMap"
   width="98.063828"
   height="94.166039"
   version="1.1"
   background-color="#000000"
   xmlns="http://www.w3.org/2000/svg"
   xmlns:svg="http://www.w3.org/2000/svg">
  <defs
     id="defs115" />
  <g
     id="States_1705768885.6967247"
     style="display:inline"
     transform="translate(-2021.5031,-277.38117)">
    <path
       id="state-border16"
       d="m 2048,306 -2,-16 1,-1 8,-1 4,4 9,1 v 1 l 5,2 8,-1 4,-7 -1,-4 9,-6 5,4 10,-3 1,1 10,2 -2,13 -5,1 -3,4 v 10 l -3,6 6,4 5,10 -3,8 -14,4 -1,7 -20,8 -1,6 -17,4 -1,2 -11,2 -3,-4 -2,-4 7,-9 -2,-5 1,-5 -2,-4 -2,-2 -1,-2 5,-12 v -3 l 4,-6 v -2 l -6,-7 v 0 m -26,44 1,-9 7,-2 5,5 -3,11 -1,1 -4,-2 -5,-4"
       clip-path="url(#state-clip16)"
       
       style="fill:#ffffff" />
  </g>
</svg>
