<?xml version="1.0" encoding="UTF-8" standalone="no"?>
<svg
   id="fantasyMap"
   width="471.20697"
   height="324.05643"
   version="1.1"
   background-color="#000000"
   xmlns="http://www.w3.org/2000/svg"
   xmlns:svg="http://www.w3.org/2000/svg">
  <defs
     id="defs115" />
  <g
     id="States_1705768885.6961887"
     style="display:inline"
     transform="translate(-584.31412,-261.44357)">
    <path
       id="state-border9"
       d="m 882,273 2,3 1,9 v 0 l -1,12 -8,7 v 0 l -11,4 -2,5 -1,1 -13,-3 -3,-5 v -1 l -5,-8 -4,-1 -5,-11 1,-3 4,-3 6,2 5,4 h 3 l 4,-9 5,-2 2,-7 6,-4 10,2 3,7 1,1 m 64,12 -6,-2 h -1 v -13 l 4,-6 h 5 l 7,4 -1,4 9,8 8,-5 v 0 l 8,-10 h 2 v -1 l 16,-2 2,13 -2,4 -3,-1 -13,6 -8,-5 -6,13 7,6 5,-3 8,4 8,-1 3,3 1,4 6,5 v 3 l 7,9 v 0 l -2,4 v 6 l 10,2 1,10 4,2 1,2 -3,10 2,2 -2,11 -7,1 -2,6 -7,2 -2,4 -7,2 -7,11 v 3 l 1,2 6,4 h 5 l 6,-2 3,-9 8,-4 11,4 h 1 1 l 9,6 v 8 l -16,-5 -2,3 -11,-1 4,20 -8,2 v 12 l -6,5 12,13 v 2 l -12,4 -3,8 7,6 -10,15 17,2 -1,16 1,2 -8,11 14,8 -1,11 -3,2 -4,-1 h -22 l -3,-10 -18,-2 -7,17 h -6 l -7,-6 -15,5 -4,-6 -12,5 -4,4 -13,-2 v 0 l -18,5 -3,9 -11,2 -7,7 -14,-17 -12,11 -10,-1 v 0 l -1,15 -8,5 h -1 l -7,-11 -16,10 -5,-4 -10,-2 -7,5 -14,1 -3,-3 2,-10 -8,-11 -8,7 -12,-3 -2,-7 -7,-1 -13,-12 v 0 l -20,-17 -3,1 -14,-1 -8,-14 h -5 l -10,-14 -10,-3 -3,-5 -11,2 -8,-16 h -6 l -4,-18 -1,-1 -4,-16 v -2 l -8,-14 1,-3 v -3 l -7,-14 19,-8 -2,-8 14,-9 -1,-13 2,-4 v -2 l 23,-15 -4,-7 1,-3 11,-7 2,-13 h 10 l 4,3 h 12 v 0 l 8,1 4,2 h 4 l 5,5 h 9 l 2,8 4,2 5,8 v 1 l 5,8 1,1 h 3 l 10,4 4,5 11,1 1,1 2,7 5,2 2,12 7,2 5,-10 v -3 l 5,-7 1,-3 -1,-4 3,-4 7,-2 12,10 v 0 l 9,3 1,1 h 6 l 7,-9 v 0 l 5,-9 5,-2 9,7 1,1 5,6 6,1 6,-3 4,-11 2,-1 1,-2 12,-7 9,5 1,1 9,2 5,10 v 1 l 7,9 -1,4 7,5 1,8 6,5 h 6 l 3,-3 14,-1 h 1 v 0 l 3,11 -1,3 2,5 5,3 13,-2 1,-3 v -9 0 -7 l -1,-4 v -6 l -2,-5 -7,-3 -2,-2 v -10 l -2,-2 -1,-10 2,-3 -6,-7 4,-5 7,2 3,-7 -2,-4 -9,-2 -3,-11 2,-4 -1,-3 2,-12 -8,-6 m 73,19 6,-1 1,-19 -3,-2 -12,6 v 7 l 8,9 v 0 m 34,12 -9,1 -6,-6 -4,-1 -4,11 1,6 2,1 3,5 3,2 4,4 h 10 l 1,-1 1,-10 -2,-2 v -10 m -110,45 4,8 -5,6 -8,-4 -1,-3 3,-5 7,-2"
       clip-path="url(#state-clip9)"
       
       style="fill:#ffffff" />
  </g>
</svg>
