<?xml version="1.0" encoding="UTF-8" standalone="no"?>
<svg
   id="fantasyMap"
   width="127.25162"
   height="101.15308"
   version="1.1"
   background-color="#000000"
   xmlns="http://www.w3.org/2000/svg"
   xmlns:svg="http://www.w3.org/2000/svg">
  <defs
     id="defs115" />
  <g
     id="States_1705768885.6956155"
     style="display:inline"
     transform="translate(-1922.4447,-665.45294)">
    <path
       id="state-border1"
       d="m 1951,668 -6,22 v 0 l -3,8 14,18 -2,3 -15,4 -5,-1 -4,1 -7,15 3,6 h 10 l 10,15 v 0 l 13,7 9,-8 v -1 l 6,-6 5,-1 9,-7 v -1 l 8,-3 h 2 l 6,-4 h 3 l 10,6 1,3 3,2 h 10 l 3,-3 h 7 l 8,-4 -8,-14 -12,-4 v -4 l -8,-10 -3,-2 -3,-3 -4,-13 -2,-2 -13,3 -5,-3 -3,-12 -5,-3 -4,-4 -12,4 -10,-6 -6,2"
       clip-path="url(#state-clip1)"
       
       style="fill:#ffffff" />
  </g>
</svg>
