<?xml version="1.0" encoding="UTF-8" standalone="no"?>
<svg
   id="fantasyMap"
   width="255"
   height="97.244667"
   version="1.1"
   background-color="#000000"
   xmlns="http://www.w3.org/2000/svg"
   xmlns:svg="http://www.w3.org/2000/svg">
  <defs
     id="defs115" />
  <g
     id="States_1705768885.6966503"
     style="display:inline"
     transform="translate(-1292.5,-399.33636)">
    <path
       id="state-border15"
       d="m 1308,419 v -2 l 8,-11 4,1 5,4 10,-8 5,5 16,-1 2,2 17,-9 6,10 18,-7 4,15 4,1 8,11 9,2 10,-8 13,6 1,6 h 23 l 3,3 v 0 l 17,-14 7,2 5,-4 12,-1 3,8 7,8 10,-2 2,7 -3,4 3,11 h 3 l 7,8 v 6 l -1,1 -11,1 -1,1 -15,6 -1,-1 -2,-9 -4,-2 -4,-11 -4,-2 -5,3 -4,10 3,7 1,5 1,5 -19,1 v 5 l -14,4 -2,-3 1,-9 h -15 v -8 l -7,-4 10,-13 -19,2 -2,3 -0.5,2.5 -0.5,2.5 -1,5 -20,9 -5,-6 -5,-2 v -12 l -18,-3 -5,2 -9,-3 -5,3 h -1 l -2,1 -7,-1 -8,-5 -3,-7 -3,-1 -4,-8 -9,6 v 5 l -7,7 -6,-5 -3,-12 -5,-2 v 0 l -10,-2 -3,-2 v -5 l 5,-7 h 9 l 1,-5"
       clip-path="url(#state-clip15)"
       
       style="fill:none;stroke:#808080;stroke-width:10;stroke-dasharray:none" />
  </g>
</svg>
